<svg width="43" height="44" viewBox="0 0 43 44" fill="none" xmlns="http://www.w3.org/2000/svg">
<path d="M21.3851 43.3195C33.1764 43.3195 42.7351 33.7608 42.7351 21.9696C42.7351 10.1783 33.1764 0.619629 21.3851 0.619629C9.59385 0.619629 0.0351562 10.1783 0.0351562 21.9696C0.0351562 33.7608 9.59385 43.3195 21.3851 43.3195Z" fill="white"/>
<path d="M31.0469 25.7329C30.801 25.5035 30.5475 25.2605 30.1891 25.2605C28.2754 25.2605 24.5261 25.193 24.5261 25.163C24.5261 25.1345 29.4122 25.0506 30.1141 25.0506C29.8036 24.8751 29.4947 24.6996 29.1843 24.5272C29.1528 24.5107 29.1093 24.5092 29.0733 24.5107C28.4914 24.5182 27.9095 24.5317 27.3276 24.5332C26.3783 24.5362 24.6086 24.5002 24.5216 24.4852C24.5261 24.4477 27.2856 24.3232 28.8543 24.2977C27.2796 23.2824 25.7184 22.2776 24.1707 21.2803C24.1662 21.3343 24.1692 21.3658 24.1677 21.3868C24.1602 22.3511 24.1557 23.3154 24.1467 24.2797C24.1392 25.2575 24.1527 26.2383 24.1152 27.2146C24.0837 28.0485 23.8603 28.8478 23.3099 29.4897C22.2826 30.688 20.9628 31.1379 19.4136 30.8305C17.8839 30.5275 16.9406 29.5587 16.5732 28.0755C16.4202 27.4531 16.4427 26.7857 16.4007 26.1379C16.3812 25.8439 16.3977 25.5485 16.3977 25.235H20.5804C20.5804 24.9336 20.5804 24.6516 20.5804 24.3682C20.5774 23.7728 20.3554 23.5343 19.7615 23.5149C19.6161 23.5104 19.5996 23.4489 19.5741 23.3244C19.5366 23.1414 19.4856 22.945 19.3806 22.798C19.0237 22.2941 18.5168 22.0016 17.9019 21.9971C15.2144 21.9761 12.5269 21.9731 9.83943 21.9701C9.15106 21.9701 8.59017 22.2506 8.20174 22.825C8.07727 23.0094 8.01578 23.2359 7.9123 23.4699C7.83131 23.4699 7.72333 23.4639 7.61835 23.4699C7.34091 23.4879 7.13095 23.6213 7.03946 23.8853C6.88649 24.3307 6.97498 24.7881 6.97198 25.2515C7.07696 25.2515 7.15344 25.2515 7.22993 25.2515C7.9033 25.2545 8.57667 25.259 9.25154 25.2575C9.40152 25.2575 9.4675 25.2815 9.45551 25.4615C9.39702 26.3448 9.4615 27.2236 9.63697 28.089C9.9849 29.7987 10.6703 31.3644 11.6901 32.7876C12.9213 34.5063 14.5155 35.757 16.4907 36.4889C18.7282 37.3167 21.0078 37.4517 23.3174 36.7528C25.033 36.2324 26.5058 35.3281 27.7535 34.0503C27.956 33.8134 28.157 33.5764 28.3579 33.3395C28.3594 33.338 28.3609 33.3365 28.3624 33.335L28.3654 33.332C28.5424 33.125 28.7178 32.9181 28.8933 32.7096C28.9098 32.6886 28.9203 32.6736 28.9308 32.6406C27.0367 32.6106 23.6458 32.5071 21.7502 32.4771L28.9458 32.4846H28.9683C28.9968 32.4831 29.0298 32.4771 29.0523 32.4651C29.0598 32.4607 29.0673 32.4562 29.0703 32.4487C29.0913 32.4142 29.1108 32.3812 29.1318 32.3452C29.1393 32.3317 29.1468 32.3197 29.1543 32.3062C29.1573 32.3002 29.1603 32.2957 29.1633 32.2897C29.1633 32.2897 29.1633 32.2882 29.1648 32.2867C29.1753 32.2687 29.1858 32.2492 29.1963 32.2297C29.2502 32.1322 29.3042 32.0332 29.3612 31.9298C26.8657 31.8863 22.1206 31.7483 22.1206 31.7483H23.4373C25.4275 31.7318 27.4176 31.7183 29.4077 31.7003C29.4392 31.7003 29.4797 31.6883 29.5097 31.6703L29.5727 31.5428L29.6297 31.4288L29.6612 31.3659C29.6822 31.3104 29.7032 31.2579 29.7227 31.2099C27.3051 31.1604 24.9116 31.1109 22.5165 31.0614C22.5165 31.0614 27.3306 30.9684 29.6597 30.9594H29.6987C29.7077 30.9594 29.7167 30.9594 29.7242 30.9594H29.7272C29.7856 30.9564 29.8306 30.9444 29.8651 30.9204C29.8756 30.8949 29.8876 30.868 29.8996 30.8425C29.9431 30.7405 29.9866 30.6355 30.0301 30.5245C30.0376 30.5005 30.0796 30.4045 30.0871 30.379C27.764 30.3865 25.8174 30.373 23.5303 30.2336C23.5303 30.2111 30.1351 30.2516 30.1351 30.2516C30.1981 30.0791 30.2611 29.8991 30.3225 29.7102C28.0685 29.7222 26.1803 29.7222 23.9578 29.5917C23.9578 29.5647 30.381 29.5242 30.381 29.5242C30.4305 29.3622 30.48 29.1958 30.5265 29.0218C28.3024 28.9438 26.5433 28.9528 24.3207 28.8343C24.4047 28.7938 28.3399 28.7818 30.423 28.7998C30.4905 28.7998 30.546 28.7953 30.5895 28.7833C30.63 28.6214 30.669 28.4549 30.7065 28.2824C28.4959 28.2644 26.6572 28.149 24.4437 28.0905C24.4437 28.0515 28.5229 28.0335 30.7545 28.0485C30.789 27.876 30.8219 27.7006 30.8504 27.5191C30.81 27.5161 30.774 27.5116 30.7395 27.5131C29.6987 27.5191 24.5891 27.4576 24.5231 27.4276C24.5336 27.3961 30.8834 27.3181 30.8834 27.3181C30.9089 27.1502 30.9314 26.9777 30.9524 26.8007C30.0661 26.8007 24.5891 26.6957 24.5231 26.6658C24.5876 26.6343 29.1333 26.5563 30.9794 26.5563C30.9974 26.3898 31.0109 26.2188 31.0244 26.0464V26.0329C29.5817 26.0329 24.6146 25.9534 24.5231 25.9249C24.5306 25.8904 31.0379 25.8364 31.0379 25.8364C31.0409 25.8004 31.0424 25.7644 31.0439 25.7269L31.0469 25.7329ZM9.44351 22.63C9.83043 22.5925 10.2219 22.5895 10.6118 22.5895C12.257 22.5895 13.9007 22.597 15.5458 22.603C15.6343 22.603 15.7228 22.615 15.8113 22.621L14.733 23.3664C12.7084 23.3904 10.6853 23.4144 8.65466 23.4384C8.74464 22.9795 9.03409 22.6705 9.44501 22.6315L9.44351 22.63ZM9.95191 24.7026C9.21855 24.7026 8.48519 24.7026 7.74583 24.7026C7.72783 24.6156 7.72184 24.5931 7.72034 24.5706C7.69634 24.0457 7.72034 24.0098 8.24224 24.0068C10.4453 23.9933 12.6484 23.9783 14.853 23.9783C15.5488 23.9783 16.2432 24.0203 16.9391 24.0472C17.0831 24.0532 17.2555 24.0248 17.251 24.2722C17.2465 24.4882 17.1595 24.5677 16.9481 24.5736C15.6943 24.6111 14.4421 24.6681 13.1883 24.6921C12.11 24.7131 11.0317 24.6996 9.95191 24.7011V24.7026Z" fill="black"/>
<path d="M22.79 10.0062C22.8545 10.1277 22.9265 10.1727 23.0555 10.1727C23.2774 10.1727 23.4994 10.1742 23.7214 10.1907C23.9988 10.2117 24.1023 10.3182 24.1263 10.5926C24.1353 10.6841 24.1353 10.7756 24.1353 10.8686C24.1413 12.0173 24.1488 13.1661 24.1518 14.3134C24.1548 15.0078 24.1518 15.7021 24.1518 16.371C24.4412 16.473 24.7142 16.5645 24.9856 16.665C25.3995 16.8209 25.6485 17.1074 25.707 17.5588C25.7205 17.6608 25.8045 17.7853 25.8929 17.8377C27.2352 18.6491 28.5819 19.4514 29.9287 20.2553C30.3006 20.4772 30.671 20.7007 31.079 20.9467C31.079 20.8147 31.079 20.7262 31.079 20.6377C31.079 17.7208 31.0775 14.8038 31.079 11.8854C31.079 11.464 31.091 11.0425 31.1195 10.6226C31.1434 10.2792 31.2169 10.2102 31.5589 10.1997C32.0643 10.1832 32.5697 10.1832 33.0751 10.1787C33.2565 10.1772 33.4365 10.1787 33.636 10.1787V6.73535H21.4883V8.81246C22.0447 9.08691 22.5006 9.45883 22.7885 10.0062H22.79Z" fill="black"/>
<path d="M35.6511 26.7244C35.4891 26.6239 35.3151 26.5444 35.1532 26.4425C34.2428 25.8651 33.3385 25.2772 32.4267 24.7028C31.3139 24.0024 30.1921 23.3155 29.0808 22.6137C28.214 22.0663 27.3516 21.5129 26.4983 20.946C25.8294 20.5036 25.1726 20.0402 24.5157 19.5783C24.4587 19.5378 24.4392 19.4463 24.3972 19.3668C28.16 21.8368 31.9903 24.1194 35.7635 26.5189C35.8715 26.198 35.8415 26.1395 35.5806 25.9865C34.6448 25.4346 33.7044 24.8903 32.7761 24.3264C31.1819 23.359 29.5922 22.3812 28.004 21.4019C27.0532 20.8155 26.1129 20.2156 25.1651 19.6248C24.9476 19.4898 24.7196 19.3698 24.4872 19.2393C24.6057 19.0414 24.7031 18.8794 24.8201 18.6844C28.5109 20.748 32.0593 23.0366 35.7905 25.0732C35.801 24.8273 35.81 24.6338 35.8175 24.4703C34.7392 23.8524 33.6729 23.2511 32.6171 22.6332C30.849 21.5984 29.0853 20.5561 27.3232 19.5108C26.6393 19.1058 25.9629 18.6874 25.2835 18.275C25.1531 18.1955 25.0811 18.1205 25.1366 17.9316C25.258 17.5147 25.0451 17.1592 24.6222 17.0572C24.2967 16.9793 23.9698 17.0017 23.6653 17.2222C23.4449 17.0257 23.2274 16.8353 23.013 16.6388C22.842 16.4828 22.701 16.3104 22.6635 16.0659C22.5946 15.6145 22.2916 15.3971 21.8747 15.2786C21.4638 15.1601 21.0603 15.0116 20.6239 14.8677C20.7829 14.7207 20.9179 14.6187 21.0243 14.4927C21.2553 14.2198 21.2508 14.0533 21.0123 13.7894C20.9059 13.6724 20.7784 13.5764 20.6734 13.4834C20.8504 13.104 20.8849 13.086 21.2403 13.1475C21.9212 13.266 22.5616 12.852 22.7145 12.1772C22.8195 11.7078 22.746 11.2518 22.4656 10.8634C22.2541 10.568 22.0097 10.2785 21.7262 10.0551C20.5639 9.13574 19.2832 8.39938 17.9574 7.74701C17.5735 7.55804 17.1431 7.43057 16.7202 7.36158C15.9733 7.2401 15.0825 7.7845 15.2175 8.69933C15.2594 8.98277 15.3464 9.26922 15.4634 9.53017C15.5564 9.73563 15.5429 9.9021 15.4529 10.1061C15.2699 10.0461 15.1005 9.97108 14.9235 9.93809C14.7975 9.91409 14.6326 9.8976 14.5351 9.95909C14.2876 10.1166 14.1961 10.541 14.2906 10.8259C14.3161 10.9009 14.3146 11.0119 14.2756 11.0764C13.8212 11.8382 13.3548 12.5941 12.8959 13.3529C12.8239 13.4729 12.7534 13.5569 12.5929 13.5479C12.5315 13.5434 12.434 13.5974 12.4085 13.6514C12.305 13.8688 12.203 14.0923 12.14 14.3248C12.1175 14.4117 12.185 14.5422 12.2465 14.6262C12.3305 14.7432 12.4715 14.8197 12.5435 14.9411C12.5974 15.0326 12.6064 15.1721 12.584 15.2786C12.5735 15.3296 12.4475 15.3716 12.368 15.3896C12.086 15.4525 11.7921 15.478 11.5177 15.5635C10.9133 15.7525 10.6118 16.1739 10.5788 16.8068C10.5563 17.2567 10.6778 17.6676 10.8953 18.0575C11.3602 18.8899 12.0591 19.4838 12.8434 19.9982C13.9952 20.754 15.2384 21.2144 16.6347 21.2039C17.458 21.1965 17.9229 20.919 18.1314 20.2816C18.2874 19.8032 18.2589 19.3308 17.9949 18.8899C17.9169 18.7579 17.83 18.6319 17.743 18.506C17.6455 18.365 17.7085 18.254 17.7865 18.1295C17.8689 17.9976 17.9739 18.0201 18.0849 18.053C18.2244 18.095 18.3594 18.1475 18.4973 18.194C18.9082 18.3305 19.0297 18.266 19.1167 17.8386C19.1437 17.7066 19.1332 17.5656 19.1392 17.4277C19.1422 17.3737 19.1452 17.3197 19.1512 17.2042C19.5276 17.6226 19.8921 17.9661 20.135 18.4175C20.351 18.8209 20.7124 18.9424 21.1233 18.7414C21.3333 18.6379 21.5178 18.6439 21.7157 18.7114C21.8882 18.7699 22.0517 18.8554 22.2196 18.9259C22.3966 19.0009 22.4671 19.0984 22.4101 19.3143C22.3306 19.6158 22.3801 19.9217 22.659 20.1167C22.9215 20.3011 23.2484 20.4046 23.5184 20.2156C23.7748 20.0357 23.9323 20.0852 24.1213 20.2666C24.1708 20.3131 24.2322 20.3476 24.2892 20.3851C26.0694 21.5489 27.8511 22.7097 29.6297 23.8734C31.2809 24.9532 32.9306 26.039 34.5833 27.1158C34.9522 27.3573 35.3331 27.5777 35.7351 27.8237C35.7516 27.4818 35.7725 27.1788 35.774 26.8759C35.774 26.8249 35.7051 26.7559 35.6496 26.7229L35.6511 26.7244ZM16.0438 8.07844C16.2762 7.87598 16.5687 7.84299 16.8461 7.91647C17.2136 8.01246 17.5915 8.11444 17.9199 8.2959C18.6878 8.71882 19.4361 9.18223 20.1815 9.64715C20.6404 9.93359 21.0933 10.2335 21.5208 10.5635C21.9302 10.8799 22.1881 11.2998 22.1476 11.8487C22.1221 12.1982 21.9212 12.4216 21.5942 12.4291C21.6392 12.3586 21.6677 12.3016 21.7082 12.2566C22.0726 11.8517 22.1296 11.4423 21.7772 11.0299C21.4938 10.6984 21.1263 10.436 20.7799 10.163C20.6029 10.0236 20.387 9.93209 20.189 9.81961C20.18 9.82411 20.171 9.83011 20.162 9.83461C20.324 10.0521 20.4964 10.2635 20.6434 10.493C20.6989 10.5785 20.7304 10.7134 20.7049 10.8094C20.6614 10.9789 20.5234 11.0644 20.3495 10.9729C20.093 10.8394 19.8411 10.6924 19.5936 10.5425C18.4958 9.8766 17.392 9.22573 16.1788 8.78781C15.8203 8.65883 15.7498 8.33339 16.0423 8.07994L16.0438 8.07844ZM13.3863 13.5959C13.7462 12.9855 14.1092 12.3736 14.4736 11.7662C14.5156 11.6943 14.5756 11.6328 14.6251 11.5638C14.7315 11.4138 14.856 11.3973 15.021 11.4798C15.9523 11.9432 16.8731 12.4201 17.713 13.041C17.7985 13.104 17.8854 13.161 17.9829 13.2285C17.665 13.9438 17.3141 14.6277 16.8356 15.2426C16.7007 15.415 16.5792 15.43 16.3782 15.3161C15.3899 14.7537 14.3911 14.2138 13.3788 13.6544C13.3788 13.6544 13.3713 13.6199 13.3848 13.5974L13.3863 13.5959ZM11.2012 17.0812C11.1592 16.9838 11.1682 16.8533 11.1862 16.7423C11.2552 16.3134 11.5491 16.1334 11.9541 16.3314C12.8524 16.7693 13.7417 17.2297 14.6176 17.7126C14.928 17.8836 15.207 18.125 15.4664 18.3695C15.7019 18.5899 15.8278 18.8779 15.6974 19.2618C15.4469 19.1268 15.1995 19.0219 14.985 18.8719C14.2501 18.362 13.4253 18.0291 12.6124 17.6766C12.2375 17.5147 11.8251 17.4427 11.4352 17.3077C11.3392 17.2747 11.2402 17.1742 11.2012 17.0797V17.0812ZM11.3752 17.8926C11.3887 17.8641 11.6811 17.8716 11.8071 17.9196C13.1328 18.4085 14.3896 19.0354 15.5624 19.8197C15.8173 19.9907 16.3332 20.6626 16.3542 20.7795C14.886 19.4793 13.1074 18.7234 11.3737 17.8926H11.3752ZM17.5075 20.1841C17.41 20.3686 17.2721 20.5201 16.9781 20.4991C17.0456 20.4241 17.0831 20.3746 17.1296 20.3326C17.4865 20.0117 17.5675 19.5153 17.2901 19.1178C17.1476 18.9139 16.9631 18.7309 16.7667 18.5779C15.6989 17.7516 14.5456 17.0647 13.3278 16.4828C12.9454 16.2999 12.5735 16.0989 12.1955 15.907C12.1985 15.883 12.203 15.859 12.206 15.835C12.3365 15.8275 12.4715 15.793 12.5929 15.8185C12.7939 15.8605 12.9964 15.9175 13.1793 16.0074C14.3461 16.5818 15.5054 17.1712 16.5372 17.9736C16.9721 18.311 17.3111 18.7354 17.518 19.2513C17.6425 19.5603 17.6695 19.8797 17.5075 20.1841ZM18.3279 17.5941C18.1824 17.5222 18.0309 17.4592 17.8914 17.3767C16.9721 16.8308 16.0633 16.2684 15.138 15.7345C14.3911 15.3041 13.6263 14.9021 12.8644 14.4957C12.7414 14.4297 12.7219 14.3712 12.7744 14.2468C12.8359 14.1013 12.9229 14.1178 13.0309 14.1718C13.7432 14.5227 14.4721 14.8422 15.162 15.2336C15.9583 15.685 16.7247 16.1934 17.4955 16.6898C17.758 16.8593 17.9994 17.0617 18.2379 17.2642C18.3114 17.3272 18.3489 17.5731 18.3264 17.5941H18.3279ZM14.856 10.7509C14.928 10.4495 15.0045 10.394 15.2939 10.538C16.0453 10.9114 16.7952 11.2908 17.5225 11.7063C18.1104 12.0437 18.6683 12.4366 19.2367 12.8085C19.5381 13.0065 19.8306 13.2135 19.8651 13.6364C18.2319 12.5986 16.6212 11.5353 14.8545 10.7509H14.856ZM18.5258 11.0089C17.818 10.562 17.0741 10.1765 16.3392 9.77462C16.1233 9.65614 15.9958 9.50767 16.0258 9.16874C16.7112 9.53467 17.3785 9.84511 17.9964 10.232C18.8903 10.7914 19.7496 11.4033 20.6179 12.0017C20.7739 12.1097 20.9044 12.2551 21.0363 12.3931C21.0948 12.4546 21.1308 12.5401 21.1878 12.6331C20.9464 12.6871 20.7889 12.5896 20.6314 12.4786C19.9326 11.9852 19.2502 11.4663 18.5273 11.0104L18.5258 11.0089ZM21.8252 16.9493C21.6572 17.3392 21.4458 17.7021 21.1128 17.9766C21.0363 18.0396 20.9179 18.05 20.8174 18.086C20.8219 17.9856 20.7964 17.8716 20.8354 17.7876C21.1113 17.2087 21.8087 15.9489 21.8702 15.8935C21.9377 15.9789 22.0097 16.0614 22.0726 16.1499C22.0861 16.1709 22.0996 16.2504 22.1116 16.2549C22.0172 16.4858 21.9242 16.7183 21.8252 16.9493ZM22.773 18.197C22.5975 18.059 22.4341 17.9061 22.2511 17.7771C22.1326 17.6931 22.0786 17.6196 22.1551 17.4787C22.2601 17.2867 22.3516 17.0872 22.4581 16.8743C22.752 17.1472 23.025 17.3992 23.3024 17.6571C23.1824 17.8551 23.0625 18.0545 22.929 18.275C22.866 18.2495 22.863 18.2465 22.773 18.1985V18.197ZM23.8003 19.0819C23.7643 19.1328 23.5304 19.4373 23.4344 19.5048C23.3459 19.5678 23.1989 19.5483 23.076 19.5663C23.079 19.4538 23.049 19.3248 23.0925 19.2318C23.2739 18.8539 23.4719 18.4835 23.6758 18.116C23.7568 17.9706 23.8528 17.8281 23.9653 17.7051C24.0328 17.6316 24.1453 17.5566 24.2352 17.5596C24.3642 17.5641 24.5142 17.6121 24.6057 17.6961C24.6432 17.7306 24.5742 17.9211 24.5142 18.0156C24.2862 18.377 24.0448 18.7294 23.8003 19.0789V19.0819Z" fill="black"/>
</svg>
