<svg width="47" height="47" viewBox="0 0 47 47" fill="none" xmlns="http://www.w3.org/2000/svg">
<path d="M23.3418 0.959869C18.8153 0.959869 14.3903 2.30215 10.6266 4.81698C6.86293 7.3318 3.92948 10.9062 2.19724 15.0882C0.464995 19.2702 0.011761 23.872 0.894851 28.3116C1.77794 32.7512 3.95769 36.8292 7.15846 40.0299C10.3592 43.2307 14.4372 45.4105 18.8768 46.2936C23.3164 47.1766 27.9182 46.7234 32.1002 44.9912C36.2822 43.2589 39.8566 40.3255 42.3714 36.5618C44.8863 32.7981 46.2285 28.3732 46.2285 23.8466C46.2221 17.7786 43.8088 11.961 39.5181 7.67031C35.2274 3.37961 29.4098 0.966277 23.3418 0.959869ZM23.3418 43.2123C19.5116 43.2123 15.7675 42.0765 12.5828 39.9486C9.39814 37.8206 6.91599 34.7961 5.45025 31.2575C3.98451 27.7189 3.601 23.8251 4.34823 20.0685C5.09546 16.312 6.93986 12.8613 9.6482 10.153C12.3565 7.44464 15.8072 5.60024 19.5638 4.85301C23.3203 4.10578 27.2141 4.48929 30.7528 5.95503C34.2914 7.42077 37.3159 9.90292 39.4438 13.0876C41.5717 16.2723 42.7075 20.0164 42.7075 23.8466C42.7017 28.9809 40.6595 33.9033 37.029 37.5338C33.3985 41.1643 28.4761 43.2065 23.3418 43.2123ZM37.426 23.8466C37.426 24.3135 37.2405 24.7613 36.9103 25.0915C36.5802 25.4216 36.1324 25.6071 35.6654 25.6071H27.5913L33.39 31.4036C33.5535 31.5672 33.6833 31.7614 33.7718 31.9751C33.8603 32.1888 33.9059 32.4179 33.9059 32.6492C33.9059 32.8805 33.8603 33.1096 33.7718 33.3233C33.6833 33.537 33.5535 33.7312 33.39 33.8947C33.2264 34.0583 33.0322 34.1881 32.8185 34.2766C32.6048 34.3651 32.3757 34.4107 32.1444 34.4107C31.9131 34.4107 31.684 34.3651 31.4703 34.2766C31.2566 34.1881 31.0624 34.0583 30.8988 33.8947L22.0963 25.0922C21.8498 24.8459 21.6819 24.5321 21.6138 24.1904C21.5458 23.8487 21.5806 23.4945 21.714 23.1727C21.8474 22.8508 22.0732 22.5758 22.363 22.3823C22.6528 22.1889 22.9934 22.0858 23.3418 22.0861H35.6654C36.1324 22.0861 36.5802 22.2716 36.9103 22.6017C37.2405 22.9319 37.426 23.3797 37.426 23.8466Z" fill="#E95B02"/>
</svg>
