<svg width="48" height="47" viewBox="0 0 48 47" fill="none" xmlns="http://www.w3.org/2000/svg">
<path d="M43.883 17.9366C43.4222 18.0137 43.0108 18.2707 42.7395 18.6511C42.4681 19.0315 42.359 19.5041 42.4361 19.9649C42.615 21.0333 42.7049 22.1147 42.7048 23.198C42.7089 27.9422 40.9653 32.5218 37.8068 36.0618C35.8418 33.2144 33.0787 31.0115 29.8651 29.7301C31.5914 28.3705 32.851 26.5067 33.4689 24.398C34.0868 22.2893 34.0322 20.0404 33.3127 17.9642C32.5932 15.888 31.2446 14.0875 29.4545 12.8132C27.6643 11.539 25.5216 10.8542 23.3242 10.8542C21.1268 10.8542 18.9841 11.539 17.1939 12.8132C15.4037 14.0875 14.0551 15.888 13.3357 17.9642C12.6162 20.0404 12.5616 22.2893 13.1795 24.398C13.7974 26.5067 15.057 28.3705 16.7832 29.7301C13.5696 31.0115 10.8066 33.2144 8.84161 36.0618C6.36336 33.2692 4.74453 29.8201 4.17979 26.1294C3.61505 22.4386 4.12843 18.6633 5.65821 15.2574C7.18798 11.8514 9.66902 8.95987 12.803 6.9304C15.937 4.90092 19.5905 3.81992 23.3242 3.81738C24.4074 3.8172 25.4888 3.90708 26.5572 4.08606C27.016 4.15845 27.4848 4.04676 27.8616 3.77529C28.2385 3.50382 28.4929 3.09452 28.5695 2.63644C28.6462 2.17836 28.5388 1.70855 28.2709 1.3292C28.0029 0.949849 27.596 0.691652 27.1386 0.610772C22.3539 -0.19415 17.4372 0.542355 13.0984 2.71395C8.75952 4.88554 5.22308 8.37985 2.99965 12.6924C0.776214 17.0049 -0.0191627 21.9124 0.72836 26.7064C1.47588 31.5004 3.72762 35.9328 7.15846 39.3637C10.5893 42.7945 15.0217 45.0463 19.8157 45.7938C24.6097 46.5413 29.5173 45.7459 33.8298 43.5225C38.1423 41.2991 41.6366 37.7626 43.8082 33.4238C45.9798 29.0849 46.7163 24.1682 45.9114 19.3835C45.8343 18.9227 45.5772 18.5113 45.1968 18.24C44.8165 17.9686 44.3439 17.8595 43.883 17.9366ZM16.2767 21.4361C16.2767 20.0422 16.69 18.6797 17.4644 17.5207C18.2388 16.3618 19.3395 15.4585 20.6272 14.9251C21.915 14.3917 23.332 14.2521 24.6991 14.524C26.0662 14.7959 27.3219 15.4672 28.3075 16.4528C29.2931 17.4384 29.9643 18.6941 30.2363 20.0612C30.5082 21.4283 30.3686 22.8453 29.8352 24.133C29.3018 25.4208 28.3985 26.5215 27.2396 27.2959C26.0806 28.0702 24.7181 28.4836 23.3242 28.4836C21.4551 28.4836 19.6625 27.7411 18.3409 26.4194C17.0192 25.0977 16.2767 23.3052 16.2767 21.4361ZM11.4492 38.5042C12.7237 36.5108 14.4796 34.8704 16.5549 33.7341C18.6302 32.5978 20.9582 32.0021 23.3242 32.0021C25.6902 32.0021 28.0182 32.5978 30.0935 33.7341C32.1688 34.8704 33.9246 36.5108 35.1992 38.5042C31.8039 41.1448 27.6254 42.5784 23.3242 42.5784C19.023 42.5784 14.8444 41.1448 11.4492 38.5042ZM47.475 5.0639L40.4276 12.1114C40.2639 12.2752 40.0696 12.4052 39.8557 12.4938C39.6418 12.5825 39.4126 12.6281 39.181 12.6281C38.9495 12.6281 38.7202 12.5825 38.5063 12.4938C38.2924 12.4052 38.0981 12.2752 37.9345 12.1114L34.4108 8.58764C34.2471 8.42395 34.1172 8.22961 34.0286 8.01573C33.94 7.80185 33.8944 7.57262 33.8944 7.34112C33.8944 7.10962 33.94 6.88038 34.0286 6.6665C34.1172 6.45263 34.2471 6.25829 34.4108 6.09459C34.7414 5.764 35.1897 5.57827 35.6573 5.57827C35.8888 5.57827 36.118 5.62387 36.3319 5.71246C36.5458 5.80105 36.7401 5.9309 36.9038 6.09459L39.181 8.37401L44.982 2.57085C45.1457 2.40716 45.34 2.27731 45.5539 2.18872C45.7678 2.10012 45.997 2.05453 46.2285 2.05453C46.46 2.05453 46.6892 2.10012 46.9031 2.18872C47.117 2.27731 47.3113 2.40716 47.475 2.57085C47.6387 2.73455 47.7686 2.92888 47.8572 3.14276C47.9458 3.35664 47.9914 3.58588 47.9914 3.81738C47.9914 4.04888 47.9458 4.27811 47.8572 4.49199C47.7686 4.70587 47.6387 4.9002 47.475 5.0639Z" fill="#E95B02"/>
</svg>
