<svg width="36" height="47" viewBox="0 0 36 47" fill="none" xmlns="http://www.w3.org/2000/svg">
<path d="M4.74885 46.4008C4.16496 46.1934 3.53498 46.0628 3.00488 45.7632C1.32237 44.8182 0.46959 43.3354 0.461907 41.4071C0.446542 38.1573 0.461907 34.9152 0.461907 31.6654C0.461907 23.0147 0.461907 14.3563 0.461907 5.70564C0.454224 3.26254 1.95235 1.31882 4.25715 0.773351C4.67202 0.673477 5.10993 0.635063 5.54016 0.635063C10.9027 0.62738 16.2652 0.62738 21.6277 0.62738C23.0567 0.62738 24.2629 1.11139 25.3 2.09477C28.0504 4.71457 30.8085 7.32668 33.582 9.92343C34.7728 11.0374 35.3336 12.3819 35.3336 14.0106C35.3183 23.0839 35.3029 32.1571 35.3336 41.2227C35.3413 44.1652 33.2132 46.0858 31.1466 46.3317C31.1081 46.3317 31.0697 46.3701 31.0313 46.3932H4.74885V46.4008ZM21.3742 3.30864H20.8979C15.7889 3.30864 10.6799 3.30864 5.57089 3.30864C4.04972 3.30864 3.13548 4.23056 3.13548 5.7671C3.13548 17.5984 3.13548 29.4298 3.13548 41.2534C3.13548 42.813 4.04972 43.7119 5.60931 43.7119C13.7914 43.7119 21.9657 43.7119 30.1478 43.7119C31.7304 43.7119 32.637 42.8053 32.637 41.215C32.637 32.3185 32.637 23.4296 32.637 14.533V14.0337H32.0915C29.6331 14.0337 27.1746 14.0337 24.7162 14.0337C22.6802 14.0337 21.3742 12.7199 21.3742 10.6687C21.3742 8.3869 21.3742 6.11282 21.3742 3.83106C21.3742 3.66972 21.3742 3.50839 21.3742 3.30096V3.30864ZM24.0554 4.62238C24.0554 6.72743 24.0554 8.70957 24.0554 10.684C24.0554 11.2372 24.1784 11.3601 24.7392 11.3601C26.7444 11.3601 28.7572 11.3601 30.7624 11.3601C30.8623 11.3601 30.9545 11.3601 31.1696 11.3601C28.7649 9.08602 26.4448 6.89645 24.0478 4.62238H24.0554Z" fill="#E95B02"/>
<path d="M17.6723 18.512C20.8991 18.512 24.1335 18.512 27.3602 18.512C28.4281 18.512 29.0965 19.4877 28.6663 20.402C28.4127 20.9398 27.9671 21.1933 27.3756 21.1933C26.0618 21.1933 24.7558 21.1933 23.442 21.1933C18.3177 21.1933 13.201 21.1933 8.07666 21.1933C7.88459 21.1933 7.68484 21.1933 7.50045 21.1549C6.82438 21.0012 6.3711 20.3712 6.44792 19.7028C6.52475 19.0114 7.09327 18.512 7.83849 18.512C11.1113 18.512 14.3918 18.512 17.6647 18.512H17.6723Z" fill="#E95B02"/>
<path d="M17.6208 25.6666C20.8629 25.6666 24.1127 25.6666 27.3548 25.6666C28.3996 25.6666 29.0757 26.6039 28.6839 27.5104C28.4457 28.0712 27.9848 28.3401 27.3778 28.3401C26.3022 28.3401 25.2344 28.3401 24.1588 28.3401C18.7963 28.3401 13.4414 28.3401 8.07891 28.3401C7.88685 28.3401 7.6871 28.3401 7.50271 28.3094C6.82663 28.1634 6.37336 27.5258 6.4425 26.8574C6.51933 26.1659 7.08785 25.6666 7.82538 25.6666C11.0137 25.6666 14.1943 25.6666 17.3826 25.6666C17.4595 25.6666 17.5286 25.6666 17.6054 25.6666H17.6208Z" fill="#E95B02"/>
<path d="M11.0129 35.4909C9.98339 35.4909 8.95391 35.4909 7.93211 35.4909C7.06396 35.4909 6.45703 34.9301 6.45703 34.1541C6.45703 33.3705 7.06396 32.8173 7.92443 32.8096C10.0064 32.8096 12.0961 32.8096 14.1781 32.8096C15.0309 32.8096 15.6532 33.4012 15.6378 34.1695C15.6225 34.9301 15.0156 35.4832 14.1858 35.4909C13.1256 35.4909 12.0731 35.4909 11.0129 35.4909Z" fill="#E95B02"/>
</svg>
