<svg width="5321" height="2986" viewBox="0 0 5321 2986" fill="none" xmlns="http://www.w3.org/2000/svg">
<mask id="mask0_112_4148" style="mask-type:luminance" maskUnits="userSpaceOnUse" x="0" y="0" width="5321" height="2986">
<path d="M5320.21 0.7229H0V2985.72H5320.21V0.7229Z" fill="white"/>
</mask>
<g mask="url(#mask0_112_4148)">
<path d="M2001.64 1759.98C2108.32 1759.89 2196.96 1777.32 2277.69 1826.18C2309.98 1845.71 2339 1869.37 2364.73 1896.9C2383.13 1916.57 2401.41 1936.46 2418.57 1957.23C2435.55 1977.79 2446.18 2001.33 2437.44 2028.56C2422.66 2074.7 2369.71 2091.06 2330.84 2061.9C2324.14 2056.89 2318.2 2050.75 2312.47 2044.63C2303.26 2034.78 2294.1 2024.85 2285.63 2014.39C2221.78 1935.49 2137.15 1901.21 2037.74 1898.36C1955.36 1895.98 1874.99 1910.76 1794.98 1927.77C1737.65 1939.97 1680.96 1954.72 1627.57 1979.67C1548.8 2016.47 1490.37 2073.27 1457.06 2154.41C1448.04 2176.38 1442.48 2199.29 1441.96 2223.16C1440.6 2285.77 1469.71 2329.95 1524.4 2358.36C1532.62 2362.63 1541.44 2365.67 1549.77 2369.68C1587.15 2387.75 1603.33 2424.9 1589.06 2459.51C1574.62 2494.48 1537.68 2509.59 1498.37 2496.61C1365.46 2452.71 1284.7 2321.68 1307.5 2183.49C1327.78 2060.57 1395.51 1967.58 1495.66 1896.76C1551.35 1857.36 1614.04 1832.68 1679.39 1814.67C1789.33 1784.35 1900.83 1763.02 2001.67 1760L2001.64 1759.98Z" fill="#436222"/>
<path d="M963.635 649.102C962.612 725.101 956.47 797.974 934.143 868.605C928.555 886.311 922.136 903.741 910.682 918.708C878.673 960.594 816.812 956.002 794.375 909.938C785.632 891.983 785.826 873.253 791.995 854.578C849.485 680.974 838.142 514.009 744.714 354.542C699.895 278.046 660.333 199.114 637.176 112.852C617.256 38.596 605.941 -37.1259 595.871 -113.152C590.448 -154.07 584.168 -194.878 579.548 -235.879C576.2 -265.813 581.595 -293.701 609.925 -310.881C650.124 -335.283 697.516 -316.332 711.764 -270.6C717.435 -252.423 719.289 -233.472 721.806 -214.714C731.545 -142.534 740.066 -70.1868 752.765 1.60654C770.416 101.315 809.176 192.53 860.219 279.318C901.414 349.369 934.697 422.794 950.383 503.303C959.928 552.299 963.386 601.766 963.607 649.102H963.635Z" fill="#462A22"/>
<path d="M2606.26 2073.76C2607.97 2009.88 2630.33 1952.86 2664.14 1899.66C2697.5 1847.12 2738.78 1800.92 2781 1755.58C2857.36 1673.55 2936.7 1594.34 3010.82 1510.23C3033.67 1484.31 3056.03 1458 3077.25 1430.69C3093.82 1409.36 3108.65 1387.01 3121.57 1363.19C3134.71 1338.95 3153.02 1319.53 3182.82 1318.29C3235.19 1316.1 3268.11 1364.65 3248.42 1414.92C3235.08 1448.95 3214.11 1478.64 3192.03 1507.44C3136.89 1579.48 3075 1645.63 3012.92 1711.61C2951.72 1776.66 2888.18 1839.49 2830.13 1907.46C2805.76 1936.01 2782.82 1965.7 2765.7 1999.34C2730.73 2068.09 2738.06 2129.15 2788.61 2187.61C2804.87 2206.42 2817.1 2226.81 2813.7 2252.65C2806.64 2306.18 2747.13 2330.39 2704.28 2296.86C2678.74 2276.89 2660.46 2250.38 2644.41 2222.47C2618.49 2177.32 2605.01 2124.36 2606.26 2073.73V2073.76Z" fill="#462A22"/>
<path d="M1265.62 -1.27364C1265.71 19.7249 1260.89 32.6173 1254.48 45.1224C1194.33 162.509 1157.48 287.062 1141.4 417.728C1127.96 527.175 1129.81 636.263 1154.57 744.16C1168.71 805.828 1190.73 864.286 1231.04 914.334C1241.31 927.088 1253.2 938.431 1260.67 953.454C1276.8 985.906 1268.25 1017.25 1244.49 1036.87C1218.04 1058.7 1181.41 1057.12 1155.26 1033.93C1123.03 1005.38 1098.91 970.413 1078.55 932.787C1037.91 857.674 1016.02 776.695 1005.32 692.563C974.855 453.611 1018.12 226.612 1117.83 8.99052C1124.86 -6.33646 1132.55 -21.3591 1143.31 -34.5005C1162.98 -58.487 1194 -67.5337 1221.64 -57.574C1248.75 -47.8079 1265.74 -23.4617 1265.62 -1.30124V-1.27364Z" fill="#E95B02"/>
<path d="M2814.53 2065.1C2813.7 2045.93 2821.7 2029.86 2832.02 2014.61C2863.97 1967.44 2904.17 1927.96 2947.25 1891.25C2982.82 1860.93 3019.07 1831.38 3055.17 1801.7C3153.5 1720.77 3223.99 1619.38 3275.48 1503.73C3307.87 1430.92 3334.71 1356.02 3361.07 1280.91C3366.44 1265.67 3373.28 1251.42 3385.34 1240.08C3406.94 1219.77 3437.18 1215.26 3463.72 1228.7C3487.51 1240.77 3502.39 1269.82 3498.82 1297.59C3498.19 1302.57 3497.33 1307.66 3495.7 1312.39C3457.96 1422.84 3418.45 1532.51 3363.92 1636.17C3300.65 1756.49 3212.4 1855.17 3106.05 1938.67C3074.59 1963.38 3043.63 1988.77 3014.28 2016C2988.61 2039.82 2964.37 2064.97 2944.53 2094.02C2937.81 2103.86 2929.32 2111.89 2919.69 2118.91C2896.23 2136.04 2871.47 2135.9 2847.12 2122.54C2825.05 2110.42 2815 2090.09 2814.5 2065.08L2814.53 2065.1Z" fill="#436222"/>
<path d="M1842.88 3344.52C1745.22 3337.25 1651.43 3315.83 1566.16 3265.4C1469.63 3208.32 1418.76 3121.78 1404.65 3012C1393.17 2922.5 1401.96 2833.81 1415.82 2745.36C1422.6 2702.09 1431.29 2659.18 1442.11 2616.71C1446.7 2598.65 1455.47 2583.04 1470.38 2571.53C1491.82 2554.96 1521.67 2552.91 1544.11 2566.03C1568.68 2580.39 1582.71 2609.02 1577.39 2638.32C1570.73 2675.17 1561.79 2711.61 1555.18 2748.48C1542.42 2819.5 1534.4 2890.99 1538.38 2963.34C1539.57 2985.25 1542.76 3006.86 1547.85 3028.24C1559.94 3078.79 1588.38 3117.38 1632.59 3144.39C1687.53 3177.94 1748.18 3194.32 1811.28 3203.15C1825.86 3205.2 1840.64 3206.16 1855.16 3208.54C1888.5 3214.02 1911.41 3234.02 1917.16 3261.86C1925.82 3303.77 1898.35 3340.68 1855.49 3344.49C1851.31 3344.85 1847.08 3344.55 1842.88 3344.55V3344.52Z" fill="#436222"/>
<path d="M-67.3638 621.02C-68.2491 479.896 11.0695 361.817 141.93 316.5C253.756 277.795 357.338 299.181 449.798 371.915C515.283 423.429 556.008 492.843 585.721 569.395C592.112 585.884 598.669 602.346 601.85 619.858C609.652 662.99 584.697 698.54 542.756 704.046C514.619 707.753 484.297 688.774 472.124 659.116C463.022 636.928 455.774 613.91 445.897 592.081C420.97 536.943 387.411 488.859 332.909 458.455C216.545 393.55 72.6541 475.718 70.2471 608.875C69.8598 629.458 72.3498 650.125 72.0455 670.708C71.4645 708.445 42.5812 738.711 6.94736 740.233C-28.5482 741.727 -58.8702 714.476 -64.0438 676.463C-66.5337 658.065 -67.1977 639.556 -67.3084 620.993L-67.3638 621.02Z" fill="#E95B02"/>
<path d="M2573.17 977.388C2572.94 1027.13 2544.12 1056.71 2501.62 1054.44C2472.49 1052.89 2446.81 1029.73 2438.71 997.307C2433.31 975.672 2429 953.733 2422.94 932.292C2412.92 896.88 2398.84 863.099 2378.54 832.196C2338.42 771.11 2280.02 743.195 2208.67 741.59C2122.54 739.626 2045.1 768.896 1971.98 811.64C1947.58 825.888 1925.17 843.097 1901.85 859.005C1880.66 873.446 1857.58 880.003 1832.46 870.818C1809.47 862.435 1793.98 846.112 1789.52 821.877C1784.49 794.487 1793.09 770.501 1815.03 753.182C1875.57 705.43 1940.94 666.034 2013.7 639.392C2078.8 615.544 2145.48 601.213 2215.14 604.118C2347.69 609.651 2446.93 669.769 2511.28 786.105C2541.74 841.16 2560.02 900.614 2571.73 962.199C2572.89 968.369 2572.92 974.759 2573.17 977.36V977.388Z" fill="#E95B02"/>
<path d="M1642.43 -63.4667C1687.69 -63.5497 1718.78 -20.3354 1705.73 24.7603C1700.66 42.2452 1691.56 58.0425 1684.37 74.6421C1625.13 211.257 1590.08 353.599 1583.19 502.525C1581.45 540.455 1582.94 578.302 1591.49 615.596C1600.62 655.435 1620.96 684.955 1662.35 696.464C1671.25 698.954 1679.39 703.685 1686.94 709.191C1715.55 729.995 1725.78 762.116 1712.97 791.22C1699.47 821.93 1666.55 838.778 1632.47 830.423C1559.73 812.551 1506.25 770.526 1475.52 701.361C1453.74 652.364 1446.41 600.38 1445.2 547.4C1442.57 434.439 1461.24 324.245 1489.77 215.435C1510.43 136.614 1537.71 60.1728 1573.07 -13.3359C1582.67 -33.3107 1595.48 -49.938 1616.53 -58.7911C1624.8 -62.2771 1633.49 -63.6328 1642.45 -63.5221L1642.43 -63.4667Z" fill="#462A22"/>
<path d="M1234.2 2661.22C1233.81 2600.47 1221 2541.82 1203.35 2484.02C1198.92 2469.55 1194.16 2455.17 1194.58 2439.65C1195.44 2406.14 1215.69 2380.5 1247.61 2373C1276.72 2366.17 1307.79 2381.05 1322.48 2409.52C1332.8 2429.49 1337.47 2451.49 1343.48 2472.93C1360.24 2532.72 1370.92 2593.44 1371.94 2655.77C1373.3 2736.84 1353.3 2813.28 1324.33 2888.03C1316.28 2908.81 1308.87 2929.83 1302.45 2951.25C1288.92 2996.26 1295.72 3038.56 1317.66 3079.29C1333.3 3108.28 1352.47 3134.95 1371.47 3161.73C1383.56 3178.77 1393.28 3196.51 1395.05 3218C1397.23 3244.48 1385.25 3264.04 1364.75 3278.04C1343.56 3292.51 1320.29 3291.98 1297.5 3280.5C1289.61 3276.52 1281.89 3271.73 1276.52 3264.54C1242.19 3218.69 1208.33 3172.52 1184.42 3120.01C1152.22 3049.27 1149.21 2976.92 1173.11 2903.39C1183.51 2871.38 1195.41 2839.84 1206.75 2808.16C1223.77 2760.63 1234.56 2711.96 1234.17 2661.22H1234.2Z" fill="#E95B02"/>
<path d="M1631.36 868.216C1787.39 876.599 1899.53 953.206 1969.91 1092.92C1980.31 1113.56 1990.21 1134.72 1994.2 1157.8C2003.08 1209.2 1957.9 1251.2 1909.37 1236.48C1887.19 1229.73 1871.89 1214.48 1862.9 1193.13C1855.2 1174.89 1848.59 1156.14 1838.85 1138.87C1801.17 1071.98 1746.92 1026.02 1670.26 1011.42C1563.05 990.97 1455.54 1050.98 1414.95 1152.35C1409.78 1165.24 1406.32 1178.82 1400.79 1191.52C1389.94 1216.39 1374.64 1237.45 1345.21 1241.21C1294.41 1247.66 1257.4 1206.24 1269.1 1155.47C1277.65 1118.34 1291.45 1082.82 1311.65 1050.48C1384.96 932.982 1492.39 874.69 1631.39 868.244L1631.36 868.216Z" fill="#436222"/>
<path d="M157.375 1111.7C56.8638 1110.46 -31.9443 1079.36 -103.489 1006.44C-141.502 967.703 -165.516 921.694 -171.16 867.109C-174.701 832.886 -158.433 802.869 -130.657 791.277C-96.4062 776.973 -61.0767 789.783 -43.7024 822.705C-39.3312 831.005 -36.2878 839.803 -35.1535 849.016C-31.1143 881.744 -13.242 906.118 11.7681 925.568C74.0721 974.066 144.842 984.635 219.9 967.039C304.309 947.258 367.913 896.657 416.578 826.246C428.308 809.287 438.074 791 449.749 774.013C465.602 750.967 487.375 737.604 516.148 740.15C562.101 744.217 590.016 790.972 571.314 834.408C555.931 870.125 533.937 902.356 509.563 932.539C432.596 1027.96 335.765 1090.51 212.789 1108.72C203.632 1110.07 194.392 1111.12 185.151 1111.62C175.911 1112.12 166.643 1111.73 157.375 1111.73V1111.7Z" fill="#462A22"/>
<path d="M1192.68 614.797C1193.01 522.227 1212.02 432.533 1235.73 343.587C1257.69 261.281 1286.02 181.077 1316.24 101.509C1322.35 85.4629 1331.01 71.2425 1344.68 60.5081C1366.64 43.2721 1397.82 41.8058 1421.75 56.8285C1444.88 71.3255 1457.11 101.288 1451.33 129.618C1448.29 144.557 1442.09 158.474 1436.78 172.666C1397.44 277.299 1362.99 383.371 1342.71 493.565C1331.84 552.576 1324.95 611.92 1333.53 671.955C1335.49 685.761 1338.92 699.179 1343.93 712.237C1353.22 736.528 1369.16 754.76 1392.59 766.241C1402.06 770.889 1411.52 775.482 1419.84 782.094C1450.03 806.052 1458.41 835.102 1441.87 869.325C1426.93 900.2 1390.44 912.899 1356.05 900.421C1309.29 883.435 1270.75 855.049 1242.42 813.688C1208.95 764.803 1196.36 709.443 1192.76 651.427C1192.01 639.254 1192.65 626.998 1192.65 614.797H1192.68Z" fill="#436222"/>
<path d="M1508.36 2258.46C1512.57 2224.21 1525.77 2187.11 1546.65 2152.94C1597.53 2069.75 1671.62 2014.48 1761.76 1981.05C1899.48 1929.98 2037.92 1930.43 2175.67 1982.13C2201.84 1991.96 2225.52 2006.65 2247.46 2024.02C2258.47 2032.73 2267.77 2042.86 2274.55 2055.31C2289.02 2081.87 2286.86 2108.71 2268.05 2132.14C2252.44 2151.59 2223 2159.8 2196.72 2152.11C2188.56 2149.73 2180.57 2146.58 2174.15 2141.1C2134.69 2107.41 2087.14 2094.15 2037.39 2086.99C1953.95 2075.01 1872.64 2082.48 1794.68 2116.2C1757.58 2132.25 1724.32 2154.16 1696.08 2183.35C1671.29 2208.97 1653.53 2238.51 1644.92 2273.46C1639.28 2296.5 1627.19 2315.48 1605.14 2326.16C1559.35 2348.38 1508.61 2315.73 1508.39 2258.46H1508.36Z" fill="#462A22"/>
<path d="M2045.14 1414.26C2035.04 1556.41 1978.99 1671.94 1847.52 1739.58C1735.72 1797.1 1606.36 1773.06 1521.89 1683.39C1485.9 1645.19 1464.32 1599.65 1455.91 1548.08C1448.85 1504.81 1473.06 1469.67 1513.32 1462.98C1542.31 1458.17 1573.1 1476.12 1585.14 1505.23C1588.01 1512.2 1590.34 1519.53 1591.69 1526.94C1606.55 1608.5 1693.89 1654.82 1775.89 1620.92C1841.66 1593.73 1877.79 1540.61 1897.38 1474.68C1906.84 1442.84 1910.18 1410.39 1902.6 1377.44C1900.14 1366.7 1900.39 1355.86 1901.52 1344.82C1905.12 1309.27 1935.66 1290.43 1957.19 1287.49C1988.81 1283.18 2019.11 1301.11 2031.03 1330.82C2041.71 1357.41 2044.5 1385.4 2045.14 1414.29V1414.26Z" fill="#E95B02"/>
<path d="M3032.31 1340.36C3032.89 1358.98 3025.56 1374.84 3014.8 1389.36C2987.93 1425.63 2958.11 1459.44 2926.68 1491.75C2866.48 1553.64 2805.2 1614.51 2745.22 1676.62C2689.83 1733.97 2637.85 1794.14 2597.9 1863.78C2585.7 1885.05 2577.12 1907.96 2566.5 1929.93C2554.16 1955.44 2534.6 1972.45 2505.16 1974.19C2457.63 1977.02 2423.49 1931.14 2438.35 1883.73C2451.24 1842.48 2471.82 1804.71 2494.7 1768.22C2533.1 1706.91 2579.28 1651.69 2628.83 1599.29C2666.73 1559.2 2705.6 1520.03 2744.47 1480.88C2801.13 1423.78 2858.1 1367.03 2908.06 1303.68C2931.77 1273.61 2964.06 1266.47 2995.96 1281.49C3018.34 1292.03 3032.42 1314.86 3032.34 1340.42L3032.31 1340.36Z" fill="#E95B02"/>
<path d="M1507.34 1786.62C1508.19 1845.44 1458.51 1881.21 1411.64 1859.55C1387.6 1848.42 1375.4 1827.98 1370.86 1802.31C1352.85 1700.36 1315.28 1605.24 1264.84 1515.63C1210.12 1418.36 1125.99 1357.16 1018.12 1328.52C992.859 1321.8 970.145 1310.73 960.877 1283.9C944.112 1235.23 979.331 1189.7 1031.23 1192.38C1052.01 1193.46 1072.09 1198.47 1091.54 1205.58C1210.84 1249.26 1308.81 1320.86 1374.79 1430.69C1436.62 1533.61 1479.17 1644.75 1504.04 1762.38C1506.04 1771.82 1506.67 1781.56 1507.34 1786.65V1786.62Z" fill="#436222"/>
<path d="M1829.73 1319.83C1829.46 1382.83 1810.67 1440.71 1777.89 1494.19C1760.6 1522.41 1731.19 1536.43 1704.6 1531.15C1659.5 1522.18 1636.35 1478.28 1654.58 1435.4C1660.17 1422.25 1667.69 1409.94 1673.67 1396.91C1690.07 1361.14 1697.07 1324.07 1687.83 1285C1684.21 1269.62 1677.65 1255.57 1667.31 1243.48C1644.48 1216.83 1609.93 1214.68 1585.03 1239.44C1559.85 1264.48 1553.13 1295.9 1557.08 1330.27C1558.85 1345.7 1561.93 1361.03 1558.61 1376.72C1551.88 1408.45 1528.31 1430.03 1496.86 1432.74C1468.44 1435.2 1438.2 1417.11 1429.07 1387.84C1393.88 1274.91 1443.65 1142.08 1554.37 1097.79C1643.68 1062.07 1742.53 1097.93 1794.07 1184.35C1818.89 1225.96 1829.68 1271.34 1829.68 1319.81L1829.73 1319.83Z" fill="#BA3A2B"/>
<path d="M-13.081 -51.3756C81.4262 -49.9923 154.935 -11.5365 203.212 71.4063C207.445 78.6825 212.259 85.7649 215.413 93.5114C223.27 112.684 238.071 120.431 257.742 121.98C296.364 125.023 334.986 127.956 373.497 131.94C425.011 137.251 474.92 148.567 519.739 176.233C539.272 188.295 556.646 202.875 570.036 221.688C598.477 261.61 587.134 312.294 545.607 329.42C519.435 340.209 492.599 337.083 474.007 316.887C440.31 280.312 396.902 273.092 351.751 268.112C309.09 263.409 265.986 263.409 223.519 256.049C167.606 246.339 125.388 217.898 98.8005 167.186C93.5163 157.116 87.7894 147.294 82.0349 137.473C57.7165 95.9184 19.6756 83.5517 -25.6967 87.2866C-42.0473 88.6422 -58.315 91.1598 -74.6379 86.6779C-105.32 78.2398 -124.879 54.1703 -126.346 22.6311C-127.618 -4.59233 -107.284 -32.9777 -79.3135 -42.7438C-74.1676 -44.5421 -68.8003 -45.8977 -63.433 -46.866C-46.8057 -49.854 -30.0126 -50.9329 -13.081 -51.4309V-51.3756Z" fill="#462A22"/>
<path d="M2877.42 2762.43C2876.64 2861.28 2848.98 2950.06 2779.7 3023.23C2751.65 3052.86 2718.95 3076.52 2683.59 3096.55C2657.58 3111.29 2631.47 3125.93 2604.88 3139.62C2581.61 3151.6 2556.82 3157.52 2532.34 3143.83C2487.88 3118.96 2483.84 3061.41 2523.73 3029.54C2538.29 3017.92 2555.11 3009.87 2571.27 3000.82C2591.49 2989.51 2612.04 2978.77 2631.77 2966.71C2701.9 2923.8 2735.57 2859.7 2739 2778.72C2741.38 2722.45 2731.51 2668 2712.67 2615.05C2707.3 2600 2701.24 2585.2 2701.63 2568.65C2702.37 2536.84 2720.91 2512.08 2751.26 2503.06C2777.65 2495.23 2808.58 2507.12 2825.43 2531.5C2832.93 2542.37 2837.41 2554.68 2841.87 2566.94C2864.83 2630.07 2876.62 2695.25 2877.39 2762.43H2877.42Z" fill="#462A22"/>
<path d="M1343.13 1913.63C1343.52 1951.59 1341.14 1989.35 1333.59 2026.62C1328.22 2053.1 1315.91 2075.01 1290.29 2086.63C1266.91 2097.22 1243.98 2094.9 1223.5 2079.43C1202.34 2063.44 1192.38 2040.84 1196.67 2015.08C1204.3 1969.13 1207.65 1923.09 1204.61 1876.73C1198.22 1778.84 1172.07 1687.79 1108.83 1610.33C1087.39 1584.07 1062.49 1561.69 1033.13 1544.21C1010.81 1530.9 992.076 1513.25 989.835 1485.53C985.464 1431.33 1036.81 1395.31 1086.56 1417.75C1129.41 1437.08 1164.91 1466.85 1196.44 1501.27C1282.21 1594.86 1324.76 1707.27 1338.87 1831.8C1340.75 1848.51 1342.02 1865.33 1342.99 1882.12C1343.6 1892.61 1343.1 1903.17 1343.1 1913.69L1343.13 1913.63Z" fill="#E95B02"/>
<path d="M1675.88 438.563C1676.16 320.871 1701.53 217.124 1740.26 116.143C1751.25 87.4529 1761.87 58.7632 1769.53 28.8286C1781.24 -16.7927 1820.94 -38.4552 1861 -23.0453C1888.61 -12.4492 1906.92 19.1732 1903.85 50.2145C1900.84 80.7578 1890.63 109.254 1879.53 137.501C1851.15 209.792 1826.69 283.135 1817.95 360.821C1809.45 436.156 1812.58 510.439 1838.31 582.675C1843.82 598.113 1849.82 613.606 1848.63 630.454C1846.22 664.345 1824.06 690.241 1793.35 695.414C1761.81 700.726 1731.02 684.126 1717.91 652.836C1695.11 598.445 1681.94 541.619 1677.96 482.745C1676.77 465.122 1676.27 447.443 1675.86 438.535L1675.88 438.563Z" fill="#E95B02"/>
<path d="M836.212 1073.83C835.825 1127.95 814.273 1173.12 779.248 1212.38C763.838 1229.65 747.376 1246.05 730.417 1261.79C715.505 1275.63 711.217 1290.98 716.058 1310.65C726.461 1352.84 741.428 1393.59 754.238 1435.04C766.798 1475.68 778.998 1516.43 788.654 1557.88C794.27 1581.97 792.278 1605.1 776.315 1625.02C744.112 1665.14 684.104 1656.98 661.722 1609.69C659.398 1604.77 657.434 1599.57 656.134 1594.28C638.372 1521.36 613.86 1450.45 591.644 1378.88C585.281 1358.35 580.329 1337.49 577.341 1316.13C569.954 1263.51 584.368 1217.67 620.03 1178.63C633.946 1163.41 648.996 1149.22 663.548 1134.61C671.599 1126.53 679.096 1118.04 685.653 1108.69C696.415 1093.39 700.538 1076.79 695.973 1058.39C693.732 1049.32 693.317 1040.08 693.566 1030.78C694.479 997.168 713.624 972.573 744.527 965.269C774.129 958.27 806.139 973.375 820.719 1001.95C832.256 1024.56 835.852 1049.1 836.212 1073.83Z" fill="#462A22"/>
<path d="M1150.75 1899.02C1150.69 1944.09 1146.21 1978.79 1140.32 2013.26C1135.04 2044.08 1139.77 2072.49 1155.43 2099.63C1174.02 2131.83 1196.7 2161.16 1218.01 2191.48C1231.31 2210.43 1244.79 2229.36 1256.68 2249.19C1274.97 2279.68 1273.64 2312.05 1254.77 2334.32C1226.67 2367.49 1175.93 2369.65 1150.39 2333.93C1107.59 2274.06 1060.89 2216.66 1026.72 2150.87C998.227 2095.95 994.852 2038.21 1006.11 1978.62C1018.95 1910.73 1012.86 1844.41 989.069 1779.67C982.263 1761.16 978.529 1742.38 983.591 1722.76C990.453 1696.18 1013.03 1676.56 1041.11 1672.83C1065.9 1669.53 1094.62 1684.22 1107.78 1707.93C1119.74 1729.46 1125.88 1753.25 1132.55 1776.74C1144.83 1819.95 1150.31 1864.16 1150.78 1899.05L1150.75 1899.02Z" fill="#462A22"/>
<path d="M2499.77 2515.89C2498.83 2617.65 2480.88 2716 2440.96 2809.96C2435.48 2822.85 2428.67 2834.72 2418.8 2844.93C2393.9 2870.6 2365.29 2872.87 2336.93 2858.34C2309.29 2844.18 2296.84 2810.43 2305.86 2778.86C2308.85 2768.37 2313.58 2758.39 2317.48 2748.18C2369.33 2612.64 2379.04 2475.64 2332.17 2336.59C2323.26 2310.17 2310.43 2285.49 2298.56 2260.34C2285.03 2231.65 2285.75 2203.54 2307.08 2178.78C2336.85 2144.28 2390.49 2149.87 2415.92 2190.6C2438.08 2226.09 2453.77 2264.82 2466.69 2304.61C2488.98 2373.25 2500.33 2443.63 2499.77 2515.89Z" fill="#E95B02"/>
<path d="M333.336 1430.83C334.443 1462.65 319.393 1484.48 288.794 1496.51C261.488 1507.25 229.782 1495.71 211.523 1471.06C204.938 1462.18 200.65 1452.11 196.417 1441.98C183.719 1411.69 171.711 1381.09 155.859 1352.23C141.721 1326.5 124.568 1303.26 100.001 1286.33C58.5849 1257.78 24.1408 1261.38 -10.2481 1297.9C-30.3613 1319.26 -44.8859 1344.46 -59.1063 1369.83C-66.1335 1382.39 -73.9076 1394.26 -85.721 1403.11C-111.257 1422.26 -142.021 1422.95 -167.917 1404.63C-190.243 1388.84 -202.748 1355.8 -190.963 1328.97C-159.479 1257.34 -117.814 1192.63 -46.8779 1153.62C14.8727 1119.64 78.5599 1122.36 141.473 1151.65C196.805 1177.41 237.197 1219.55 268.266 1271.2C293.082 1312.53 310.844 1357.19 328.523 1401.81C332.285 1411.3 333.475 1421.37 333.309 1430.8L333.336 1430.83Z" fill="#436222"/>
<path d="M2559.05 1434.43C2458.21 1431.17 2377.98 1391.41 2325.75 1302.13C2315.68 1284.92 2310.03 1266.47 2313.66 1246.55C2318.42 1220.43 2333.52 1201.98 2358.86 1193.6C2384.34 1185.19 2406.97 1192.55 2426.87 1209.45C2433.34 1214.96 2438.43 1221.82 2442.44 1229.2C2476.55 1292.17 2540.74 1303.76 2591.4 1292.86C2672.62 1275.38 2731.28 1225.88 2776.62 1158.57C2784.15 1147.4 2790.73 1135.69 2800.83 1126.43C2824.37 1104.82 2855.33 1100.56 2881.31 1115.69C2906.93 1130.6 2919.85 1162.03 2912.18 1192.13C2910.25 1199.8 2907.51 1207.63 2903.47 1214.38C2836.66 1326.37 2742.76 1401.98 2613.22 1429.29C2595.46 1433.02 2577.37 1434.27 2559.03 1434.43H2559.05Z" fill="#436222"/>
<path d="M1969.36 2969.76C1926.89 2970.23 1891.92 2966.02 1857.98 2954.73C1837.84 2948.04 1820.08 2937.55 1809.26 2918.74C1795.48 2894.81 1795.45 2870.21 1810.92 2847.03C1826.44 2823.76 1849.71 2815.85 1876.74 2817.79C1882.55 2818.2 1888.33 2819.97 1893.97 2821.58C2005.88 2853.45 2102.24 2805.92 2144.93 2697.49C2158.62 2662.69 2166.26 2626.75 2166.12 2589.04C2166.01 2562.93 2172.29 2538.03 2195.59 2522.53C2238.99 2493.65 2292.69 2517.64 2301.71 2569.35C2306.56 2597.09 2303.79 2624.84 2299.33 2652.34C2287.91 2723 2262.93 2788.21 2218.22 2844.68C2153.06 2926.96 2066.19 2965.8 1969.33 2969.73L1969.36 2969.76Z" fill="#462A22"/>
<path d="M2121.77 2558.22C2116.79 2648.19 2078.89 2724.14 2009.53 2784.06C1981.09 2808.63 1946.87 2810.4 1921 2791.95C1892.34 2771.53 1884.01 2737.58 1899.69 2705.88C1905.62 2693.9 1914.94 2684.85 1924.46 2675.86C1955.39 2646.59 1975.75 2611.51 1982.28 2569.04C1984.49 2554.68 1983.88 2540.38 1977.85 2526.88C1972.07 2513.99 1962.86 2510.42 1950.05 2516.45C1931.43 2525.22 1920.39 2540.77 1913.33 2559.55C1908.91 2571.36 1905.62 2583.73 1900.03 2594.99C1878.89 2637.62 1826.41 2648.75 1792.85 2617.65C1774.15 2600.33 1766.93 2577.78 1772.02 2553.19C1783.08 2499.85 1806.27 2452.82 1849.73 2417.96C1900.69 2377.07 1957.41 2361.49 2019.63 2387.11C2081.76 2412.7 2110.73 2464.02 2119.58 2528.4C2120.83 2537.56 2120.94 2546.85 2121.74 2558.2L2121.77 2558.22Z" fill="#436222"/>
<path d="M2190.19 384.862C2286.85 386.605 2375.11 408.157 2452.4 465.121C2472.16 479.674 2489.98 496.439 2504.14 516.58C2528.54 551.329 2522.68 593.132 2490.5 616.261C2465.13 634.493 2424.82 634.659 2405.04 608.597C2323.87 501.557 2110.54 501.723 1998.52 574.596C1988.22 581.291 1977.43 586.796 1965.4 589.812C1933.97 597.697 1905.03 586.769 1889.68 560.956C1873.74 534.203 1878.03 500.257 1900.52 477.156C1913.61 463.71 1929.71 454.331 1945.92 445.423C2022.67 403.288 2105.78 386.826 2190.19 384.862Z" fill="#462A22"/>
<path d="M793.187 658.866C791.278 756.223 766.019 846.607 712.374 928.526C698.652 949.47 681.139 965.378 655.299 968.31C601.821 974.397 564.25 922.357 586.328 872.641C591.584 860.8 599.552 850.176 605.888 838.778C655.631 749.14 670.266 655.297 638.506 556.363C627.854 523.164 611.338 492.952 587.628 467.029C579.909 458.591 573.573 449.212 568.926 438.699C556.531 410.646 561.539 382.288 582.593 361.815C602.097 342.864 632.807 338.382 659.062 350.528C674.804 357.804 686.368 370.06 697.296 382.952C743.886 437.952 771.303 501.944 785.136 572.16C790.78 600.739 793.408 629.65 793.214 658.866H793.187Z" fill="#436222"/>
<path d="M1995.26 2146.47C2100.22 2149.6 2188.81 2186.34 2252.47 2273.24C2276.92 2306.66 2293.19 2344.2 2300.47 2384.87C2305.56 2413.37 2301.8 2440.59 2275.79 2459.57C2236.03 2488.53 2188.09 2469.14 2171.57 2428.53C2168.72 2421.53 2166.73 2414.17 2164.63 2406.89C2143.77 2334.77 2088.13 2290.17 2012.96 2285.3C1961.42 2281.95 1913.48 2293.32 1869.32 2320.27C1859.61 2326.19 1849.79 2332.05 1838.86 2335.46C1803.97 2346.28 1770.14 2332.19 1754.59 2300.6C1740.34 2271.66 1750.36 2234.73 1779.3 2214.72C1826.33 2182.16 1878.01 2160.53 1934.78 2151.76C1954.75 2148.66 1974.84 2146.39 1995.23 2146.47H1995.26Z" fill="#E95B02"/>
<path d="M172.39 900.86C144.364 900.86 116.975 896.876 90.443 887.663C73.705 881.853 59.706 872.253 49.1099 857.811C32.372 834.987 31.0716 807.542 45.7623 783.002C59.4846 760.095 88.2572 747.728 116.947 752.736C132.274 755.419 146.771 761.699 162.541 762.64C193.582 764.466 222.05 757.826 246.175 737.298C266.122 720.339 271.96 692.839 260.257 673.583C257.214 668.603 254.862 664.536 247.807 670.069C219.726 692.119 190.4 694.167 165.363 676.709C139.024 658.339 128.345 626.413 137.669 593.905C148.431 556.362 188.768 526.621 233.532 523.218C305.934 517.74 372.498 565.796 395.71 640.301C421.771 723.963 387.41 812.079 309.032 862.044C267.395 888.604 221.58 900.749 172.39 900.804V900.86Z" fill="#436222"/>
<path d="M2393.56 1091.62C2393.7 1110.18 2393.37 1128.67 2385.7 1146.18C2371.98 1177.5 2343.65 1194.35 2313.27 1188.98C2280.35 1183.17 2257.11 1156.11 2255.84 1121.67C2255.2 1104.43 2257.19 1087.14 2254.34 1069.99C2253.79 1066.67 2253.51 1063.29 2252.88 1060C2235.97 971.357 2159.12 934.339 2071.03 972.27C2056.2 978.66 2043.58 988.62 2029.64 996.422C2003.74 1010.86 1977.43 1012.75 1952.06 995.675C1913.66 969.807 1913.55 915.056 1951.79 884.292C1979.62 861.882 2010.88 845.531 2045.1 835.184C2112.64 814.822 2179.78 813.992 2245.08 843.042C2326.39 879.229 2369.68 945.295 2387.53 1030.17C2391.79 1050.4 2393.86 1070.93 2393.59 1091.65L2393.56 1091.62Z" fill="#462A22"/>
<path d="M1989.17 3162.5C1906.25 3159.77 1824.61 3148.95 1747.31 3116.88C1679.53 3088.77 1627.1 3044.4 1603.09 2972.3C1590.44 2934.4 1588.06 2895.47 1594.37 2856.24C1602.98 2802.74 1660.85 2777.75 1702.79 2809.35C1721.52 2823.46 1729.24 2843.57 1730.24 2866.56C1730.85 2880.45 1728.3 2894.2 1729.74 2908.17C1732.54 2935.62 1745.29 2956.67 1767.84 2972.11C1802.42 2995.76 1842.12 3005.44 1882.32 3013.33C1924.95 3021.68 1968.03 3026.55 2011.57 3026.03C2021.78 3025.92 2031.69 3027.36 2041.45 3030.23C2077.53 3040.8 2093.08 3068.61 2091.45 3100.2C2089.76 3132.18 2061.79 3159.16 2028.31 3162.28C2015.37 3163.5 2002.22 3162.48 1989.17 3162.48V3162.5Z" fill="#E95B02"/>
<path d="M770.564 -263.436C770.232 -321.922 822.908 -357.556 869.775 -332.325C891.548 -320.594 903.887 -301.283 906.958 -276.744C914.151 -219.503 920.404 -162.151 929.284 -105.104C937.058 -55.1388 945.496 -5.33984 958.887 43.4907C966.799 72.4017 977.257 100.206 991.754 126.682C1005.2 151.222 1011.29 177.367 994.631 203.373C970.092 241.69 920.514 246.891 888.117 214.826C875.031 201.879 866.538 185.805 858.542 169.537C836.603 124.967 823.821 77.4093 813.474 29.132C793.333 -64.8772 781.548 -160.187 771.035 -255.662C770.675 -259.01 770.647 -262.385 770.592 -263.464L770.564 -263.436Z" fill="#436321"/>
<path d="M341.842 1696.98C300.343 1693.58 258.816 1690.28 217.788 1682.37C152.44 1669.78 102.42 1635.51 67.5333 1578.9C43.0212 1539.12 17.7069 1500.44 -15.7137 1466.69C-52.4542 1429.59 -35.1076 1368.5 13.4463 1354.97C35.7728 1348.75 56.9927 1353.17 75.5842 1367.34C112.74 1395.7 139.161 1433.13 163.479 1472.3C168.819 1480.88 174.573 1489.26 179.277 1498.17C196.319 1530.54 223.902 1546.2 259.342 1550.02C289.055 1553.23 318.713 1556.74 348.427 1559.98C362.841 1561.55 376.397 1565.62 389.123 1572.65C417.011 1588.09 426.196 1618.32 420.912 1643.61C414.742 1673.19 389.455 1694.6 359.521 1696.87C353.655 1697.31 347.735 1696.92 341.842 1696.92V1696.98Z" fill="#E95B02"/>
<path d="M57.4771 1658.75C57.6707 1691.31 41.4309 1716.1 17.8041 1725.81C-10.1663 1737.32 -35.0935 1730.73 -56.9773 1711.23C-62.8702 1706 -68.0714 1699.5 -72.0276 1692.67C-97.5081 1648.79 -135.3 1619.1 -179.925 1596.72C-217.164 1578.05 -254.734 1559.92 -289.981 1537.43C-321.105 1517.57 -349.407 1494.63 -372.066 1465.22C-383.077 1450.92 -391.072 1435.26 -391.958 1416.95C-393.396 1386.98 -378.789 1363.47 -351.87 1351.38C-326.583 1340.01 -294.518 1343.88 -275.594 1367.59C-238.273 1414.35 -186.648 1438.61 -135.715 1464.59C-90.5638 1487.63 -46.5471 1512.2 -10.3876 1548.64C11.1089 1570.33 29.0641 1594.65 44.8614 1620.62C53.3825 1634.59 57.3389 1649.98 57.4496 1658.75H57.4771Z" fill="#462A22"/>
<path d="M2433.31 1459.71C2458.95 1460.21 2489.39 1466.11 2517.3 1481.35C2552.99 1500.83 2565.58 1540.94 2547.54 1575.25C2534.59 1599.93 2504.63 1614.4 2475.86 1609.17C2466.4 1607.45 2457.24 1603.99 2447.97 1601.25C2414.38 1591.29 2379.69 1604.57 2361.46 1634.4C2352.63 1648.81 2357.36 1661.73 2373.85 1666.49C2397.42 1673.27 2417.56 1683.56 2426.58 1708.79C2441.5 1750.54 2417.81 1792.92 2373.88 1800.06C2331.86 1806.9 2296.86 1790.68 2267.17 1762.41C2210.73 1708.65 2202.77 1619.32 2247.92 1555.88C2293.04 1492.47 2354.02 1459.8 2433.28 1459.71H2433.31Z" fill="#436321"/>
<path d="M1604.5 2593.47C1605.3 2525.86 1618.25 2461.67 1639.64 2399.2C1654.55 2355.63 1694.66 2336.7 1733.81 2352.97C1763.58 2365.34 1779.96 2399.2 1771.82 2433.92C1764.91 2463.39 1754.73 2492.08 1749.61 2522.01C1743.38 2558.25 1739.51 2594.55 1745.76 2631.24C1749.06 2650.46 1756.72 2664.74 1776.83 2673.15C1829.12 2695.03 1829.95 2749.18 1806.79 2777.15C1789.14 2798.48 1765.93 2806.72 1739.12 2802.13C1687.86 2793.36 1652.67 2762.87 1629.9 2717.25C1610.25 2677.91 1604.69 2635.55 1604.5 2593.44V2593.47Z" fill="#462A22"/>
<path d="M2301.76 25.2317C2340.99 26.4213 2382.27 45.0405 2415.28 80.7851C2444.32 112.297 2444.27 154.515 2416.49 181.877C2391.68 206.306 2353.72 206.942 2324.5 183.371C2317.95 178.087 2311.94 171.972 2304.86 167.573C2292.6 159.993 2283.78 163.092 2279.32 176.786C2271.66 200.33 2276.39 222.574 2288.73 243.434C2294.07 252.481 2300.68 260.836 2305.69 270.076C2322.9 301.892 2315.04 340.071 2287.76 359.631C2258.85 380.353 2220.37 377.42 2196.3 349.256C2140.41 283.854 2121.68 209.349 2150.73 126.766C2172.95 63.6598 2228.75 25.121 2301.79 25.2317H2301.76Z" fill="#436321"/>
<path d="M771.179 1304.98C770.681 1264.42 795.608 1234.32 830.633 1229.84C865.188 1225.41 897.751 1247.9 905.857 1284.76C915.706 1329.52 923.149 1374.84 931.863 1419.85C938.974 1456.62 946.278 1493.36 957.289 1529.24C962.49 1546.26 969.628 1561.83 982.216 1575.3C1008.19 1603.08 1010.1 1639.66 988.496 1665.72C966.114 1692.72 927.99 1698.11 895.759 1678.78C870.141 1663.39 854.094 1640.02 841.977 1613.57C824.353 1575.03 814.366 1534.08 806.011 1492.83C794.585 1436.34 784.154 1379.62 773.448 1322.99C772.12 1315.99 771.65 1308.83 771.179 1305.01V1304.98Z" fill="#436321"/>
<path d="M2683.67 2650.46C2678.97 2760.49 2638.38 2864.98 2558.09 2953.4C2537.81 2975.76 2513.22 2987.46 2482.37 2979.41C2439.24 2968.18 2419.9 2918.24 2443.14 2878.9C2450.06 2867.2 2459.69 2857.68 2468.07 2847.14C2521.55 2779.99 2549.3 2704.33 2544.43 2617.76C2543.85 2607.25 2544.4 2596.84 2546.56 2586.39C2553.47 2553.02 2578.54 2535.26 2607.39 2533.21C2639.4 2530.94 2666.32 2550.48 2676.39 2581.55C2682.7 2601.02 2682.98 2621.3 2683.64 2650.46H2683.67Z" fill="#E95B02"/>
<path d="M2781.82 2433.73C2781.82 2468.81 2756.78 2496.36 2722.22 2500.48C2709.47 2502.01 2697.02 2500.35 2684.77 2496.8C2596.98 2471.46 2535.56 2416.27 2499.73 2332.52C2481.45 2289.78 2469.61 2244.91 2459.9 2199.62C2450.71 2156.79 2474.45 2120.46 2514.4 2112.94C2545.8 2107.05 2578.22 2126.05 2589.9 2158.73C2596.12 2176.13 2600.08 2194.3 2604.98 2212.18C2611.31 2235.33 2617.95 2258.35 2627.47 2280.48C2645.34 2322.07 2675.52 2349.93 2718.93 2363.12C2731.11 2366.83 2742.59 2371.81 2753.04 2379.2C2772.36 2392.81 2782.81 2410.85 2781.82 2433.7V2433.73Z" fill="#436321"/>
<path d="M374.851 10.7898C374.795 42.9654 358.223 67.0901 329.451 76.8286C302.089 86.0967 270.605 75.1963 252.428 50.2692C246.674 42.3567 242.635 33.5589 239.204 24.5121C225.731 -11.1217 201.689 -37.9024 170.177 -58.5413C140.298 -78.1012 107.652 -91.3533 73.3186 -100.704C63.5801 -103.36 53.6479 -105.684 44.3244 -109.447C10.0739 -123.224 -7.60464 -157.281 1.35916 -191.006C10.323 -224.704 42.5261 -245.287 79.239 -240.224C103.115 -236.932 126.078 -229.739 148.653 -221.577C217.542 -196.65 278.85 -160.408 324.886 -101.811C344.031 -77.4372 358.389 -50.3798 369.152 -21.3581C372.997 -10.9834 374.961 -0.276627 374.878 10.7898H374.851Z" fill="#436321"/>
<path d="M2756.18 1019C2753.06 1098.51 2712.72 1158.07 2639.35 1196.25C2611.85 1210.56 2582.52 1219.77 2552.15 1225.22C2507.05 1233.33 2470.48 1207.24 2465.58 1164.19C2462.48 1137.05 2480.77 1107.53 2508.38 1096.16C2517.29 1092.51 2526.8 1090.21 2536.13 1087.75C2549.19 1084.29 2562.08 1080.47 2574.25 1074.52C2610.05 1057.07 2622.06 1033.99 2615.97 994.734C2613.79 980.625 2609.64 966.847 2610.13 952.295C2611.44 913.783 2629.83 891.236 2665 883.489C2698.58 876.075 2730.9 897.184 2742.54 931.683C2751.62 958.575 2755.41 986.545 2756.18 1019Z" fill="#BA3A2B"/>
<path d="M560.942 30.9857C562.74 55.7745 559.448 79.5119 543.291 99.0995C525.944 120.126 502.539 127.374 476.367 120.873C449.503 114.205 433.65 95.3647 426.485 68.9989C422.335 53.7549 424.188 38.0129 422.667 22.5199C415.584 -49.6055 390.381 -115.617 355.355 -178.308C344.372 -197.951 337.234 -218.147 342.629 -240.971C354.608 -291.628 414.671 -310.192 453.265 -275.25C463.114 -266.341 470.114 -255.386 476.449 -243.959C523.98 -158.222 555.934 -67.7267 560.969 30.9581L560.942 30.9857Z" fill="#E95B02"/>
<path d="M1115.19 -47.5023C1115.25 -22.2155 1110.65 5.50583 1083.21 22.3268C1041.38 47.9455 990.389 25.4531 980.457 -23.0455C976.418 -42.7714 975.145 -63.0782 972.987 -83.1638C965.905 -148.898 958.242 -214.55 945.128 -279.454C940.065 -304.547 942.472 -328.423 959.818 -348.536C976.169 -367.488 997.417 -375.566 1022.15 -370.835C1049.32 -365.634 1067.13 -348.481 1075.79 -322.641C1083.46 -299.844 1086.5 -275.858 1090.26 -252.176C1100.89 -185.611 1108.36 -118.659 1115.16 -47.4746L1115.19 -47.5023Z" fill="#BA3A2B"/>
<path d="M320.07 1223.09C321.481 1161.34 352.052 1114 399.721 1076.13C434.276 1048.65 473.368 1028.54 514.147 1012.6C561.927 993.902 597.146 1016.56 609.291 1053.33C619.583 1084.51 604.754 1117.4 574.1 1134.53C553.184 1146.2 531.439 1156.41 510.247 1167.67C496.441 1175 483.936 1184.19 472.87 1195.39C460.586 1207.82 455.994 1221.57 460.835 1239.02C467.226 1261.93 465.428 1284.29 450.543 1303.93C420.083 1344.13 361.293 1339.51 336.891 1294.88C324.912 1273.03 320.79 1249.01 320.07 1223.12V1223.09Z" fill="#E95B02"/>
<path d="M1935.66 233.777C1936.46 178.39 1939.78 123.417 1961.3 71.3223C1967.92 55.3037 1975.52 39.9214 1988.47 27.7206C2012.15 5.44948 2043.61 0.829245 2069.95 16.2116C2095.54 31.1512 2108.18 62.3585 2100.85 92.7911C2099.97 96.4707 2099.05 100.233 2097.39 103.609C2069.81 159.743 2072.52 219.64 2075.59 279.565C2076.34 294.283 2078.86 308.946 2078.88 323.637C2079.02 362.397 2052.74 391.944 2016.3 395.181C1981 398.307 1950.38 373.518 1943.24 335.837C1941.99 329.225 1941.22 322.502 1940.5 315.807C1937.54 288.584 1935.38 261.277 1935.66 233.86V233.777Z" fill="#462A22"/>
<path d="M-104.405 140.212C-43.9272 140.932 2.27493 162.899 38.6005 204.923C57.3027 226.558 75.3134 249.106 80.0443 278.792C84.9688 309.695 72.3531 336.503 46.4577 350.253C21.2539 363.643 -9.84277 359.161 -32.1139 339.048C-40.9947 331.025 -47.0535 320.927 -53.5826 311.106C-77.0988 275.693 -98.8997 269.883 -137.189 288.973C-150.359 295.557 -163.196 302.557 -178.301 304.3C-208.706 307.813 -235.515 293.731 -248.905 266.48C-261.05 241.774 -255.517 210.263 -234.657 189.624C-216.895 172.056 -194.292 162.567 -171.495 153.686C-158.907 148.789 -145.849 145.358 -132.514 143.366C-121.724 141.734 -110.796 140.904 -104.405 140.212Z" fill="#436321"/>
<path d="M2075.63 1742.35C2030.01 1742.55 1998.55 1700.91 2010.03 1656.97C2011.94 1649.7 2014.85 1642.59 2018.17 1635.84C2044.73 1582.05 2064.7 1525.89 2079.86 1467.96C2082.66 1457.34 2086.56 1447.18 2092.45 1437.8C2110.27 1409.53 2141.17 1397.58 2170.74 1407.62C2200.87 1417.83 2220.13 1448.21 2216.95 1480.8C2215.01 1500.61 2209.14 1519.53 2203.39 1538.43C2188.23 1588.39 2170.44 1637.39 2147.78 1684.5C2139.73 1701.24 2130.93 1717.45 2115.33 1728.8C2102.99 1737.76 2089.49 1742.68 2075.6 1742.32L2075.63 1742.35Z" fill="#BA3A2B"/>
<path d="M2204.85 1256.68C2204.49 1271.42 2204.52 1288.74 2200.4 1305.62C2188.78 1353.23 2145.15 1376.64 2104.2 1357.46C2078.25 1345.29 2062.43 1317.32 2065.55 1284.12C2069.4 1243.51 2063.28 1204.39 2051.42 1165.9C2047.07 1151.88 2041.07 1138.35 2035.98 1124.54C2028.2 1103.54 2026.9 1082.49 2037.61 1062.16C2049.51 1039.55 2068.46 1026.44 2094.16 1025.72C2122.27 1024.92 2143.85 1038.09 2157.51 1062.21C2174.83 1092.81 2184.79 1126.4 2192.84 1160.48C2200.12 1191.27 2204.69 1222.45 2204.88 1256.7L2204.85 1256.68Z" fill="#436321"/>
<path d="M610.377 1549.46C610.764 1601.25 590.097 1631.11 557.534 1638.66C517.695 1647.9 479.406 1623.33 474.951 1581.89C469.999 1535.74 446.594 1503.54 410.047 1477.56C365.117 1445.63 367.192 1383.19 413.256 1359.56C433.48 1349.19 455.447 1347.61 475.339 1358.54C555.653 1402.7 598.84 1472.11 610.377 1549.44V1549.46Z" fill="#436321"/>
<path d="M1067.42 1012.66C1066.45 1018.2 1064.96 1028.6 1062.8 1038.89C1053.62 1082.6 1035.83 1123.08 1013.86 1161.56C991.396 1200.9 948.624 1212 913.599 1189.25C889.114 1173.35 878.214 1140.87 887.482 1111.07C892.268 1095.72 900.54 1081.88 907.346 1067.44C917.251 1046.39 925.218 1024.78 929.811 1001.93C931.914 991.553 935.51 981.676 940.822 972.463C957.615 943.331 986.858 929.885 1016.32 937.825C1047.23 946.153 1068.03 974.566 1067.45 1012.66H1067.42Z" fill="#462A22"/>
<path d="M2122.19 3064.48C2122.91 3044.73 2129.8 3027.55 2143.8 3013.44C2172.27 2984.75 2200.71 2956.06 2229.23 2927.45C2237.31 2919.35 2246.5 2912.71 2256.9 2907.84C2285.73 2894.34 2315.52 2899.23 2335.91 2920.93C2356.11 2942.39 2359.51 2976.31 2343.8 3002.98C2340.2 3009.1 2335.94 3015.07 2330.99 3020.11C2302.41 3049.24 2273.88 3078.51 2244.59 3106.9C2224.14 3126.7 2199.91 3136.78 2170.83 3129C2141.59 3121.17 2121.61 3094.58 2122.19 3064.46V3064.48Z" fill="#462A22"/>
<path d="M5074.34 1104.4C5181.02 1104.32 5269.66 1121.75 5350.39 1170.61C5382.67 1190.14 5411.7 1213.79 5437.42 1241.32C5455.82 1260.99 5474.11 1280.88 5491.26 1301.66C5508.25 1322.22 5518.87 1345.76 5510.13 1372.98C5495.36 1419.13 5442.4 1435.48 5403.53 1406.32C5396.84 1401.31 5390.89 1395.17 5385.16 1389.06C5375.95 1379.21 5366.79 1369.28 5358.33 1358.82C5294.47 1279.92 5209.84 1245.64 5110.44 1242.79C5028.05 1240.41 4947.68 1255.18 4867.67 1272.2C4810.35 1284.4 4753.66 1299.14 4700.26 1324.1C4621.5 1360.89 4563.07 1417.69 4529.76 1498.84C4520.74 1520.8 4515.18 1543.71 4514.65 1567.59C4513.3 1630.2 4542.4 1674.38 4597.1 1702.79C4605.31 1707.05 4614.14 1710.1 4622.47 1714.11C4659.84 1732.17 4676.03 1769.33 4661.75 1803.94C4647.31 1838.91 4610.38 1854.01 4571.06 1841.04C4438.16 1797.13 4357.4 1666.11 4380.19 1527.91C4400.47 1404.99 4468.2 1312.01 4568.35 1241.18C4624.04 1201.79 4686.73 1177.11 4752.08 1159.1C4862.03 1128.78 4973.52 1107.45 5074.36 1104.43L5074.34 1104.4Z" fill="#436222"/>
<path d="M4036.33 -6.46997C4035.31 69.5287 4029.17 142.401 4006.84 213.032C4001.25 230.739 3994.83 248.168 3983.38 263.135C3951.37 305.022 3889.51 300.429 3867.07 254.365C3858.33 236.41 3858.52 217.68 3864.69 199.006C3922.18 25.4013 3910.84 -141.563 3817.41 -301.03C3772.59 -377.527 3733.03 -456.458 3709.87 -542.721C3689.95 -616.977 3678.64 -692.698 3668.57 -768.725C3663.14 -809.643 3656.86 -850.45 3652.24 -891.451C3648.9 -921.386 3654.29 -949.273 3682.62 -966.454C3722.82 -990.855 3770.21 -971.904 3784.46 -926.172C3790.13 -907.996 3791.98 -889.044 3794.5 -870.287C3804.24 -798.106 3812.76 -725.759 3825.46 -653.966C3843.11 -554.258 3881.87 -463.043 3932.92 -376.254C3974.11 -306.204 4007.39 -232.778 4023.08 -152.27C4032.62 -103.273 4036.08 -53.8066 4036.3 -6.46997H4036.33Z" fill="#462A22"/>
<path d="M4338.3 -656.846C4338.38 -635.848 4333.57 -622.955 4327.15 -610.45C4267 -493.063 4230.15 -368.511 4214.08 -237.844C4200.63 -128.397 4202.48 -19.3099 4227.25 88.5877C4241.38 150.255 4263.41 208.714 4303.71 258.762C4313.98 271.516 4325.87 282.859 4333.34 297.881C4349.47 330.334 4340.92 361.679 4317.16 381.294C4290.71 403.123 4254.08 401.546 4227.94 378.362C4195.71 349.81 4171.58 314.841 4151.22 277.215C4110.58 202.101 4088.69 121.123 4077.99 36.9905C4047.53 -201.961 4090.8 -428.961 4190.5 -646.582C4197.53 -661.909 4205.22 -676.932 4215.98 -690.073C4235.66 -714.059 4266.67 -723.106 4294.31 -713.146C4321.42 -703.38 4338.41 -679.034 4338.3 -656.874V-656.846Z" fill="#E95B02"/>
<path d="M4915.54 2688.95C4817.88 2681.67 4724.1 2660.26 4638.83 2609.82C4542.3 2552.75 4491.42 2466.21 4477.31 2356.43C4465.83 2266.93 4474.63 2178.23 4488.49 2089.78C4495.27 2046.51 4503.96 2003.6 4514.77 1961.14C4519.37 1943.07 4528.14 1927.47 4543.05 1915.96C4564.49 1899.39 4594.34 1897.34 4616.78 1910.45C4641.35 1924.81 4655.37 1953.45 4650.06 1982.74C4643.39 2019.59 4634.46 2056.03 4627.85 2092.91C4615.09 2163.93 4607.07 2235.42 4611.05 2307.76C4612.24 2329.68 4615.42 2351.28 4620.51 2372.67C4632.6 2423.21 4661.04 2461.81 4705.25 2488.81C4760.2 2522.37 4820.84 2538.75 4883.95 2547.57C4898.53 2549.62 4913.3 2550.59 4927.83 2552.97C4961.17 2558.45 4984.07 2578.45 4989.83 2606.28C4998.49 2648.19 4971.02 2685.1 4928.16 2688.92C4923.98 2689.28 4919.75 2688.97 4915.54 2688.97V2688.95Z" fill="#436222"/>
<path d="M3005.35 -34.5524C3004.47 -175.677 3083.78 -293.755 3214.64 -339.072C3326.47 -377.777 3430.05 -356.391 3522.51 -283.657C3588 -232.143 3628.72 -162.729 3658.44 -86.1772C3664.83 -69.6883 3671.38 -53.2269 3674.56 -35.7143C3682.37 7.41705 3657.41 42.9679 3615.47 48.4734C3587.33 52.1807 3557.01 33.2018 3544.84 3.54382C3535.74 -18.6443 3528.49 -41.6625 3518.61 -63.491C3493.68 -118.629 3460.13 -166.713 3405.62 -197.118C3289.26 -262.022 3145.37 -179.854 3142.96 -46.6977C3142.57 -26.1142 3145.06 -5.44763 3144.76 15.1359C3144.18 52.8724 3115.3 83.1389 3079.66 84.6606C3044.17 86.1545 3013.84 58.9035 3008.67 20.8904C3006.18 2.49249 3005.52 -16.0161 3005.41 -34.58L3005.35 -34.5524Z" fill="#E95B02"/>
<path d="M5645.86 321.815C5645.64 371.559 5616.81 401.134 5574.31 398.865C5545.18 397.316 5519.51 374.159 5511.4 341.735C5506 320.1 5501.69 298.161 5495.63 276.719C5485.62 241.307 5471.53 207.527 5451.23 176.624C5411.11 115.537 5352.71 87.622 5281.36 86.0174C5195.23 84.0531 5117.8 113.324 5044.67 156.068C5020.27 170.316 4997.86 187.524 4974.54 203.432C4953.35 217.874 4930.27 224.431 4905.15 215.245C4882.16 206.863 4866.67 190.54 4862.22 166.304C4857.18 138.915 4865.79 114.928 4887.72 97.6095C4948.26 49.8579 5013.63 10.4614 5086.39 -16.181C5151.49 -40.0291 5218.17 -54.3601 5287.83 -51.4552C5420.38 -45.922 5519.62 14.1963 5583.97 130.532C5614.43 185.587 5632.72 245.042 5644.42 306.626C5645.58 312.796 5645.61 319.187 5645.86 321.787V321.815Z" fill="#E95B02"/>
<path d="M4715.13 -719.04C4760.4 -719.122 4791.49 -675.908 4778.43 -630.812C4773.37 -613.328 4764.27 -597.53 4757.08 -580.931C4697.84 -444.316 4662.79 -301.974 4655.9 -153.048C4654.16 -115.117 4655.65 -77.2703 4664.2 -39.9764C4673.33 -0.137329 4693.66 29.3824 4735.05 40.8914C4743.96 43.3814 4752.09 48.1122 4759.65 53.6177C4788.25 74.4226 4798.49 106.543 4785.68 135.648C4772.18 166.357 4739.26 183.206 4705.17 174.85C4632.44 156.978 4578.96 114.953 4548.22 45.7883C4526.45 -3.20825 4519.12 -55.1927 4517.9 -108.173C4515.27 -221.134 4533.95 -331.328 4562.47 -440.138C4583.14 -518.959 4610.42 -595.4 4645.77 -668.909C4655.37 -688.884 4668.18 -705.511 4689.24 -714.364C4697.51 -717.85 4706.2 -719.206 4715.16 -719.095L4715.13 -719.04Z" fill="#462A22"/>
<path d="M4306.87 2005.68C4306.48 1944.93 4293.67 1886.27 4276.02 1828.48C4271.59 1814.01 4266.83 1799.62 4267.25 1784.1C4268.11 1750.6 4288.36 1724.95 4320.29 1717.46C4349.39 1710.62 4380.46 1725.51 4395.15 1753.97C4405.47 1773.95 4410.14 1795.94 4416.15 1817.38C4432.91 1877.17 4443.59 1937.9 4444.62 2000.23C4445.97 2081.29 4425.97 2157.73 4397 2232.49C4388.95 2253.26 4381.54 2274.29 4375.12 2295.7C4361.59 2340.72 4368.4 2383.02 4390.34 2423.74C4405.97 2452.74 4425.14 2479.41 4444.15 2506.19C4456.24 2523.23 4465.95 2540.96 4467.72 2562.46C4469.9 2588.94 4457.92 2608.5 4437.42 2622.49C4416.23 2636.96 4392.96 2636.44 4370.17 2624.96C4362.28 2620.97 4354.56 2616.19 4349.2 2608.99C4314.86 2563.15 4281 2516.98 4257.1 2464.47C4224.89 2393.72 4221.88 2321.38 4245.78 2247.84C4256.18 2215.83 4268.08 2184.29 4279.42 2152.61C4296.44 2105.08 4307.23 2056.42 4306.84 2005.68H4306.87Z" fill="#E95B02"/>
<path d="M4704.05 212.643C4860.09 221.026 4972.22 297.633 5042.6 437.347C5053 457.986 5062.91 479.15 5066.89 502.224C5075.77 553.627 5030.6 595.624 4982.07 580.906C4959.88 574.156 4944.58 558.912 4935.59 537.553C4927.9 519.321 4921.29 500.564 4911.55 483.3C4873.87 416.404 4819.61 370.45 4742.95 355.843C4635.75 335.398 4528.24 395.405 4487.65 496.773C4482.48 509.666 4479.02 523.25 4473.48 535.949C4462.64 560.82 4447.34 581.874 4417.9 585.637C4367.11 592.083 4330.09 550.667 4341.79 499.9C4350.34 462.772 4364.15 427.249 4384.34 394.907C4457.66 277.409 4565.09 219.117 4704.08 212.671L4704.05 212.643Z" fill="#436222"/>
<path d="M4325.65 2750.92C4324.91 2690.22 4376.92 2653.89 4423.87 2678.46C4447.72 2690.94 4459.89 2712.13 4462.54 2738.55C4472.28 2835.99 4499.09 2928.56 4541.36 3016.71C4559.93 3055.44 4578.91 3093.98 4597.72 3132.6C4632.88 3204.84 4661.41 3279.4 4675.6 3358.85C4678.64 3375.84 4681.49 3392.88 4684.09 3409.95C4687.19 3430.37 4691.51 3450.4 4698.23 3470.07C4706.83 3495.25 4708.88 3520.81 4690.18 3543.14C4658.56 3580.9 4603.75 3576.47 4578.05 3534.15C4562.45 3508.47 4554.53 3479.86 4551.19 3450.48C4539.32 3346.87 4504.9 3250.84 4457.34 3158.69C4419.08 3084.54 4383.45 3009.15 4359.79 2928.73C4342.28 2869.14 4330.66 2808.46 4325.65 2750.89V2750.92Z" fill="#436222"/>
<path d="M3230.05 456.16C3129.54 454.915 3040.74 423.819 2969.19 350.891C2931.18 312.159 2907.16 266.15 2901.52 211.565C2897.98 177.342 2914.25 147.325 2942.02 135.732C2976.27 121.429 3011.6 134.238 3028.98 167.161C3033.35 175.461 3036.39 184.259 3037.53 193.471C3041.57 226.2 3059.44 250.574 3084.45 270.023C3146.75 318.522 3217.52 329.09 3292.58 311.495C3376.99 291.714 3440.59 241.112 3489.26 170.702C3500.99 153.743 3510.75 135.456 3522.43 118.469C3538.28 95.423 3560.05 82.0603 3588.83 84.6056C3634.78 88.6725 3662.7 135.428 3643.99 178.864C3628.61 214.581 3606.62 246.812 3582.24 276.995C3505.28 372.415 3408.44 434.968 3285.47 453.173C3276.31 454.528 3267.07 455.58 3257.83 456.078C3248.59 456.576 3239.32 456.188 3230.05 456.188V456.16Z" fill="#462A22"/>
<path d="M4265.37 -40.7753C4265.7 -133.346 4284.71 -223.039 4308.42 -311.986C4330.39 -394.292 4358.72 -474.496 4388.93 -554.063C4395.04 -570.11 4403.7 -584.33 4417.37 -595.064C4439.33 -612.3 4470.51 -613.767 4494.45 -598.744C4517.57 -584.247 4529.8 -554.285 4524.02 -525.955C4520.98 -511.015 4514.78 -497.099 4509.47 -482.906C4470.13 -378.273 4435.68 -272.202 4415.4 -162.008C4404.53 -102.996 4397.64 -43.6526 4406.22 16.3828C4408.18 30.1881 4411.61 43.6061 4416.62 56.6645C4425.92 80.9553 4441.85 99.1872 4465.28 110.669C4474.75 115.317 4484.21 119.909 4492.54 126.521C4522.72 150.48 4531.1 179.529 4514.56 213.752C4499.62 244.628 4463.13 257.326 4428.74 244.849C4381.98 227.862 4343.44 199.477 4315.11 158.116C4281.64 109.23 4269.05 53.8703 4265.45 -4.14539C4264.71 -16.3185 4265.34 -28.5746 4265.34 -40.7753H4265.37Z" fill="#436222"/>
<path d="M4581.04 1602.89C4585.25 1568.64 4598.44 1531.54 4619.33 1497.37C4670.21 1414.18 4744.3 1358.9 4834.44 1325.48C4972.16 1274.41 5110.6 1274.85 5248.35 1326.56C5274.52 1336.38 5298.2 1351.07 5320.14 1368.45C5331.15 1377.16 5340.45 1387.29 5347.23 1399.74C5361.7 1426.3 5359.54 1453.13 5340.72 1476.57C5325.12 1496.02 5295.68 1504.23 5269.4 1496.54C5261.24 1494.16 5253.24 1491.01 5246.83 1485.53C5207.37 1451.83 5159.82 1438.58 5110.07 1431.42C5026.63 1419.44 4945.32 1426.91 4867.36 1460.63C4830.26 1476.68 4797 1498.59 4768.76 1527.78C4743.97 1553.39 4726.21 1582.94 4717.6 1617.88C4711.96 1640.93 4699.87 1659.91 4677.82 1670.59C4632.03 1692.8 4581.29 1660.16 4581.07 1602.89H4581.04Z" fill="#462A22"/>
<path d="M5117.82 758.687C5107.72 900.835 5051.67 1016.37 4920.2 1084.01C4808.4 1141.53 4679.03 1117.49 4594.57 1027.82C4558.57 989.616 4536.99 944.077 4528.58 892.508C4521.53 849.238 4545.74 814.102 4585.99 807.407C4614.99 802.593 4645.78 820.549 4657.81 849.653C4660.69 856.625 4663.01 863.956 4664.37 871.371C4679.23 952.93 4766.57 999.243 4848.57 965.352C4914.33 938.157 4950.46 885.038 4970.05 819.11C4979.51 787.266 4982.86 754.814 4975.28 721.864C4972.82 711.129 4973.07 700.284 4974.2 689.245C4977.8 653.694 5008.34 634.854 5029.87 631.921C5061.49 627.605 5091.78 645.533 5103.71 675.246C5114.39 701.833 5117.18 729.831 5117.82 758.715V758.687Z" fill="#E95B02"/>
<path d="M4580.01 1131.05C4580.87 1189.86 4531.18 1225.64 4484.31 1203.97C4460.27 1192.85 4448.07 1172.41 4443.53 1146.73C4425.52 1044.78 4387.95 949.667 4337.52 860.057C4282.79 762.783 4198.66 701.586 4090.79 672.952C4065.53 666.229 4042.82 655.162 4033.55 628.326C4016.78 579.662 4052 534.123 4103.9 536.807C4124.68 537.886 4144.77 542.894 4164.22 550.004C4283.51 593.689 4381.48 665.288 4447.46 775.122C4509.29 878.04 4551.84 989.174 4576.72 1106.81C4578.71 1116.24 4579.34 1125.98 4580.01 1131.07V1131.05Z" fill="#436222"/>
<path d="M4902.4 664.263C4902.13 727.258 4883.34 785.135 4850.56 838.614C4833.27 866.833 4803.86 880.86 4777.27 875.576C4732.18 866.612 4709.02 822.706 4727.25 779.824C4732.84 766.682 4740.37 754.371 4746.34 741.34C4762.75 705.568 4769.75 668.495 4760.51 629.431C4756.88 614.049 4750.32 599.994 4739.98 587.904C4717.15 561.262 4682.6 559.104 4657.7 583.865C4632.52 608.903 4625.8 640.331 4629.76 674.693C4631.53 690.13 4634.6 705.457 4631.28 721.144C4624.55 752.877 4600.98 774.456 4569.53 777.168C4541.11 779.63 4510.87 761.536 4501.75 732.266C4466.55 619.333 4516.33 486.508 4627.04 442.215C4716.35 406.498 4815.2 442.353 4866.74 528.782C4891.56 570.392 4902.35 615.764 4902.35 664.235L4902.4 664.263Z" fill="#BA3A2B"/>
<path d="M4415.82 1258.06C4416.21 1296.02 4413.83 1333.78 4406.28 1371.05C4400.91 1397.52 4388.6 1419.44 4362.98 1431.06C4339.6 1441.65 4316.67 1439.33 4296.19 1423.86C4275.03 1407.87 4265.07 1385.27 4269.36 1359.51C4276.99 1313.56 4280.34 1267.52 4277.3 1221.15C4270.91 1123.27 4244.76 1032.22 4181.52 954.757C4160.08 928.501 4135.18 906.12 4105.82 888.635C4083.5 875.327 4064.77 857.676 4062.53 829.955C4058.16 775.757 4109.5 739.736 4159.25 762.173C4202.1 781.512 4237.6 811.28 4269.14 845.697C4354.9 939.291 4397.45 1051.7 4411.56 1176.22C4413.44 1192.93 4414.72 1209.75 4415.68 1226.55C4416.29 1237.03 4415.79 1247.6 4415.79 1258.11L4415.82 1258.06Z" fill="#E95B02"/>
<path d="M4748.56 -217.01C4748.84 -334.701 4774.21 -438.449 4812.94 -539.43C4823.93 -568.12 4834.55 -596.809 4842.21 -626.744C4853.92 -672.365 4893.62 -694.028 4933.68 -678.618C4961.29 -668.022 4979.6 -636.399 4976.53 -605.358C4973.52 -574.815 4963.31 -546.319 4952.21 -518.072C4923.83 -445.78 4899.37 -372.438 4890.63 -294.751C4882.13 -219.417 4885.26 -145.133 4910.99 -72.8974C4916.5 -57.4597 4922.5 -41.9668 4921.31 -25.1182C4918.9 8.77277 4896.74 34.6682 4866.03 39.8417C4834.49 45.1536 4803.7 28.554 4790.59 -2.73633C4767.79 -57.1278 4754.62 -113.954 4750.64 -172.827C4749.45 -190.45 4748.95 -208.129 4748.54 -217.038L4748.56 -217.01Z" fill="#E95B02"/>
<path d="M3908.89 418.287C3908.5 472.401 3886.95 517.58 3851.92 556.838C3836.51 574.102 3820.05 590.508 3803.09 606.25C3788.18 620.083 3783.89 635.437 3788.73 655.108C3799.14 697.299 3814.1 738.051 3826.91 779.494C3839.47 820.136 3851.67 860.888 3861.33 902.332C3866.95 926.429 3864.95 949.558 3848.99 969.477C3816.79 1009.59 3756.78 1001.43 3734.4 954.15C3732.07 949.226 3730.11 944.024 3728.81 938.74C3711.05 865.812 3686.54 794.904 3664.32 723.332C3657.96 702.804 3653 681.944 3650.02 660.586C3642.63 607.965 3657.04 562.122 3692.71 523.086C3706.62 507.869 3721.67 493.677 3736.22 479.069C3744.27 470.99 3751.77 462.497 3758.33 453.146C3769.09 437.847 3773.21 421.247 3768.65 402.849C3766.41 393.775 3765.99 384.534 3766.24 375.238C3767.15 341.624 3786.3 317.029 3817.2 309.725C3846.8 302.726 3878.81 317.831 3893.39 346.41C3904.93 369.013 3908.53 393.553 3908.89 418.287Z" fill="#462A22"/>
<path d="M4223.43 1243.45C4223.37 1288.52 4218.89 1323.21 4213 1357.68C4207.71 1388.5 4212.44 1416.92 4228.1 1444.06C4246.69 1476.26 4269.38 1505.59 4290.68 1535.91C4303.99 1554.86 4317.46 1573.78 4329.36 1593.62C4347.65 1624.11 4346.32 1656.48 4327.45 1678.75C4299.34 1711.92 4248.6 1714.08 4223.07 1678.36C4180.27 1618.49 4133.57 1561.09 4099.4 1495.3C4070.9 1440.38 4067.53 1382.64 4078.79 1323.05C4091.62 1255.15 4085.54 1188.84 4061.75 1124.1C4054.94 1105.59 4051.2 1086.81 4056.27 1067.19C4063.13 1040.6 4085.7 1020.99 4113.79 1017.25C4138.57 1013.96 4167.29 1028.65 4180.46 1052.36C4192.41 1073.89 4198.55 1097.68 4205.22 1121.17C4217.51 1164.38 4222.98 1208.59 4223.45 1243.48L4223.43 1243.45Z" fill="#462A22"/>
<path d="M3406 775.288C3407.11 807.104 3392.06 828.933 3361.46 840.967C3334.16 851.702 3302.45 840.165 3284.19 815.514C3277.61 806.634 3273.32 796.563 3269.09 786.437C3256.39 756.143 3244.38 725.544 3228.53 696.689C3214.39 670.959 3197.24 647.72 3172.67 630.788C3131.25 602.237 3096.81 605.833 3062.42 642.353C3042.31 663.711 3027.78 688.915 3013.56 714.284C3006.53 726.845 2998.76 738.714 2986.95 747.567C2961.41 766.712 2930.65 767.403 2904.75 749.088C2882.42 733.291 2869.92 700.258 2881.71 673.422C2913.19 601.794 2954.85 537.083 3025.79 498.074C3087.54 464.1 3151.23 466.812 3214.14 496.11C3269.47 521.867 3309.86 564.003 3340.93 615.655C3365.75 656.988 3383.51 701.641 3401.19 746.266C3404.95 755.756 3406.14 765.826 3405.98 775.26L3406 775.288Z" fill="#436222"/>
<path d="M5042.04 2314.18C4999.57 2314.65 4964.6 2310.45 4930.65 2299.16C4910.51 2292.47 4892.75 2281.98 4881.93 2263.17C4868.16 2239.24 4868.13 2214.64 4883.59 2191.46C4899.11 2168.19 4922.38 2160.28 4949.41 2162.21C4955.22 2162.63 4961 2164.4 4966.65 2166C5078.56 2197.88 5174.92 2150.34 5217.61 2041.92C5231.3 2007.12 5238.94 1971.18 5238.8 1933.47C5238.69 1907.35 5244.97 1882.45 5268.26 1866.96C5311.67 1838.08 5365.37 1862.06 5374.39 1913.77C5379.23 1941.52 5376.46 1969.27 5372.01 1996.77C5360.58 2067.43 5335.6 2132.64 5290.89 2189.1C5225.74 2271.38 5138.87 2310.23 5042.01 2314.16L5042.04 2314.18Z" fill="#462A22"/>
<path d="M5194.46 1902.68C5189.48 1992.65 5151.58 2068.59 5082.22 2128.52C5053.78 2153.08 5019.55 2154.85 4993.69 2136.4C4965.02 2115.98 4956.7 2082.04 4972.38 2050.33C4978.3 2038.35 4987.63 2029.31 4997.14 2020.31C5028.07 1991.04 5048.44 1955.96 5054.97 1913.5C5057.18 1899.14 5056.57 1884.83 5050.54 1871.33C5044.76 1858.44 5035.54 1854.87 5022.73 1860.9C5004.12 1869.67 4993.08 1885.22 4986.02 1904.01C4981.6 1915.82 4978.3 1928.19 4972.71 1939.45C4951.58 1982.08 4899.09 1993.2 4865.54 1962.11C4846.83 1944.79 4839.61 1922.24 4844.7 1897.64C4855.77 1844.3 4878.95 1797.27 4922.42 1762.41C4973.38 1721.52 5030.09 1705.95 5092.31 1731.56C5154.45 1757.16 5183.42 1808.48 5192.27 1872.85C5193.52 1882.01 5193.63 1891.31 5194.43 1902.65L5194.46 1902.68Z" fill="#436222"/>
<path d="M4955.28 2873.84C4955 2834.14 4958.73 2794.77 4965.43 2755.71C4971.54 2720.05 4991.82 2697.19 5022.2 2690.53C5065.33 2681.09 5105.89 2717.97 5102.46 2764.28C5100.91 2785.25 5096.84 2806.03 5095.27 2827C5085.11 2963.64 5118.45 3087.45 5205.38 3195.1C5214.62 3206.52 5225.46 3216.68 5232.3 3230.01C5248.29 3261.22 5242.75 3295.28 5218.3 3315.14C5192.29 3336.25 5155.33 3335.97 5128.71 3313.51C5106.03 3294.36 5088.13 3270.85 5071.14 3246.7C4995.83 3139.68 4955.61 3009.93 4955.33 2873.87L4955.28 2873.84Z" fill="#462A22"/>
<path d="M3865.88 3.32339C3863.97 100.68 3838.71 191.065 3785.07 272.984C3771.34 293.927 3753.83 309.836 3727.99 312.768C3674.51 318.855 3636.94 266.815 3659.02 217.099C3664.28 205.258 3672.24 194.634 3678.58 183.236C3728.32 93.5977 3742.96 -0.245483 3711.2 -99.1792C3700.55 -132.378 3684.03 -162.59 3660.32 -188.513C3652.6 -196.951 3646.26 -206.33 3641.62 -216.843C3629.22 -244.896 3634.23 -273.254 3655.28 -293.727C3674.79 -312.678 3705.5 -317.16 3731.75 -305.015C3747.5 -297.738 3759.06 -285.482 3769.99 -272.59C3816.58 -217.59 3843.99 -153.598 3857.83 -83.382C3863.47 -54.8029 3866.1 -25.8919 3865.91 3.32339H3865.88Z" fill="#436222"/>
<path d="M5151.57 2883.02C5151.84 2818.95 5165.18 2763.31 5181.5 2708.28C5195.53 2661.06 5209.94 2613.94 5224.35 2566.83C5234.98 2532.13 5258.58 2511.36 5288.9 2509.48C5331.28 2506.85 5364.65 2542.21 5360.2 2585.36C5358.07 2606 5351.09 2625.59 5345.31 2645.37C5329.27 2700.32 5309.21 2754.1 5297.5 2810.32C5292.16 2835.96 5288.6 2861.78 5289.54 2888.06C5290.81 2923.42 5301.49 2955.87 5320.22 2985.75C5329.62 3000.74 5339.75 3015.29 5348.55 3030.59C5367.47 3063.46 5364.82 3095.72 5342.05 3119.24C5313.85 3148.34 5267.87 3148.17 5241.9 3115.2C5201.75 3064.24 5169.22 3008.74 5157.29 2943.47C5153.28 2921.45 5151.21 2899.26 5151.54 2883.02H5151.57Z" fill="#436222"/>
<path d="M5067.94 1490.92C5172.9 1494.05 5261.49 1530.79 5325.15 1617.69C5349.61 1651.11 5365.87 1688.65 5373.15 1729.32C5378.24 1757.82 5374.48 1785.04 5348.47 1804.02C5308.72 1832.99 5260.77 1813.59 5244.26 1772.98C5241.41 1765.98 5239.41 1758.62 5237.31 1751.34C5216.45 1679.22 5160.81 1634.62 5085.65 1629.75C5034.1 1626.4 4986.16 1637.78 4942 1664.72C4932.29 1670.64 4922.47 1676.51 4911.54 1679.91C4876.66 1690.73 4842.82 1676.65 4827.27 1645.05C4813.02 1616.11 4823.04 1579.18 4851.98 1559.18C4899.01 1526.61 4950.69 1504.98 5007.46 1496.21C5027.44 1493.11 5047.52 1490.84 5067.91 1490.92H5067.94Z" fill="#E95B02"/>
<path d="M3245.08 245.292C3217.05 245.292 3189.66 241.308 3163.13 232.095C3146.39 226.285 3132.39 216.685 3121.8 202.243C3105.06 179.419 3103.76 151.974 3118.45 127.435C3132.17 104.527 3160.95 92.1603 3189.63 97.1679C3204.96 99.8515 3219.46 106.132 3235.23 107.072C3266.27 108.898 3294.74 102.258 3318.86 81.7302C3338.81 64.7709 3344.65 37.2709 3332.94 18.0153C3329.9 13.0354 3327.55 8.96852 3320.49 14.5017C3292.41 36.5516 3263.09 38.5988 3238.05 21.1416C3211.71 2.77132 3201.03 -29.1553 3210.36 -61.6629C3221.12 -99.2057 3261.46 -128.947 3306.22 -132.35C3378.62 -137.827 3445.19 -89.7716 3468.4 -15.267C3494.46 68.3952 3460.1 156.512 3381.72 206.476C3340.08 233.036 3294.27 245.181 3245.08 245.237V245.292Z" fill="#436222"/>
<path d="M5466.25 436.047C5466.39 454.611 5466.06 473.091 5458.39 490.604C5444.67 521.922 5416.34 538.771 5385.96 533.403C5353.04 527.594 5329.8 500.536 5328.53 466.092C5327.89 448.856 5329.88 431.565 5327.03 414.412C5326.48 411.092 5326.2 407.716 5325.57 404.424C5308.66 315.782 5231.81 278.765 5143.72 316.695C5128.89 323.086 5116.28 333.046 5102.33 340.848C5076.44 355.289 5050.13 357.171 5024.76 340.101C4986.36 314.233 4986.24 259.482 5024.48 228.717C5052.31 206.308 5083.57 189.957 5117.8 179.61C5185.33 159.248 5252.47 158.418 5317.77 187.467C5399.08 223.654 5442.37 289.721 5460.22 374.6C5464.48 394.824 5466.55 415.352 5466.28 436.074L5466.25 436.047Z" fill="#462A22"/>
<path d="M3970.66 1392.24C3969.36 1410.53 3967.64 1428.68 3958.73 1445.3C3942.82 1475.07 3913.66 1489.49 3884.17 1481.88C3852.22 1473.63 3831.44 1445.25 3832.82 1411.25C3833.52 1394.26 3836.81 1377.38 3835.31 1360.26C3835.04 1356.94 3835.01 1353.62 3834.62 1350.33C3824.77 1261.8 3752.01 1219.49 3662.37 1250.04C3647.3 1255.18 3634.1 1264.04 3619.79 1270.62C3593.21 1282.85 3567.15 1282.68 3543.49 1263.93C3507.66 1235.54 3511.79 1181.65 3551.76 1154.29C3580.87 1134.37 3612.88 1120.67 3647.38 1113.12C3715.38 1098.23 3781.56 1102.61 3843.59 1136.19C3920.83 1178.02 3958.37 1246.36 3969.41 1331.27C3972.04 1351.52 3972.54 1371.85 3970.66 1392.21V1392.24Z" fill="#E95B02"/>
<path d="M5061.85 2506.93C4978.93 2504.19 4897.29 2493.38 4819.99 2461.31C4752.21 2433.2 4699.78 2388.83 4675.77 2316.73C4663.13 2278.83 4660.75 2239.9 4667.05 2200.67C4675.66 2147.16 4733.54 2122.18 4775.48 2153.78C4794.21 2167.89 4801.93 2188 4802.92 2210.99C4803.53 2224.88 4800.99 2238.63 4802.42 2252.6C4805.22 2280.04 4817.97 2301.1 4840.52 2316.54C4875.1 2340.19 4914.8 2349.87 4955 2357.76C4997.64 2366.11 5040.71 2370.98 5084.26 2370.46C5094.47 2370.35 5104.37 2371.79 5114.14 2374.66C5150.21 2385.23 5165.76 2413.04 5164.13 2444.63C5162.44 2476.61 5134.47 2503.59 5101 2506.71C5088.05 2507.93 5074.91 2506.91 5061.85 2506.91V2506.93Z" fill="#E95B02"/>
<path d="M2538.43 59.5385C2538.02 -14.3298 2557.85 -83.4672 2588.31 -150.004C2613.63 -205.308 2644.84 -257.21 2679.22 -307.258C2685.73 -316.72 2693.47 -324.936 2702.85 -331.604C2730.35 -351.247 2761.28 -351.164 2785.93 -331.355C2809.48 -312.459 2817.22 -277.96 2803.64 -248.744C2798.88 -238.508 2792.41 -228.991 2786.15 -219.557C2750.93 -166.465 2718.7 -111.797 2696.9 -51.5683C2675.49 7.63699 2668.66 67.6723 2684.9 129.478C2691.23 153.575 2690.12 177.34 2674.24 198.118C2658.03 219.365 2636.15 228.606 2609.78 223.958C2582.53 219.172 2564.38 202.129 2555.67 176.372C2545.51 146.355 2540.42 115.147 2538.51 83.4973C2538.04 75.5295 2538.43 67.5063 2538.43 59.5108V59.5385Z" fill="#462A22"/>
<path d="M3414.54 1041.41C3373.04 1038 3331.51 1034.71 3290.48 1026.8C3225.14 1014.21 3175.12 979.933 3140.23 923.328C3115.72 883.545 3090.4 844.868 3056.98 811.115C3020.24 774.015 3037.59 712.928 3086.14 699.4C3108.47 693.175 3129.69 697.601 3148.28 711.766C3185.43 740.124 3211.86 777.556 3236.17 816.731C3241.51 825.308 3247.27 833.69 3251.97 842.599C3269.01 874.968 3296.6 890.627 3332.04 894.445C3361.75 897.654 3391.41 901.168 3421.12 904.405C3435.54 905.982 3449.09 910.049 3461.82 917.076C3489.71 932.514 3498.89 962.753 3493.61 988.039C3487.44 1017.61 3462.15 1039.03 3432.22 1041.3C3426.35 1041.74 3420.43 1041.35 3414.54 1041.35V1041.41Z" fill="#E95B02"/>
<path d="M3130.15 1003.17C3130.34 1035.74 3114.1 1060.52 3090.48 1070.24C3062.51 1081.74 3037.58 1075.16 3015.69 1055.66C3009.8 1050.43 3004.6 1043.93 3000.64 1037.09C2975.16 993.213 2937.37 963.527 2892.75 941.146C2855.51 922.471 2817.94 904.35 2782.69 881.857C2751.57 861.993 2723.26 839.058 2700.61 809.649C2689.6 795.346 2681.6 779.687 2680.71 761.372C2679.28 731.409 2693.88 707.893 2720.8 695.803C2746.09 684.432 2778.15 688.306 2797.08 712.016C2834.4 758.771 2886.02 783.034 2936.96 809.013C2982.11 832.059 3026.12 856.626 3062.28 893.062C3083.78 914.752 3101.74 939.071 3117.53 965.049C3126.05 979.02 3130.01 994.403 3130.12 1003.17H3130.15Z" fill="#462A22"/>
<path d="M5506 804.145C5531.65 804.643 5562.08 810.536 5590 825.78C5625.69 845.257 5638.27 885.372 5620.24 919.678C5607.29 944.356 5577.33 958.826 5548.55 953.597C5539.09 951.881 5529.93 948.423 5520.67 945.684C5487.08 935.724 5452.39 949.004 5434.15 978.828C5425.33 993.242 5430.06 1006.16 5446.55 1010.92C5470.12 1017.7 5490.26 1027.99 5499.28 1053.22C5514.19 1094.97 5490.51 1137.35 5446.58 1144.49C5404.55 1151.33 5369.55 1135.11 5339.87 1106.84C5283.43 1053.08 5275.46 963.75 5320.61 900.312C5365.74 836.901 5426.71 804.228 5505.97 804.145H5506Z" fill="#436321"/>
<path d="M4677.19 1937.9C4677.99 1870.28 4690.94 1806.1 4712.33 1743.63C4727.24 1700.05 4767.36 1681.13 4806.5 1697.4C4836.27 1709.76 4852.65 1743.63 4844.52 1778.35C4837.6 1807.81 4827.42 1836.5 4822.3 1866.44C4816.07 1902.68 4812.2 1938.98 4818.45 1975.66C4821.75 1994.89 4829.41 2009.17 4849.52 2017.58C4901.81 2039.46 4902.64 2093.6 4879.49 2121.57C4861.83 2142.9 4838.62 2151.15 4811.81 2146.56C4760.55 2137.79 4725.36 2107.3 4702.59 2061.68C4682.95 2022.34 4677.39 1979.98 4677.19 1937.87V1937.9Z" fill="#462A22"/>
<path d="M3843.85 649.408C3843.35 608.849 3868.28 578.748 3903.31 574.266C3937.86 569.84 3970.42 592.333 3978.53 629.184C3988.38 673.947 3995.82 719.264 4004.54 764.277C4011.65 801.045 4018.95 837.786 4029.96 873.668C4035.16 890.683 4042.3 906.259 4054.89 919.732C4080.87 947.509 4082.78 984.084 4061.17 1010.14C4038.79 1037.15 4000.66 1042.54 3968.43 1023.2C3942.81 1007.82 3926.77 984.443 3914.65 957.995C3897.03 919.456 3887.04 878.51 3878.68 837.26C3867.26 780.766 3856.83 724.05 3846.12 667.418C3844.79 660.418 3844.32 653.253 3843.85 649.435V649.408Z" fill="#436321"/>
<path d="M2634.04 689.992C2595.81 690.214 2566.48 666.808 2561.45 633.775C2556.16 599.082 2576.67 567.515 2612.16 556.448C2627.82 551.551 2644 548.259 2659.53 542.947C2720.2 522.225 2772.21 488.39 2813.46 438.84C2822.4 428.106 2829.04 415.877 2835.92 403.787C2854.74 370.726 2882.21 356.395 2913.69 362.841C2951.26 370.533 2974.39 405.475 2965.98 443.211C2959.09 474.004 2941.64 499.733 2922.08 523.47C2850.61 610.176 2758.9 664.014 2649.57 688.498C2647.1 689.052 2644.59 689.301 2642.07 689.522C2638.72 689.799 2635.35 689.937 2634.04 689.992Z" fill="#E95B02"/>
<path d="M2866.96 215.298C2865.25 283.108 2834.09 337.029 2786.62 382.678C2737.35 430.042 2678.64 461.471 2613.37 480.533C2569.05 493.48 2530.18 471.928 2520.78 430.872C2513.72 400.135 2530.76 367.766 2562.08 353.767C2573.59 348.621 2585.76 345.024 2597.55 340.46C2633.29 326.682 2666 307.98 2693.44 280.895C2714.83 259.813 2728.41 235.661 2730.1 204.398C2731.73 174.353 2743.13 148.347 2774.7 137.252C2814.67 123.198 2854.29 145.054 2864.33 186.387C2866.63 195.877 2867.18 205.532 2866.96 215.271V215.298Z" fill="#436321"/>
<path d="M2991.36 -268.386C2991.75 -256.268 2989.23 -244.704 2983.59 -234.191C2942.39 -157.334 2939.35 -74.696 2946.4 9.46411C2947.48 22.4948 2949.06 35.5532 2946.71 48.5009C2940.29 83.8581 2913.4 107.54 2879.89 107.762C2847.03 107.983 2816.84 83.9688 2812.58 49.0266C2800.27 -52.2864 2800.88 -152.88 2839.72 -249.601C2849.41 -273.698 2858.51 -298.321 2878.4 -316.94C2900.67 -337.772 2925.9 -342.171 2952.99 -329.998C2978.86 -318.378 2990.97 -296.633 2991.33 -268.386H2991.36Z" fill="#E95B02"/>
<path d="M4909.55 2995.24C4910.16 3032 4882.35 3060.78 4846.63 3063.65C4833.88 3064.68 4821.46 3062.6 4809.12 3059.7C4711.96 3036.79 4625 2993.47 4548.26 2929.56C4529.47 2913.9 4515.58 2895.42 4514.03 2870.08C4510.85 2818.37 4564.94 2783.67 4612.3 2806.83C4622.26 2811.7 4630.59 2818.78 4639.06 2825.73C4698.29 2874.36 4765.16 2907.62 4839.77 2925.16C4851.28 2927.87 4862.54 2931.13 4872.94 2937.03C4896.9 2950.56 4910.74 2970.03 4909.55 2995.26V2995.24Z" fill="#436321"/>
<path d="M4838.31 2851.18C4816.2 2849.94 4790.53 2845.54 4765.27 2838.73C4696.82 2820.25 4632.97 2791.73 4574.32 2751.75C4564.86 2745.3 4556.28 2737.97 4549.2 2728.93C4527.81 2701.67 4525.98 2673.21 4547.15 2644.02C4566.43 2617.43 4603.26 2611.18 4633.74 2626.89C4641.21 2630.74 4648.21 2635.47 4655.27 2640.06C4714.58 2678.77 4778.46 2705.19 4849.18 2714.51C4895.96 2720.68 4923.24 2755.93 4914.97 2797.51C4908.5 2830.13 4879.22 2851.79 4838.25 2851.24L4838.31 2851.18Z" fill="#462A22"/>
<path d="M3392.76 567.516C3394.17 505.765 3424.74 458.428 3472.41 420.554C3506.97 393.081 3546.06 372.968 3586.84 357.032C3634.62 338.33 3669.84 360.989 3681.98 397.757C3692.27 428.937 3677.45 461.831 3646.79 478.957C3625.88 490.632 3604.13 500.841 3582.94 512.101C3569.13 519.432 3556.63 528.617 3545.56 539.822C3533.28 552.244 3528.68 565.994 3533.53 583.451C3539.92 606.359 3538.12 628.713 3523.23 648.356C3492.77 688.555 3433.98 683.934 3409.58 639.309C3397.6 617.453 3393.48 593.439 3392.76 567.543V567.516Z" fill="#E95B02"/>
<path d="M5148.31 1086.78C5102.69 1086.97 5071.23 1045.34 5082.71 1001.4C5084.62 994.126 5087.53 987.015 5090.85 980.265C5117.41 926.482 5137.38 870.32 5152.54 812.387C5155.34 801.764 5159.24 791.61 5165.13 782.231C5182.95 753.957 5213.85 742.005 5243.42 752.048C5273.55 762.256 5292.81 792.634 5289.63 825.224C5287.69 845.033 5281.83 863.957 5276.07 882.853C5260.91 932.818 5243.12 981.814 5220.46 1028.93C5212.41 1045.67 5203.61 1061.88 5188.01 1073.22C5175.67 1082.19 5162.17 1087.11 5148.28 1086.75L5148.31 1086.78Z" fill="#BA3A2B"/>
<path d="M5277.53 601.103C5277.17 615.849 5277.2 633.168 5273.07 650.044C5261.45 697.657 5217.82 721.063 5176.88 701.89C5150.93 689.717 5135.1 661.746 5138.23 628.547C5142.07 587.934 5135.96 548.814 5124.09 510.33C5119.75 496.304 5113.74 482.775 5108.65 468.97C5100.88 447.971 5099.58 426.917 5110.29 406.583C5122.18 383.98 5141.13 370.866 5166.84 370.146C5194.94 369.344 5216.52 382.513 5230.19 406.638C5247.51 437.237 5257.47 470.823 5265.52 504.908C5272.8 535.7 5277.36 566.88 5277.56 601.13L5277.53 601.103Z" fill="#436321"/>
<path d="M3683.05 893.894C3683.44 945.684 3662.77 975.536 3630.21 983.089C3590.37 992.329 3552.08 967.762 3547.63 926.318C3542.67 880.171 3519.27 847.968 3482.72 821.99C3437.79 790.063 3439.87 727.621 3485.93 703.994C3506.16 693.619 3528.12 692.042 3548.01 702.97C3628.33 747.125 3671.52 816.539 3683.05 893.866V893.894Z" fill="#436321"/>
<path d="M4140.1 357.089C4139.13 362.623 4137.64 373.025 4135.48 383.317C4126.3 427.029 4108.51 467.505 4086.54 505.988C4064.08 545.329 4021.3 556.423 3986.28 533.682C3961.79 517.774 3950.89 485.294 3960.16 455.498C3964.95 440.143 3973.22 426.31 3980.03 411.868C3989.93 390.814 3997.9 369.207 4002.49 346.355C4004.59 335.98 4008.19 326.103 4013.5 316.891C4030.3 287.758 4059.54 274.313 4089 282.253C4119.91 290.58 4140.71 318.993 4140.13 357.089H4140.1Z" fill="#462A22"/>
<path d="M5194.87 2408.91C5195.59 2389.16 5202.48 2371.98 5216.48 2357.87C5244.95 2329.18 5273.39 2300.49 5301.91 2271.88C5309.99 2263.78 5319.18 2257.13 5329.58 2252.27C5358.41 2238.76 5388.2 2243.66 5408.59 2265.35C5428.79 2286.82 5432.19 2320.74 5416.48 2347.41C5412.88 2353.52 5408.62 2359.5 5403.67 2364.53C5375.09 2393.67 5346.56 2422.94 5317.27 2451.32C5296.82 2471.13 5272.59 2481.2 5243.51 2473.43C5214.27 2465.6 5194.29 2439.01 5194.87 2408.88V2408.91Z" fill="#462A22"/>
<path d="M3777.06 2236.77C3874.72 2244.05 3968.51 2265.46 4053.78 2315.9C4150.3 2372.97 4201.18 2459.51 4215.29 2569.29C4226.77 2658.79 4217.98 2747.49 4204.11 2835.94C4197.34 2879.21 4188.65 2922.12 4177.83 2964.58C4173.24 2982.65 4164.47 2998.25 4149.56 3009.76C4128.12 3026.33 4098.26 3028.38 4075.83 3015.27C4051.26 3000.91 4037.23 2972.27 4042.54 2942.98C4049.21 2906.13 4058.15 2869.69 4064.76 2832.81C4077.51 2761.79 4085.54 2690.3 4081.55 2617.96C4080.36 2596.04 4077.18 2574.44 4072.09 2553.05C4060 2502.51 4031.56 2463.91 3987.35 2436.91C3932.41 2403.35 3871.76 2386.97 3808.66 2378.15C3794.08 2376.1 3779.3 2375.13 3764.78 2372.75C3731.44 2367.27 3708.53 2347.27 3702.78 2319.44C3694.12 2277.53 3721.59 2240.62 3764.45 2236.8C3768.62 2236.44 3772.86 2236.75 3777.06 2236.75V2236.77Z" fill="#436222"/>
<path d="M3120.17 3065.4C3121.11 2963.65 3139.06 2865.29 3178.99 2771.34C3184.46 2758.45 3191.27 2746.58 3201.15 2736.37C3226.05 2710.7 3254.65 2708.43 3283.01 2722.95C3310.65 2737.12 3323.1 2770.87 3314.08 2802.44C3311.09 2812.92 3306.36 2822.91 3302.46 2833.12C3250.61 2968.65 3240.9 3105.66 3287.77 3244.71C3296.68 3271.13 3309.51 3295.8 3321.38 3320.95C3334.91 3349.64 3334.19 3377.75 3312.86 3402.51C3283.09 3437.01 3229.45 3431.42 3204.02 3390.7C3181.86 3355.2 3166.18 3316.47 3153.26 3276.69C3130.96 3208.05 3119.61 3137.67 3120.17 3065.4Z" fill="#E95B02"/>
<path d="M3650.58 2611.54C3693.05 2611.07 3728.02 2615.27 3761.96 2626.56C3782.11 2633.26 3799.87 2643.74 3810.68 2662.56C3824.46 2686.49 3824.49 2711.08 3809.02 2734.27C3793.5 2757.53 3770.24 2765.45 3743.21 2763.51C3737.4 2763.09 3731.62 2761.32 3725.97 2759.72C3614.06 2727.85 3517.7 2775.38 3475.01 2883.8C3461.32 2918.61 3453.68 2954.54 3453.82 2992.25C3453.93 3018.37 3447.65 3043.27 3424.36 3058.76C3380.95 3087.64 3327.25 3063.66 3318.23 3011.95C3313.39 2984.2 3316.15 2956.45 3320.61 2928.95C3332.03 2858.29 3357.02 2793.08 3401.73 2736.62C3466.88 2654.34 3553.75 2615.5 3650.61 2611.57L3650.58 2611.54Z" fill="#462A22"/>
<path d="M3498.16 3023.04C3503.14 2933.07 3541.05 2857.13 3610.41 2797.21C3638.85 2772.64 3673.07 2770.87 3698.94 2789.32C3727.6 2809.74 3735.93 2843.68 3720.24 2875.39C3714.32 2887.37 3705 2896.42 3695.48 2905.41C3664.55 2934.68 3644.19 2969.76 3637.66 3012.23C3635.44 3026.58 3636.05 3040.89 3642.08 3054.39C3647.87 3067.28 3657.08 3070.85 3669.89 3064.82C3688.51 3056.05 3699.55 3040.5 3706.6 3021.72C3711.03 3009.9 3714.32 2997.54 3719.91 2986.28C3741.04 2943.64 3793.53 2932.52 3827.09 2963.62C3845.79 2980.94 3853.01 3003.48 3847.92 3028.08C3836.85 3081.42 3813.67 3128.45 3770.2 3163.31C3719.24 3204.2 3662.53 3219.78 3600.31 3194.16C3538.17 3168.57 3509.2 3117.25 3500.35 3052.87C3499.1 3043.71 3498.99 3034.41 3498.19 3023.07L3498.16 3023.04Z" fill="#436222"/>
<path d="M3737.33 2051.88C3737.61 2091.58 3733.88 2130.95 3727.18 2170.02C3721.07 2205.68 3700.79 2228.53 3670.41 2235.2C3627.28 2244.63 3586.72 2207.75 3590.15 2161.44C3591.7 2140.47 3595.77 2119.69 3597.34 2098.72C3607.5 1962.08 3574.16 1838.27 3487.23 1730.62C3477.99 1719.2 3467.15 1709.04 3460.31 1695.71C3444.32 1664.5 3449.86 1630.44 3474.31 1610.58C3500.32 1589.47 3537.28 1589.75 3563.9 1612.21C3586.58 1631.36 3604.48 1654.87 3621.47 1679.03C3696.78 1786.04 3737 1915.79 3737.28 2051.85L3737.33 2051.88Z" fill="#462A22"/>
<path d="M3541.04 2042.7C3540.76 2106.77 3527.43 2162.41 3511.1 2217.44C3497.08 2264.66 3482.66 2311.78 3468.25 2358.89C3457.63 2393.58 3434.03 2414.36 3403.7 2416.24C3361.32 2418.87 3327.96 2383.51 3332.41 2340.36C3334.54 2319.72 3341.51 2300.13 3347.29 2280.35C3363.34 2225.4 3383.4 2171.62 3395.1 2115.4C3400.44 2089.76 3404.01 2063.94 3403.07 2037.66C3401.8 2002.3 3391.12 1969.85 3372.39 1939.97C3362.98 1924.98 3352.85 1910.43 3344.06 1895.13C3325.13 1862.26 3327.79 1830 3350.56 1806.48C3378.75 1777.38 3424.73 1777.55 3450.71 1810.52C3490.85 1861.48 3523.39 1916.98 3535.31 1982.25C3539.32 2004.27 3541.4 2026.46 3541.07 2042.7H3541.04Z" fill="#436222"/>
<path d="M3630.77 2418.79C3713.69 2421.53 3795.33 2432.35 3872.63 2464.41C3940.41 2492.52 3992.84 2536.9 4016.85 2609C4029.49 2646.9 4031.87 2685.82 4025.57 2725.05C4016.96 2778.56 3959.08 2803.54 3917.14 2771.95C3898.41 2757.84 3890.69 2737.73 3889.7 2714.74C3889.09 2700.85 3891.64 2687.1 3890.2 2673.13C3887.4 2645.68 3874.65 2624.63 3852.1 2609.19C3817.52 2585.54 3777.82 2575.85 3737.62 2567.97C3694.99 2559.61 3651.91 2554.74 3608.36 2555.27C3598.15 2555.38 3588.25 2553.94 3578.48 2551.06C3542.41 2540.49 3526.86 2512.69 3528.49 2481.1C3530.18 2449.11 3558.15 2422.14 3591.62 2419.01C3604.57 2417.8 3617.71 2418.82 3630.77 2418.82V2418.79Z" fill="#E95B02"/>
<path d="M3163.81 2454.4C3165.81 2412.01 3158.12 2370.65 3150.04 2329.32C3139.25 2274.1 3132.25 2218.71 3143.59 2162.6C3154.96 2106.25 3181.6 2057.5 3218.79 2014.45C3241.64 1987.97 3273.65 1980.06 3300.6 1991.93C3336.76 2007.87 3351.61 2045.85 3335.87 2082.26C3332.33 2090.45 3327.79 2098.09 3322.01 2104.78C3277.83 2156.02 3267.45 2214.81 3280.9 2279.82C3289.58 2321.85 3297.83 2364.04 3301.37 2406.92C3303.83 2436.8 3304.61 2466.76 3299.77 2496.39C3295.01 2525.61 3279.46 2547.22 3250.11 2555.96C3223.93 2563.73 3200.75 2557.2 3182.46 2536.9C3169.96 2523.04 3163.48 2506.27 3163.79 2487.24C3163.95 2476.31 3163.81 2465.35 3163.81 2454.42V2454.4Z" fill="#E95B02"/>
<path d="M4015.44 2987.82C4014.64 3055.44 4001.69 3119.63 3980.3 3182.1C3965.39 3225.67 3925.28 3244.59 3886.13 3228.33C3856.36 3215.96 3839.98 3182.1 3848.11 3147.37C3855.03 3117.91 3865.21 3089.22 3870.33 3059.29C3876.56 3023.04 3880.43 2986.75 3874.18 2950.06C3870.88 2930.83 3863.22 2916.56 3843.11 2908.15C3790.82 2886.26 3789.99 2832.12 3813.14 2804.15C3830.8 2782.82 3854.01 2774.58 3880.82 2779.17C3932.08 2787.94 3967.27 2818.43 3990.04 2864.05C4009.68 2903.39 4015.24 2945.74 4015.44 2987.85V2987.82Z" fill="#462A22"/>
<path d="M2936.26 2930.83C2940.96 2820.8 2981.55 2716.31 3061.84 2627.89C3082.12 2605.54 3106.71 2593.83 3137.56 2601.88C3180.69 2613.12 3200.03 2663.05 3176.79 2702.39C3169.87 2714.1 3160.25 2723.61 3151.86 2734.15C3098.38 2801.3 3070.64 2876.97 3075.51 2963.53C3076.09 2974.05 3075.53 2984.45 3073.37 2994.91C3066.46 3028.27 3041.39 3046.03 3012.54 3048.08C2980.53 3050.35 2953.61 3030.82 2943.54 2999.75C2937.23 2980.27 2936.95 2959.99 2936.29 2930.83H2936.26Z" fill="#E95B02"/>
<path d="M3804.28 1376.89C3840.69 1376.5 3876.57 1380.76 3911.68 1390.47C3946.04 1399.99 3967.95 1424.09 3970.25 1453.96C3973.93 1501.77 3931.82 1536.3 3882.16 1524.49C3835.49 1513.39 3789.04 1511.15 3742.03 1520.94C3708.5 1527.92 3677.93 1541.17 3651.15 1562.8C3645.92 1567.04 3640.39 1570.96 3634.63 1574.42C3599.94 1595.28 3561.32 1589.06 3539.71 1559.32C3518.8 1530.52 3525.16 1489.63 3554.68 1463.92C3596.43 1427.6 3644.34 1403.09 3698.02 1389.72C3732.9 1381.04 3768.29 1376.44 3804.28 1376.89Z" fill="#E95B02"/>
<path d="M3783.07 1930.48C3782.46 1893.72 3810.27 1864.94 3845.98 1862.07C3858.74 1861.04 3871.16 1863.12 3883.5 1866.02C3980.66 1888.93 4067.62 1932.26 4144.36 1996.16C4163.15 2011.82 4177.04 2030.3 4178.58 2055.65C4181.77 2107.35 4127.68 2142.05 4080.32 2118.89C4070.36 2114.02 4062.03 2106.94 4053.56 2099.99C3994.33 2051.36 3927.46 2018.1 3852.84 2000.56C3841.34 1997.85 3830.08 1994.59 3819.67 1988.69C3795.71 1975.17 3781.88 1955.69 3783.07 1930.46V1930.48Z" fill="#436321"/>
<path d="M3854.31 2074.54C3876.42 2075.79 3902.09 2080.19 3927.35 2086.99C3995.8 2105.47 4059.65 2134 4118.3 2173.97C4127.76 2180.42 4136.34 2187.75 4143.42 2196.8C4164.81 2224.05 4166.63 2252.52 4145.47 2281.71C4126.19 2308.29 4089.36 2314.55 4058.88 2298.83C4051.41 2294.99 4044.41 2290.26 4037.35 2285.66C3978.04 2246.96 3914.15 2220.54 3843.44 2211.21C3796.66 2205.04 3769.38 2169.8 3777.65 2128.21C3784.12 2095.6 3813.39 2073.93 3854.37 2074.49L3854.31 2074.54Z" fill="#462A22"/>
<path d="M3831.87 1613.87C3831.95 1576.25 3853.67 1548.83 3886.7 1541.8C3916.94 1535.36 3949.5 1552.51 3962.28 1583.33C3969.51 1600.76 3973.93 1619.32 3979.94 1637.25C3986.71 1657.59 3993.52 1677.95 4000.93 1698.06C4008.68 1719.12 4019.08 1738.26 4035.35 1754.64C4069.8 1789.33 4059.78 1830.55 4035.68 1853.38C4015.96 1872.05 3983.92 1876.23 3957.91 1863.37C3933.73 1851.41 3916.19 1832.3 3902.39 1809.69C3874.67 1764.35 3859.45 1713.91 3843.82 1663.7C3838.45 1646.46 3832.39 1629.34 3831.92 1613.85L3831.87 1613.87Z" fill="#462A22"/>
<path d="M3664.94 1632.1C3665.21 1596.61 3685.66 1570.16 3718.28 1563.11C3748.82 1556.49 3782.52 1573.7 3794.88 1605.38C3816.66 1661.04 3837.46 1717.09 3857.02 1773.56C3868.59 1806.95 3858.24 1837.61 3832.92 1856.06C3796.68 1882.48 3746.77 1865.74 3728.65 1820.51C3715.04 1786.51 3702.23 1752.18 3689.37 1717.9C3682.56 1699.78 3676.2 1681.46 3670.03 1663.12C3666.65 1653.13 3664.63 1642.78 3664.94 1632.1Z" fill="#E95B02"/>
<path d="M3497.75 2516.81C3497.03 2536.56 3490.14 2553.74 3476.14 2567.85C3447.67 2596.54 3419.23 2625.23 3390.71 2653.84C3382.63 2661.95 3373.45 2668.59 3363.04 2673.46C3334.22 2686.96 3304.42 2682.06 3284.03 2660.37C3263.83 2638.9 3260.43 2604.98 3276.14 2578.31C3279.74 2572.2 3284 2566.22 3288.95 2561.19C3317.53 2532.05 3346.06 2502.78 3375.36 2474.4C3395.8 2454.59 3420.04 2444.52 3449.11 2452.29C3478.36 2460.12 3498.33 2486.71 3497.75 2516.84V2516.81Z" fill="#462A22"/>
<path d="M1064.83 2761.71C1064.6 2811.45 1035.78 2841.03 993.281 2838.76C964.149 2837.21 938.475 2814.06 930.369 2781.63C924.974 2760 920.658 2738.06 914.599 2716.62C904.584 2681.2 890.502 2647.42 870.195 2616.52C830.08 2555.43 771.676 2527.52 700.326 2525.91C614.201 2523.95 536.764 2553.22 463.643 2595.96C439.241 2610.21 416.832 2627.42 393.509 2643.33C372.317 2657.77 349.243 2664.33 324.123 2655.14C301.132 2646.76 285.639 2630.44 281.185 2606.2C276.15 2578.81 284.754 2554.82 306.693 2537.51C367.226 2489.75 432.601 2450.36 505.363 2423.72C570.461 2399.87 637.136 2385.54 706.799 2388.44C839.347 2393.97 938.586 2454.09 1002.94 2570.43C1033.4 2625.48 1051.68 2684.94 1063.39 2746.52C1064.55 2752.69 1064.58 2759.08 1064.83 2761.68V2761.71Z" fill="#E95B02"/>
<path d="M134.114 1720.86C179.376 1720.77 210.472 1763.99 197.414 1809.08C192.351 1826.57 183.249 1842.37 176.056 1858.97C116.823 1995.58 81.7698 2137.92 74.8809 2286.85C73.138 2324.78 74.6319 2362.63 83.1807 2399.92C92.3105 2439.76 112.645 2469.28 154.033 2480.79C162.942 2483.28 171.076 2488.01 178.629 2493.51C207.235 2514.32 217.472 2546.44 204.662 2575.54C191.161 2606.25 158.239 2623.1 124.154 2614.75C51.4201 2596.87 -2.05847 2554.85 -32.7954 2485.68C-54.5686 2436.69 -61.9 2384.7 -63.1173 2331.72C-65.7456 2218.76 -47.0711 2108.57 -18.5474 1999.76C2.11917 1920.94 29.3978 1844.5 64.7551 1770.99C74.3552 1751.01 87.1646 1734.39 108.218 1725.53C116.491 1722.05 125.178 1720.69 134.142 1720.8L134.114 1720.86Z" fill="#462A22"/>
<path d="M123.057 2652.54C279.094 2660.92 391.224 2737.53 461.607 2877.24C472.009 2897.88 481.914 2919.05 485.897 2942.12C494.778 2993.52 449.599 3035.52 401.073 3020.8C378.885 3014.05 363.586 2998.81 354.594 2977.45C346.903 2959.22 340.291 2940.46 330.553 2923.2C292.871 2856.3 238.618 2810.35 161.956 2795.74C54.7498 2775.29 -52.7604 2835.3 -93.3465 2936.67C-98.52 2949.56 -101.978 2963.15 -107.511 2975.84C-118.357 3000.72 -133.656 3021.77 -163.093 3025.53C-213.887 3031.98 -250.905 2990.56 -239.202 2939.8C-230.653 2902.67 -216.848 2867.14 -196.652 2834.8C-123.337 2717.31 -15.9093 2659.01 123.085 2652.57L123.057 2652.54Z" fill="#436222"/>
<path d="M321.413 3104.16C321.136 3167.15 302.351 3225.03 269.566 3278.51C252.275 3306.73 222.866 3320.76 196.279 3315.47C151.184 3306.51 128.027 3262.6 146.259 3219.72C151.847 3206.58 159.373 3194.27 165.349 3181.24C181.755 3145.46 188.754 3108.39 179.514 3069.33C175.889 3053.94 169.332 3039.89 158.985 3027.8C136.161 3001.16 101.606 2999 76.7065 3023.76C51.5304 3048.8 44.8076 3080.23 48.7638 3114.59C50.5345 3130.03 53.6053 3145.35 50.2854 3161.04C43.5626 3192.77 19.9911 3214.35 -11.4652 3217.06C-39.8782 3219.53 -70.1172 3201.43 -79.247 3172.16C-114.438 3059.23 -64.6671 2926.4 46.0524 2882.11C135.358 2846.39 234.209 2882.25 285.751 2968.68C310.567 3010.29 321.357 3055.66 321.357 3104.13L321.413 3104.16Z" fill="#BA3A2B"/>
<path d="M167.543 2222.89C167.82 2105.19 193.19 2001.45 231.922 1900.47C242.906 1871.78 253.529 1843.09 261.193 1813.15C272.896 1767.53 312.596 1745.87 352.657 1761.28C380.267 1771.87 398.582 1803.5 395.511 1834.54C392.496 1865.08 382.287 1893.58 371.193 1921.82C342.808 1994.12 318.351 2067.46 309.608 2145.14C301.115 2220.48 304.241 2294.76 329.971 2367C335.476 2382.44 341.48 2397.93 340.29 2414.78C337.883 2448.67 315.723 2474.56 285.013 2479.74C253.474 2485.05 222.682 2468.45 209.568 2437.16C186.771 2382.77 173.602 2325.94 169.618 2267.07C168.429 2249.45 167.931 2231.77 167.516 2222.86L167.543 2222.89Z" fill="#E95B02"/>
<path d="M681.846 2169.19C778.511 2170.93 866.766 2192.48 944.065 2249.44C963.819 2264 981.635 2280.76 995.8 2300.9C1020.2 2335.65 1014.34 2377.46 982.161 2400.58C956.792 2418.82 916.482 2418.98 896.701 2392.92C815.529 2285.88 602.196 2286.05 490.176 2358.92C479.884 2365.61 469.094 2371.12 457.06 2374.14C425.631 2382.02 396.692 2371.09 381.338 2345.28C365.402 2318.53 369.69 2284.58 392.183 2261.48C405.269 2248.03 421.371 2238.65 437.583 2229.75C514.328 2187.61 597.437 2171.15 681.846 2169.19Z" fill="#462A22"/>
<path d="M885.219 2875.94C885.357 2894.51 885.025 2912.99 877.362 2930.5C863.639 2961.82 835.309 2978.67 804.932 2973.3C772.009 2967.49 748.77 2940.43 747.497 2905.99C746.861 2888.75 748.853 2871.46 746.003 2854.31C745.45 2850.99 745.173 2847.61 744.537 2844.32C727.633 2755.68 650.777 2718.66 562.688 2756.59C547.859 2762.98 535.244 2772.94 521.3 2780.75C495.404 2795.19 469.094 2797.07 443.724 2780C405.324 2754.13 405.213 2699.38 443.448 2668.62C471.28 2646.21 502.542 2629.86 536.765 2619.51C604.298 2599.15 671.443 2598.32 736.735 2627.37C818.046 2663.55 861.343 2729.62 879.188 2814.5C883.448 2834.72 885.523 2855.25 885.247 2875.97L885.219 2875.94Z" fill="#462A22"/>
<path d="M793.434 1809.55C832.664 1810.74 873.942 1829.36 906.947 1865.11C935.997 1896.62 935.941 1938.84 908.165 1966.2C883.348 1990.63 845.391 1991.26 816.175 1967.69C809.618 1962.41 803.615 1956.29 796.532 1951.89C784.276 1944.31 775.451 1947.41 770.996 1961.11C763.333 1984.65 768.064 2006.89 780.403 2027.75C785.742 2036.8 792.355 2045.16 797.362 2054.4C814.57 2086.21 806.713 2124.39 779.435 2143.95C750.524 2164.67 712.04 2161.74 687.971 2133.58C632.085 2068.17 613.355 1993.67 642.405 1911.09C664.621 1847.98 720.423 1809.44 793.461 1809.55H793.434Z" fill="#436321"/>
<path d="M427.356 2018.1C428.158 1962.71 431.478 1907.74 453.002 1855.65C459.615 1839.63 467.223 1824.24 480.17 1812.04C503.853 1789.77 535.309 1785.15 561.647 1800.53C587.238 1815.47 599.881 1846.68 592.55 1877.11C591.665 1880.79 590.752 1884.56 589.092 1887.93C561.509 1944.07 564.22 2003.96 567.291 2063.89C568.038 2078.61 570.555 2093.27 570.583 2107.96C570.721 2146.72 544.439 2176.27 508.002 2179.5C472.701 2182.63 442.074 2157.84 434.936 2120.16C433.691 2113.55 432.917 2106.83 432.197 2100.13C429.237 2072.91 427.079 2045.6 427.356 2018.18V2018.1Z" fill="#462A22"/>
<path d="M696.512 3041C696.152 3055.74 696.18 3073.06 692.057 3089.94C680.438 3137.55 636.808 3160.96 595.863 3141.79C569.912 3129.61 554.087 3101.64 557.213 3068.44C561.059 3027.83 554.945 2988.71 543.076 2950.23C538.732 2936.2 532.729 2922.67 527.638 2908.87C519.864 2887.87 518.564 2866.81 529.271 2846.48C541.167 2823.88 560.118 2810.76 585.82 2810.04C613.929 2809.24 635.508 2822.41 649.175 2846.53C666.494 2877.13 676.454 2910.72 684.505 2944.8C691.781 2975.6 696.346 3006.78 696.539 3041.03L696.512 3041Z" fill="#436321"/>
<path d="M3015.05 2496.39C2971.15 2508.79 2929.7 2477.05 2929.01 2431.68C2928.9 2424.18 2929.79 2416.52 2931.2 2409.13C2942.4 2350.2 2946.64 2290.75 2945.72 2230.85C2945.56 2219.87 2946.61 2209.02 2949.79 2198.43C2959.39 2166.42 2985.98 2146.64 3017.16 2148.38C3048.92 2150.15 3075.59 2174.28 3081.26 2206.53C3084.69 2226.12 3084.08 2245.93 3083.61 2265.68C3082.39 2317.89 3078.33 2369.87 3069.11 2421.33C3065.82 2439.62 3061.7 2457.6 3049.69 2472.71C3040.2 2484.66 3028.53 2493.02 3015.03 2496.36L3015.05 2496.39Z" fill="#BA3A2B"/>
<path d="M3017.11 1179.46C2997.24 1138.4 3021.23 1092.06 3065.8 1083.43C3073.18 1082.02 3080.85 1081.55 3088.37 1081.63C3148.35 1082.38 3207.64 1076.15 3266.46 1064.81C3277.25 1062.74 3288.09 1061.88 3299.11 1063.15C3332.3 1067.02 3356.4 1089.74 3360.14 1120.75C3363.93 1152.35 3344.84 1182.81 3314.07 1194.01C3295.37 1200.82 3275.78 1203.67 3256.22 1206.68C3204.6 1214.6 3152.72 1219.69 3100.44 1219.58C3081.84 1219.55 3063.45 1218.61 3046.46 1209.42C3033.04 1202.15 3022.78 1192.1 3017.11 1179.43V1179.46Z" fill="#BA3A2B"/>
</g>
</svg>
