<svg width="5320" height="2986" viewBox="0 0 5320 2986" fill="none" xmlns="http://www.w3.org/2000/svg">
<g opacity="0.04">
<mask id="mask0_112_4429" style="mask-type:luminance" maskUnits="userSpaceOnUse" x="0" y="0" width="5320" height="2986">
<path d="M5320 0.7229H0V2985.61H5320V0.7229Z" fill="white"/>
</mask>
<g mask="url(#mask0_112_4429)">
<path d="M2001.56 1759.91C2108.24 1759.83 2196.88 1777.26 2277.6 1826.11C2309.89 1845.64 2338.91 1869.3 2364.64 1896.82C2383.03 1916.49 2401.32 1936.39 2418.47 1957.16C2435.46 1977.72 2446.08 2001.26 2437.34 2028.48C2422.57 2074.63 2369.62 2090.98 2330.75 2061.82C2324.05 2056.81 2318.1 2050.67 2312.38 2044.56C2303.17 2034.71 2294.01 2024.77 2285.54 2014.32C2221.69 1935.42 2137.07 1901.14 2037.67 1898.29C1955.28 1895.91 1874.91 1910.68 1794.91 1927.7C1737.58 1939.9 1680.9 1954.64 1627.5 1979.6C1548.74 2016.39 1490.31 2073.19 1457.01 2154.33C1447.99 2176.3 1442.43 2199.2 1441.9 2223.08C1440.54 2285.68 1469.65 2329.86 1524.34 2358.28C1532.56 2362.54 1541.38 2365.58 1549.71 2369.59C1587.09 2387.66 1603.27 2424.81 1588.99 2459.42C1574.55 2494.39 1537.62 2509.49 1498.31 2496.52C1365.41 2452.61 1284.65 2321.59 1307.45 2183.41C1327.73 2060.49 1395.45 1967.51 1495.6 1896.69C1551.29 1857.29 1613.98 1832.61 1679.32 1814.6C1789.26 1784.28 1900.75 1762.95 2001.59 1759.94L2001.56 1759.91Z" fill="#436222"/>
<path d="M963.597 649.079C962.573 725.075 956.432 797.944 934.106 868.573C928.518 886.279 922.099 903.707 910.646 918.674C878.638 960.559 816.779 955.966 794.343 909.904C785.601 891.95 785.794 873.221 791.964 854.547C849.451 680.949 838.109 513.991 744.684 354.53C699.867 278.037 660.306 199.108 637.15 112.849C617.232 38.5963 605.917 -37.1227 595.847 -113.146C590.424 -154.062 584.144 -194.868 579.524 -235.868C576.177 -265.801 581.571 -293.688 609.9 -310.868C650.097 -335.268 697.487 -316.317 711.735 -270.587C717.406 -252.411 719.26 -233.461 721.777 -214.704C731.515 -142.526 740.036 -70.1823 752.734 1.60828C770.385 101.313 809.143 192.524 860.185 279.309C901.378 349.357 934.659 422.78 950.345 503.285C959.89 552.279 963.348 601.744 963.569 649.079H963.597Z" fill="#462A22"/>
<path d="M2606.15 2073.69C2607.86 2009.81 2630.22 1952.79 2664.02 1899.59C2697.39 1847.06 2738.66 1800.85 2780.88 1755.51C2857.24 1673.49 2936.58 1594.28 3010.69 1510.18C3033.55 1484.26 3055.9 1457.95 3077.12 1430.64C3093.69 1409.31 3108.52 1386.96 3121.44 1363.14C3134.58 1338.91 3152.89 1319.48 3182.69 1318.24C3235.06 1316.05 3267.98 1364.61 3248.28 1414.87C3234.95 1448.9 3213.98 1478.59 3191.9 1507.38C3136.76 1579.42 3074.88 1645.57 3012.8 1711.55C2951.6 1776.59 2888.06 1839.42 2830.01 1907.39C2805.64 1935.94 2782.71 1965.63 2765.58 1999.27C2730.61 2068.02 2737.95 2129.07 2788.49 2187.53C2804.76 2206.34 2816.98 2226.73 2813.58 2252.57C2806.53 2306.1 2747.02 2330.31 2704.17 2296.78C2678.63 2276.8 2660.34 2250.3 2644.3 2222.39C2618.38 2177.24 2604.9 2124.29 2606.15 2073.66V2073.69Z" fill="#462A22"/>
<path d="M1265.56 -1.26909C1265.65 19.7286 1260.83 32.6205 1254.41 45.1251C1194.27 162.508 1157.42 287.055 1141.35 417.717C1127.9 527.159 1129.76 636.242 1154.52 744.136C1168.65 805.801 1190.67 864.257 1230.98 914.303C1241.25 927.056 1253.14 938.399 1260.61 953.421C1276.74 985.872 1268.19 1017.22 1244.43 1036.83C1217.98 1058.66 1181.35 1057.08 1155.21 1033.9C1122.98 1005.35 1098.85 970.38 1078.49 932.755C1037.85 857.645 1015.97 776.67 1005.26 692.541C974.805 453.598 1018.07 226.607 1117.78 8.99467C1124.8 -6.33172 1132.5 -21.3538 1143.26 -34.4947C1162.93 -58.4802 1193.94 -67.5266 1221.58 -57.5672C1248.69 -47.8015 1265.67 -23.4563 1265.56 -1.2967V-1.26909Z" fill="#E95B02"/>
<path d="M2814.41 2065.03C2813.58 2045.86 2821.58 2029.78 2831.9 2014.54C2863.85 1967.37 2904.05 1927.89 2947.12 1891.18C2982.7 1860.86 3018.94 1831.31 3055.04 1801.63C3153.36 1720.71 3223.85 1619.32 3275.34 1503.68C3307.73 1430.86 3334.57 1355.97 3360.93 1280.86C3366.3 1265.62 3373.13 1251.37 3385.19 1240.03C3406.8 1219.72 3437.04 1215.22 3463.57 1228.66C3487.36 1240.72 3502.25 1269.77 3498.68 1297.55C3498.04 1302.53 3497.18 1307.62 3495.55 1312.35C3457.82 1422.79 3418.31 1532.45 3363.78 1636.11C3300.51 1756.42 3212.26 1855.11 3105.92 1938.6C3074.46 1963.3 3043.5 1988.7 3014.15 2015.92C2988.48 2039.74 2964.24 2064.89 2944.41 2093.94C2937.69 2103.79 2929.19 2111.81 2919.57 2118.84C2896.11 2135.96 2871.35 2135.82 2847 2122.46C2824.92 2110.34 2814.88 2090.01 2814.38 2065L2814.41 2065.03Z" fill="#436222"/>
<path d="M1842.79 3344.39C1745.14 3337.12 1651.35 3315.7 1566.09 3265.27C1469.57 3208.2 1418.69 3121.66 1404.58 3011.89C1393.1 2922.39 1401.9 2833.7 1415.76 2745.25C1422.53 2701.99 1431.22 2659.08 1442.04 2616.61C1446.63 2598.55 1455.4 2582.94 1470.31 2571.43C1491.75 2554.86 1521.6 2552.82 1544.04 2565.93C1568.61 2580.29 1582.63 2608.92 1577.32 2638.22C1570.65 2675.07 1561.72 2711.5 1555.11 2748.38C1542.35 2819.4 1534.33 2890.88 1538.31 2963.23C1539.5 2985.14 1542.68 3006.74 1547.77 3028.13C1559.86 3078.67 1588.3 3117.26 1632.51 3144.27C1687.45 3177.82 1748.1 3194.2 1811.2 3203.03C1825.78 3205.07 1840.55 3206.04 1855.08 3208.42C1888.41 3213.9 1911.32 3233.9 1917.07 3261.73C1925.73 3303.64 1898.26 3340.55 1855.41 3344.37C1851.23 3344.73 1847 3344.42 1842.79 3344.42V3344.39Z" fill="#436222"/>
<path d="M-67.3638 620.999C-68.249 479.88 11.0665 361.806 141.922 316.491C253.744 277.788 357.321 299.173 449.777 371.904C515.26 423.416 555.983 492.827 585.695 569.376C592.086 585.865 598.643 602.325 601.824 619.837C609.626 662.967 584.672 698.517 542.732 704.022C514.596 707.729 484.276 688.751 472.103 659.094C463.001 636.907 455.753 613.889 445.877 592.062C420.951 536.925 387.393 488.844 332.893 458.44C216.534 393.538 72.6486 475.703 70.2417 608.854C69.8544 629.437 72.3443 650.103 72.04 670.685C71.4591 708.42 42.5769 738.686 6.94447 740.207C-28.5497 741.701 -58.8706 714.451 -64.0439 676.44C-66.5338 658.043 -67.1977 639.535 -67.3084 620.972L-67.3638 620.999Z" fill="#E95B02"/>
<path d="M2573.06 977.351C2572.84 1027.09 2544.02 1056.67 2501.52 1054.4C2472.39 1052.85 2446.72 1029.69 2438.61 997.27C2433.22 975.636 2428.9 953.698 2422.84 932.258C2412.83 896.846 2398.75 863.068 2378.44 832.166C2338.33 771.082 2279.93 743.168 2208.58 741.563C2122.46 739.599 2045.02 768.868 1971.91 811.611C1947.5 825.858 1925.1 843.066 1901.77 858.973C1880.58 873.414 1857.51 879.971 1832.39 870.786C1809.4 862.403 1793.91 846.081 1789.45 821.847C1784.42 794.458 1793.02 770.473 1814.96 753.154C1875.49 705.405 1940.87 666.01 2013.62 639.369C2078.72 615.521 2145.39 601.191 2215.05 604.096C2347.6 609.629 2446.83 669.745 2511.18 786.076C2541.64 841.129 2559.92 900.581 2571.63 962.163C2572.79 968.333 2572.82 974.723 2573.06 977.324V977.351Z" fill="#E95B02"/>
<path d="M1642.36 -63.4597C1687.62 -63.5427 1718.71 -20.3301 1705.65 24.7638C1700.59 42.2481 1691.49 58.0448 1684.3 74.6438C1625.07 211.253 1590.01 353.59 1583.13 502.51C1581.38 540.439 1582.88 578.284 1591.43 615.577C1600.55 655.414 1620.89 684.933 1662.27 696.441C1671.18 698.931 1679.32 703.662 1686.87 709.167C1715.47 729.971 1725.71 762.09 1712.9 791.194C1699.4 821.902 1666.48 838.75 1632.4 830.395C1559.67 812.524 1506.19 770.501 1475.45 701.338C1453.68 652.344 1446.35 600.361 1445.13 547.383C1442.5 434.427 1461.18 324.237 1489.7 215.431C1510.37 136.613 1537.64 60.175 1573 -13.3308C1582.6 -33.3049 1595.41 -49.9315 1616.46 -58.7843C1624.73 -62.2701 1633.42 -63.6257 1642.38 -63.5151L1642.36 -63.4597Z" fill="#462A22"/>
<path d="M1234.13 2661.12C1233.75 2600.37 1220.94 2541.72 1203.29 2483.93C1198.86 2469.46 1194.1 2455.08 1194.52 2439.56C1195.38 2406.05 1215.63 2380.41 1247.55 2372.91C1276.65 2366.08 1307.72 2380.96 1322.41 2409.43C1332.73 2429.4 1337.41 2451.4 1343.41 2472.84C1360.18 2532.62 1370.85 2593.34 1371.88 2655.67C1373.23 2736.73 1353.23 2813.17 1324.27 2887.92C1316.22 2908.7 1308.8 2929.72 1302.38 2951.14C1288.86 2996.15 1295.66 3038.45 1317.6 3079.17C1333.23 3108.16 1352.4 3134.83 1371.41 3161.61C1383.5 3178.65 1393.21 3196.39 1394.98 3217.88C1397.16 3244.36 1385.18 3263.92 1364.68 3277.91C1343.49 3292.38 1320.23 3291.86 1297.43 3280.38C1289.55 3276.39 1281.83 3271.61 1276.46 3264.41C1242.13 3218.57 1208.27 3172.4 1184.36 3119.89C1152.16 3049.15 1149.15 2976.81 1173.05 2903.28C1183.45 2871.27 1195.35 2839.73 1206.69 2808.05C1223.7 2760.52 1234.49 2711.86 1234.11 2661.12H1234.13Z" fill="#E95B02"/>
<path d="M1631.29 868.186C1787.32 876.568 1899.45 953.172 1969.83 1092.88C1980.23 1113.52 1990.14 1134.68 1994.12 1157.75C2003 1209.16 1957.82 1251.15 1909.3 1236.43C1887.11 1229.68 1871.81 1214.44 1862.82 1193.08C1855.13 1174.85 1848.52 1156.09 1838.78 1138.83C1801.1 1071.94 1746.85 1025.99 1670.19 1011.38C1562.99 990.935 1455.48 1050.94 1414.9 1152.3C1409.72 1165.2 1406.27 1178.78 1400.73 1191.48C1389.89 1216.35 1374.59 1237.4 1345.15 1241.16C1294.36 1247.61 1257.35 1206.2 1269.05 1155.43C1277.6 1118.3 1291.4 1082.78 1311.6 1050.44C1384.91 932.949 1492.33 874.659 1631.32 868.213L1631.29 868.186Z" fill="#436222"/>
<path d="M157.358 1111.66C56.851 1110.42 -31.9537 1079.32 -103.495 1006.4C-141.507 967.669 -165.52 921.662 -171.164 867.079C-174.705 832.857 -158.438 802.841 -130.662 791.249C-96.413 776.946 -61.0849 789.755 -43.7113 822.677C-39.3402 830.976 -36.297 839.773 -35.1628 848.986C-31.1237 881.714 -13.252 906.087 11.7571 925.535C74.0586 974.032 144.826 984.6 219.881 967.005C304.286 947.224 367.888 896.625 416.551 826.218C428.281 809.259 438.046 790.973 449.721 773.986C465.573 750.941 487.345 737.579 516.117 740.124C562.068 744.191 589.982 790.945 571.281 834.379C555.899 870.094 533.906 902.324 509.533 932.506C432.569 1027.92 335.741 1090.47 212.771 1108.68C203.614 1110.03 194.373 1111.08 185.133 1111.58C175.893 1112.08 166.626 1111.69 157.358 1111.69V1111.66Z" fill="#462A22"/>
<path d="M1192.64 614.775C1192.97 522.208 1211.98 432.518 1235.69 343.575C1257.65 261.272 1285.98 181.071 1316.19 101.506C1322.31 85.4608 1330.96 71.241 1344.63 60.507C1366.6 43.2717 1397.78 41.8054 1421.71 56.8275C1444.83 71.3239 1457.06 101.285 1451.28 129.614C1448.24 144.553 1442.04 158.469 1436.73 172.661C1397.39 277.29 1362.95 383.357 1342.67 493.547C1331.79 552.556 1324.91 611.897 1333.48 671.93C1335.45 685.735 1338.88 699.153 1343.88 712.211C1353.18 736.5 1369.11 754.732 1392.55 766.213C1402.01 770.86 1411.47 775.453 1419.8 782.065C1449.98 806.022 1458.36 835.071 1441.82 869.292C1426.88 900.166 1390.39 912.865 1356 900.388C1309.25 883.401 1270.71 855.017 1242.38 813.658C1208.91 764.774 1196.32 709.416 1192.72 651.403C1191.98 639.23 1192.61 626.975 1192.61 614.775H1192.64Z" fill="#436222"/>
<path d="M1508.3 2258.38C1512.5 2224.13 1525.7 2187.03 1546.59 2152.86C1597.46 2069.67 1671.55 2014.4 1761.68 1980.98C1899.4 1929.91 2037.83 1930.35 2175.58 1982.06C2201.75 1991.88 2225.43 2006.57 2247.37 2023.94C2258.38 2032.66 2267.67 2042.78 2274.45 2055.23C2288.92 2081.79 2286.76 2108.63 2267.95 2132.06C2252.35 2151.51 2222.91 2159.72 2196.63 2152.03C2188.47 2149.65 2180.47 2146.5 2174.05 2141.02C2134.6 2107.33 2087.05 2094.07 2037.31 2086.91C1953.87 2074.93 1872.56 2082.4 1794.6 2116.12C1757.5 2132.17 1724.25 2154.08 1696 2183.27C1671.22 2208.88 1653.45 2238.43 1644.85 2273.37C1639.21 2296.42 1627.12 2315.39 1605.07 2326.07C1559.28 2348.29 1508.55 2315.64 1508.32 2258.38H1508.3Z" fill="#462A22"/>
<path d="M2045.05 1414.21C2034.95 1556.35 1978.9 1671.88 1847.44 1739.52C1735.65 1797.04 1606.28 1773 1521.82 1683.33C1485.83 1645.13 1464.25 1599.59 1455.84 1548.02C1448.79 1504.76 1472.99 1469.62 1513.25 1462.93C1542.24 1458.11 1573.03 1476.07 1585.06 1505.17C1587.94 1512.14 1590.27 1519.47 1591.62 1526.89C1606.48 1608.44 1693.82 1654.76 1775.81 1620.87C1841.57 1593.67 1877.7 1540.55 1897.29 1474.63C1906.75 1442.79 1910.1 1410.34 1902.52 1377.39C1900.06 1366.65 1900.31 1355.81 1901.44 1344.77C1905.04 1309.22 1935.58 1290.38 1957.1 1287.45C1988.72 1283.13 2019.02 1301.06 2030.94 1330.77C2041.62 1357.36 2044.41 1385.35 2045.05 1414.24V1414.21Z" fill="#E95B02"/>
<path d="M3032.19 1340.32C3032.77 1358.93 3025.44 1374.79 3014.68 1389.31C2987.82 1425.58 2957.99 1459.39 2926.57 1491.7C2866.37 1553.58 2805.09 1614.45 2745.11 1676.56C2689.73 1733.91 2637.74 1794.08 2597.8 1863.71C2585.6 1884.98 2577.02 1907.89 2566.4 1929.86C2554.06 1955.36 2534.5 1972.38 2505.06 1974.12C2457.53 1976.94 2423.4 1931.07 2438.25 1883.66C2451.14 1842.41 2471.73 1804.64 2494.61 1768.15C2533 1706.85 2579.18 1651.63 2628.73 1599.23C2666.63 1559.15 2705.5 1519.97 2744.37 1480.83C2801.02 1423.73 2857.99 1366.98 2907.95 1303.63C2931.66 1273.56 2963.94 1266.42 2995.84 1281.44C3018.22 1291.98 3032.3 1314.81 3032.22 1340.37L3032.19 1340.32Z" fill="#E95B02"/>
<path d="M1507.27 1786.55C1508.13 1845.37 1458.44 1881.14 1411.58 1859.48C1387.54 1848.36 1375.34 1827.91 1370.8 1802.24C1352.79 1700.29 1315.22 1605.18 1264.79 1515.57C1210.07 1418.3 1125.94 1357.11 1018.07 1328.48C992.815 1321.75 970.102 1310.69 960.834 1283.85C944.069 1235.19 979.287 1189.65 1031.19 1192.34C1051.96 1193.41 1072.05 1198.42 1091.5 1205.53C1210.79 1249.22 1308.75 1320.81 1374.73 1430.64C1436.56 1533.56 1479.11 1644.69 1503.98 1762.32C1505.97 1771.75 1506.61 1781.49 1507.27 1786.58V1786.55Z" fill="#436222"/>
<path d="M1829.65 1319.79C1829.38 1382.78 1810.59 1440.66 1777.81 1494.13C1760.52 1522.35 1731.11 1536.38 1704.53 1531.09C1659.43 1522.13 1636.28 1478.23 1654.51 1435.35C1660.1 1422.2 1667.62 1409.89 1673.6 1396.86C1690 1361.09 1697 1324.02 1687.76 1284.96C1684.14 1269.58 1677.58 1255.52 1667.23 1243.43C1644.41 1216.79 1609.86 1214.63 1584.96 1239.39C1559.78 1264.43 1553.06 1295.86 1557.02 1330.22C1558.79 1345.66 1561.86 1360.98 1558.54 1376.67C1551.82 1408.4 1528.24 1429.98 1496.79 1432.69C1468.38 1435.15 1438.14 1417.06 1429.01 1387.79C1393.82 1274.86 1443.59 1142.04 1554.3 1097.75C1643.61 1062.03 1742.45 1097.89 1793.99 1184.31C1818.81 1225.92 1829.6 1271.29 1829.6 1319.76L1829.65 1319.79Z" fill="#BA3A2B"/>
<path d="M-13.0854 -51.3703C81.4181 -49.9871 154.924 -11.5327 203.199 71.4068C207.432 78.6827 212.246 85.7649 215.4 93.5111C223.256 112.683 238.057 120.429 257.727 121.978C296.347 125.022 334.968 127.954 373.477 131.938C424.989 137.249 474.897 148.564 519.714 176.229C539.246 188.291 556.619 202.871 570.009 221.683C598.449 261.603 587.106 312.286 545.581 329.41C519.41 340.2 492.575 337.073 473.984 316.878C440.288 280.305 396.882 273.084 351.732 268.105C309.073 263.402 265.971 263.402 223.505 256.043C167.595 246.332 125.378 217.893 98.7917 167.183C93.5077 157.113 87.7811 147.292 82.0267 137.471C57.7093 95.918 19.6699 83.5517 -25.7006 87.2865C-42.0506 88.6421 -58.3176 91.1596 -74.6399 86.6778C-105.32 78.24 -124.88 54.1715 -126.346 22.6335C-127.618 -4.58885 -107.285 -32.9731 -79.3153 -42.7388C-74.1697 -44.5371 -68.8025 -45.8926 -63.4355 -46.8609C-46.8089 -49.8487 -30.0164 -50.9276 -13.0854 -51.4256V-51.3703Z" fill="#462A22"/>
<path d="M2877.29 2762.32C2876.52 2861.17 2848.85 2949.95 2779.58 3023.12C2751.53 3052.75 2718.83 3076.4 2683.47 3096.43C2657.47 3111.18 2631.35 3125.81 2604.77 3139.51C2581.5 3151.49 2556.71 3157.41 2532.23 3143.71C2487.77 3118.84 2483.73 3061.3 2523.62 3029.43C2538.18 3017.81 2555 3009.76 2571.15 3000.71C2591.38 2989.4 2611.93 2978.66 2631.66 2966.6C2701.79 2923.69 2735.45 2859.59 2738.89 2778.62C2741.26 2722.35 2731.39 2667.9 2712.55 2614.95C2707.18 2599.9 2701.12 2585.1 2701.51 2568.56C2702.26 2536.74 2720.79 2511.98 2751.14 2502.96C2777.53 2495.13 2808.46 2507.03 2825.31 2531.4C2832.81 2542.28 2837.29 2554.59 2841.74 2566.84C2864.71 2629.97 2876.49 2695.15 2877.27 2762.32H2877.29Z" fill="#462A22"/>
<path d="M1343.08 1913.56C1343.47 1951.52 1341.09 1989.28 1333.54 2026.55C1328.17 2053.02 1315.86 2074.93 1290.24 2086.55C1266.86 2097.15 1243.93 2094.82 1223.46 2079.36C1202.29 2063.37 1192.34 2040.76 1196.62 2015.01C1204.26 1969.06 1207.61 1923.02 1204.56 1876.66C1198.17 1778.78 1172.03 1687.73 1108.79 1610.27C1087.35 1584.02 1062.45 1561.64 1033.1 1544.15C1010.77 1530.84 992.041 1513.19 989.8 1485.47C985.429 1431.28 1036.77 1395.26 1086.52 1417.69C1129.37 1437.03 1164.86 1466.8 1196.4 1501.22C1282.16 1594.81 1324.71 1707.21 1338.82 1831.73C1340.7 1848.44 1341.97 1865.26 1342.94 1882.05C1343.55 1892.54 1343.05 1903.1 1343.05 1913.62L1343.08 1913.56Z" fill="#E95B02"/>
<path d="M1675.81 438.549C1676.08 320.862 1701.45 217.118 1740.18 116.141C1751.16 87.4526 1761.79 58.7641 1769.45 28.8306C1781.15 -16.789 1820.85 -38.4506 1860.91 -23.0412C1888.52 -12.4456 1906.84 19.1755 1903.76 50.2156C1900.75 80.7577 1890.54 109.253 1879.45 137.499C1851.06 209.787 1826.61 283.127 1817.86 360.81C1809.37 436.142 1812.5 510.422 1838.23 582.656C1843.73 598.093 1849.73 613.585 1848.54 630.433C1846.14 664.322 1823.98 690.217 1793.27 695.39C1761.73 700.702 1730.94 684.103 1717.83 652.814C1695.03 598.424 1681.86 541.601 1677.88 482.73C1676.69 465.107 1676.19 447.429 1675.78 438.521L1675.81 438.549Z" fill="#E95B02"/>
<path d="M836.174 1073.79C835.787 1127.9 814.236 1173.08 779.212 1212.34C763.803 1229.6 747.342 1246.01 730.384 1261.75C715.472 1275.58 711.184 1290.93 716.026 1310.6C726.428 1352.79 741.394 1393.54 754.203 1434.99C766.763 1475.62 778.963 1516.38 788.618 1557.82C794.234 1581.91 792.242 1605.04 776.28 1624.96C744.078 1665.07 684.072 1656.91 661.692 1609.63C659.368 1604.71 657.403 1599.51 656.103 1594.22C638.342 1521.3 613.831 1450.39 591.616 1378.83C585.253 1358.3 580.301 1337.44 577.313 1316.08C569.927 1263.46 584.34 1217.62 620 1178.59C633.916 1163.37 648.966 1149.18 663.517 1134.57C671.568 1126.49 679.065 1118 685.622 1108.65C696.383 1093.35 700.505 1076.75 695.941 1058.35C693.7 1049.28 693.285 1040.04 693.534 1030.74C694.447 997.132 713.591 972.538 744.493 965.234C774.094 958.235 806.103 973.34 820.682 1001.92C832.218 1024.52 835.815 1049.06 836.174 1073.79Z" fill="#462A22"/>
<path d="M1150.7 1898.95C1150.64 1944.02 1146.16 1978.71 1140.27 2013.18C1134.99 2044 1139.72 2072.41 1155.38 2099.55C1173.97 2131.76 1196.65 2161.08 1217.95 2191.4C1231.26 2210.35 1244.73 2229.27 1256.63 2249.11C1274.92 2279.6 1273.59 2311.96 1254.72 2334.23C1226.61 2367.41 1175.88 2369.56 1150.34 2333.85C1107.54 2273.98 1060.84 2216.58 1026.68 2150.79C998.183 2095.87 994.808 2038.14 1006.07 1978.55C1018.9 1910.66 1012.82 1844.34 989.026 1779.61C982.22 1761.1 978.486 1742.32 983.548 1722.7C990.409 1696.11 1012.98 1676.5 1041.06 1672.77C1065.85 1669.47 1094.57 1684.16 1107.74 1707.87C1119.69 1729.4 1125.83 1753.19 1132.5 1776.68C1144.78 1819.89 1150.26 1864.1 1150.73 1898.98L1150.7 1898.95Z" fill="#462A22"/>
<path d="M2499.67 2515.8C2498.73 2617.55 2480.78 2715.9 2440.86 2809.85C2435.38 2822.74 2428.57 2834.61 2418.7 2844.82C2393.8 2870.49 2365.19 2872.76 2336.84 2858.24C2309.2 2844.07 2296.75 2810.32 2305.77 2778.76C2308.76 2768.27 2313.49 2758.28 2317.39 2748.07C2369.23 2612.54 2378.94 2475.55 2332.08 2336.5C2323.17 2310.08 2310.33 2285.41 2298.46 2260.26C2284.94 2231.57 2285.66 2203.46 2306.99 2178.7C2336.75 2144.2 2390.4 2149.79 2415.82 2190.52C2437.98 2226.01 2453.67 2264.74 2466.58 2304.52C2488.88 2373.16 2500.23 2443.54 2499.67 2515.8Z" fill="#E95B02"/>
<path d="M333.308 1430.78C334.415 1462.59 319.365 1484.42 288.767 1496.46C261.462 1507.19 229.758 1495.65 211.499 1471.01C204.915 1462.12 200.627 1452.05 196.394 1441.93C183.696 1411.64 171.689 1381.04 155.837 1352.18C141.7 1326.46 124.548 1303.22 99.9817 1286.29C58.5672 1257.74 24.1244 1261.33 -10.2632 1297.85C-30.3756 1319.21 -44.8996 1344.41 -59.1194 1369.78C-66.1463 1382.34 -73.9202 1394.21 -85.7331 1403.06C-111.268 1422.2 -142.031 1422.9 -167.926 1404.58C-190.251 1388.78 -202.756 1355.75 -190.971 1328.92C-159.488 1257.29 -117.825 1192.58 -46.8915 1153.58C14.8566 1119.6 78.5414 1122.32 141.452 1151.61C196.781 1177.37 237.172 1219.5 268.24 1271.15C293.055 1312.48 310.816 1357.14 328.494 1401.76C332.257 1411.25 333.446 1421.32 333.28 1430.75L333.308 1430.78Z" fill="#436222"/>
<path d="M2558.96 1434.38C2458.12 1431.11 2377.89 1391.36 2325.66 1302.08C2315.59 1284.88 2309.94 1266.42 2313.57 1246.5C2318.33 1220.39 2333.43 1201.94 2358.77 1193.55C2384.25 1185.14 2406.88 1192.5 2426.77 1209.41C2433.25 1214.91 2438.34 1221.77 2442.35 1229.16C2476.46 1292.12 2540.64 1303.72 2591.3 1292.82C2672.52 1275.33 2731.17 1225.84 2776.51 1158.53C2784.04 1147.35 2790.62 1135.65 2800.72 1126.38C2824.26 1104.78 2855.22 1100.52 2881.2 1115.65C2906.81 1130.56 2919.73 1161.99 2912.07 1192.09C2910.13 1199.75 2907.4 1207.58 2903.36 1214.33C2836.55 1326.32 2742.65 1401.93 2613.12 1429.23C2595.36 1432.97 2577.27 1434.21 2558.93 1434.38H2558.96Z" fill="#436222"/>
<path d="M1969.28 2969.64C1926.81 2970.11 1891.84 2965.91 1857.9 2954.62C1837.76 2947.93 1820 2937.44 1809.18 2918.63C1795.4 2894.7 1795.37 2870.11 1810.84 2846.92C1826.36 2823.66 1849.63 2815.74 1876.65 2817.68C1882.46 2818.09 1888.25 2819.87 1893.89 2821.47C2005.79 2853.34 2102.15 2805.81 2144.84 2697.39C2158.53 2662.59 2166.17 2626.65 2166.03 2588.95C2165.92 2562.83 2172.2 2537.93 2195.49 2522.44C2238.9 2493.56 2292.6 2517.54 2301.62 2569.25C2306.46 2597 2303.69 2624.74 2299.24 2652.24C2287.81 2722.9 2262.83 2788.11 2218.12 2844.57C2152.97 2926.85 2066.1 2965.69 1969.25 2969.62L1969.28 2969.64Z" fill="#462A22"/>
<path d="M2121.68 2558.13C2116.7 2648.09 2078.8 2724.03 2009.45 2783.96C1981.01 2808.52 1946.78 2810.29 1920.92 2791.84C1892.26 2771.42 1883.93 2737.48 1899.62 2705.78C1905.54 2693.8 1914.86 2684.75 1924.38 2675.76C1955.3 2646.49 1975.67 2611.41 1982.2 2568.94C1984.41 2554.59 1983.8 2540.28 1977.77 2526.78C1971.99 2513.89 1962.77 2510.32 1949.97 2516.35C1931.35 2525.12 1920.31 2540.67 1913.25 2559.46C1908.83 2571.27 1905.54 2583.63 1899.95 2594.89C1878.81 2637.53 1826.33 2648.65 1792.77 2617.55C1774.07 2600.23 1766.85 2577.69 1771.94 2553.09C1783.01 2499.75 1806.19 2452.72 1849.65 2417.87C1900.61 2376.98 1957.32 2361.4 2019.54 2387.02C2081.68 2412.61 2110.64 2463.93 2119.5 2528.3C2120.74 2537.46 2120.85 2546.76 2121.65 2558.1L2121.68 2558.13Z" fill="#436222"/>
<path d="M2190.1 384.851C2286.76 386.594 2375.01 408.145 2452.3 465.107C2472.06 479.659 2489.87 496.424 2504.04 516.564C2528.44 551.311 2522.57 593.113 2490.4 616.241C2465.03 634.472 2424.72 634.638 2404.94 608.578C2323.77 501.542 2110.45 501.708 1998.43 574.577C1988.14 581.272 1977.35 586.778 1965.32 589.793C1933.89 597.678 1904.95 586.75 1889.6 560.939C1873.66 534.187 1877.95 500.242 1900.44 477.141C1913.53 463.696 1929.63 454.318 1945.84 445.41C2022.58 403.276 2105.69 386.815 2190.1 384.851Z" fill="#462A22"/>
<path d="M793.154 658.845C791.245 756.198 765.987 846.579 712.345 928.495C698.623 949.438 681.111 965.345 655.272 968.277C601.796 974.364 564.227 922.326 586.303 872.612C591.56 860.771 599.527 850.148 605.862 838.75C655.604 749.116 670.239 655.276 638.479 556.346C627.828 523.148 611.312 492.938 587.603 467.016C579.885 458.578 573.55 449.2 568.902 438.687C556.508 410.635 561.515 382.278 582.568 361.806C602.072 342.856 632.78 338.374 659.034 350.519C674.776 357.795 686.34 370.05 697.267 382.942C743.855 437.94 771.271 501.929 785.104 572.143C790.747 600.721 793.375 629.631 793.182 658.845H793.154Z" fill="#436222"/>
<path d="M1995.17 2146.39C2100.13 2149.52 2188.71 2186.25 2252.37 2273.15C2276.83 2306.57 2293.09 2344.11 2300.37 2384.78C2305.46 2413.27 2301.7 2440.5 2275.69 2459.47C2235.94 2488.44 2187.99 2469.05 2171.48 2428.43C2168.63 2421.43 2166.64 2414.08 2164.53 2406.8C2143.67 2334.68 2088.04 2290.08 2012.87 2285.21C1961.33 2281.86 1913.39 2293.23 1869.24 2320.18C1859.53 2326.1 1849.71 2331.97 1838.78 2335.37C1803.89 2346.19 1770.06 2332.1 1754.51 2300.51C1740.26 2271.57 1750.28 2234.64 1779.22 2214.64C1826.25 2182.08 1877.92 2160.44 1934.69 2151.67C1954.67 2148.57 1974.75 2146.31 1995.14 2146.39H1995.17Z" fill="#E95B02"/>
<path d="M172.384 900.83C144.36 900.83 116.972 896.846 90.4408 887.634C73.7035 881.824 59.7051 872.225 49.1094 857.783C32.3721 834.96 31.0718 807.516 45.7619 782.977C59.4837 760.071 88.2552 747.705 116.944 752.712C132.27 755.395 146.767 761.675 162.536 762.616C193.576 764.442 222.043 757.802 246.167 737.275C266.113 720.316 271.951 692.817 260.248 673.563C257.205 668.583 254.854 664.516 247.799 670.049C219.719 692.098 190.394 694.145 165.357 676.689C139.02 658.319 128.342 626.394 137.665 593.887C148.427 556.346 188.762 526.606 233.524 523.203C305.923 517.726 372.485 565.78 395.696 640.282C421.756 723.94 387.396 812.053 309.022 862.016C267.386 888.575 221.573 900.72 172.384 900.775V900.83Z" fill="#436222"/>
<path d="M2393.46 1091.58C2393.6 1110.14 2393.27 1128.62 2385.61 1146.14C2371.88 1177.45 2343.55 1194.3 2313.18 1188.93C2280.26 1183.12 2257.02 1156.07 2255.75 1121.62C2255.11 1104.39 2257.1 1087.1 2254.25 1069.95C2253.7 1066.63 2253.42 1063.25 2252.79 1059.96C2235.88 971.321 2159.03 934.305 2070.94 972.233C2056.12 978.624 2043.5 988.583 2029.56 996.385C2003.66 1010.83 1977.35 1012.71 1951.98 995.638C1913.59 969.771 1913.48 915.022 1951.71 884.259C1979.54 861.85 2010.8 845.5 2045.02 835.154C2112.55 814.792 2179.7 813.962 2244.98 843.01C2326.29 879.196 2369.59 945.26 2387.43 1030.14C2391.69 1050.36 2393.77 1070.89 2393.49 1091.61L2393.46 1091.58Z" fill="#462A22"/>
<path d="M1989.09 3162.39C1906.18 3159.65 1824.54 3148.83 1747.24 3116.77C1679.46 3088.66 1627.04 3044.28 1603.02 2972.19C1590.38 2934.29 1588 2895.36 1594.31 2856.13C1602.91 2802.63 1660.79 2777.65 1702.73 2809.24C1721.46 2823.35 1729.18 2843.46 1730.17 2866.45C1730.78 2880.34 1728.23 2894.09 1729.67 2908.06C1732.47 2935.5 1745.22 2956.56 1767.77 2972C1802.35 2995.65 1842.05 3005.33 1882.25 3013.22C1924.88 3021.57 1967.95 3026.44 2011.5 3025.91C2021.7 3025.8 2031.61 3027.24 2041.37 3030.12C2077.45 3040.69 2093 3068.49 2091.36 3100.08C2089.68 3132.06 2061.71 3159.04 2028.23 3162.16C2015.29 3163.38 2002.15 3162.36 1989.09 3162.36V3162.39Z" fill="#E95B02"/>
<path d="M770.521 -263.422C770.189 -321.906 822.863 -357.538 869.728 -332.308C891.5 -320.578 903.839 -301.268 906.909 -276.729C914.102 -219.49 920.355 -162.141 929.235 -105.096C937.009 -55.1327 945.447 -5.33566 958.837 43.493C966.749 72.4029 977.206 100.206 991.703 126.681C1005.15 151.22 1011.23 177.364 994.58 203.369C970.041 241.685 920.465 246.886 888.07 214.822C874.984 201.875 866.491 185.802 858.496 169.535C836.557 124.966 823.776 77.4102 813.43 29.1349C793.29 -64.8707 781.504 -160.176 770.992 -255.648C770.632 -258.996 770.604 -262.371 770.549 -263.45L770.521 -263.422Z" fill="#436321"/>
<path d="M341.827 1696.92C300.33 1693.51 258.805 1690.22 217.778 1682.31C152.433 1669.72 102.415 1635.45 67.5293 1578.84C43.0182 1539.06 17.7048 1500.39 -15.7145 1466.63C-52.4535 1429.54 -35.1077 1368.45 13.4443 1354.92C35.77 1348.7 56.9891 1353.12 75.5799 1367.29C112.734 1395.65 139.154 1433.08 163.471 1472.25C168.811 1480.83 174.565 1489.21 179.268 1498.12C196.31 1530.48 223.892 1546.14 259.331 1549.96C289.043 1553.17 318.7 1556.68 348.412 1559.92C362.825 1561.5 376.381 1565.56 389.107 1572.59C416.993 1588.03 426.178 1618.27 420.894 1643.55C414.725 1673.13 389.439 1694.54 359.505 1696.81C353.64 1697.25 347.72 1696.86 341.827 1696.86V1696.92Z" fill="#E95B02"/>
<path d="M57.4596 1658.68C57.6532 1691.25 41.414 1716.03 17.7881 1725.74C-10.1812 1737.25 -35.1074 1730.67 -56.9904 1711.16C-62.883 1705.94 -68.084 1699.43 -72.0401 1692.6C-97.5196 1648.72 -135.31 1619.04 -179.933 1596.66C-217.171 1577.99 -254.739 1559.86 -289.985 1537.37C-321.108 1517.51 -349.409 1494.58 -372.067 1465.17C-383.077 1450.86 -391.072 1435.21 -391.958 1416.89C-393.396 1386.93 -378.789 1363.42 -351.871 1351.33C-326.585 1339.96 -294.522 1343.83 -275.599 1367.54C-238.279 1414.29 -186.656 1438.55 -135.725 1464.53C-90.5755 1487.58 -46.5606 1512.14 -10.4025 1548.58C11.0932 1570.27 29.0477 1594.58 44.8444 1620.56C53.3652 1634.53 57.3214 1649.91 57.432 1658.68H57.4596Z" fill="#462A22"/>
<path d="M2433.22 1459.66C2458.86 1460.16 2489.29 1466.05 2517.21 1481.3C2552.89 1500.77 2565.48 1540.89 2547.44 1575.19C2534.5 1599.87 2504.54 1614.34 2475.77 1609.11C2466.3 1607.39 2457.15 1603.94 2447.88 1601.2C2414.29 1591.24 2379.6 1604.52 2361.37 1634.34C2352.55 1648.75 2357.28 1661.67 2373.76 1666.43C2397.33 1673.21 2417.47 1683.5 2426.49 1708.73C2441.41 1750.48 2417.72 1792.86 2373.79 1800C2331.77 1806.83 2296.77 1790.62 2267.09 1762.34C2210.65 1708.59 2202.68 1619.26 2247.83 1555.83C2292.95 1492.42 2353.93 1459.75 2433.19 1459.66H2433.22Z" fill="#436321"/>
<path d="M1604.43 2593.37C1605.23 2525.76 1618.18 2461.58 1639.56 2399.11C1654.48 2355.54 1694.59 2336.61 1733.74 2352.88C1763.5 2365.25 1779.88 2399.11 1771.75 2433.83C1764.83 2463.29 1754.65 2491.98 1749.53 2521.91C1743.31 2558.15 1739.43 2594.45 1745.69 2631.14C1748.98 2650.36 1756.64 2664.64 1776.75 2673.05C1829.04 2694.93 1829.87 2749.07 1806.72 2777.04C1789.07 2798.37 1765.85 2806.61 1739.05 2802.02C1687.78 2793.25 1652.59 2762.77 1629.83 2717.15C1610.18 2677.81 1604.62 2635.45 1604.43 2593.34V2593.37Z" fill="#462A22"/>
<path d="M2301.67 25.2341C2340.9 26.4237 2382.18 45.0421 2415.18 80.7853C2444.23 112.296 2444.18 154.512 2416.4 181.873C2391.58 206.301 2353.63 206.938 2324.41 183.367C2317.86 178.083 2311.85 171.969 2304.77 167.57C2292.52 159.99 2283.69 163.089 2279.24 176.783C2271.57 200.326 2276.3 222.568 2288.64 243.428C2293.98 252.474 2300.59 260.829 2305.6 270.069C2322.81 301.884 2314.95 340.061 2287.67 359.62C2258.76 380.341 2220.28 377.409 2196.21 349.246C2140.33 283.846 2121.6 209.344 2150.65 126.764C2172.87 63.6607 2228.67 25.1234 2301.7 25.2341H2301.67Z" fill="#436321"/>
<path d="M771.132 1304.93C770.634 1264.38 795.56 1234.28 830.584 1229.79C865.138 1225.37 897.699 1247.86 905.805 1284.71C915.654 1329.47 923.096 1374.79 931.81 1419.8C938.92 1456.56 946.224 1493.3 957.235 1529.18C962.436 1546.2 969.573 1561.77 982.161 1575.25C1008.14 1603.02 1010.05 1639.6 988.441 1665.66C966.06 1692.66 927.937 1698.05 895.708 1678.71C870.09 1663.33 854.044 1639.96 841.927 1613.51C824.304 1574.97 814.317 1534.03 805.962 1492.78C794.537 1436.29 784.107 1379.57 773.401 1322.94C772.073 1315.94 771.603 1308.78 771.132 1304.96V1304.93Z" fill="#436321"/>
<path d="M2683.56 2650.36C2678.86 2760.39 2638.27 2864.88 2557.99 2953.29C2537.71 2975.65 2513.11 2987.35 2482.27 2979.3C2439.14 2968.07 2419.8 2918.13 2443.04 2878.79C2449.96 2867.09 2459.58 2857.57 2467.97 2847.03C2521.44 2779.89 2549.19 2704.23 2544.32 2617.66C2543.74 2607.15 2544.29 2596.75 2546.45 2586.29C2553.37 2552.93 2578.43 2535.16 2607.29 2533.12C2639.29 2530.85 2666.21 2550.38 2676.28 2581.45C2682.59 2600.92 2682.87 2621.2 2683.53 2650.36H2683.56Z" fill="#E95B02"/>
<path d="M2781.72 2433.63C2781.72 2468.71 2756.68 2496.27 2722.12 2500.39C2709.37 2501.91 2696.92 2500.25 2684.67 2496.71C2596.89 2471.37 2535.47 2416.18 2499.64 2332.44C2481.36 2289.69 2469.52 2244.82 2459.81 2199.53C2450.62 2156.71 2474.36 2120.38 2514.31 2112.86C2545.71 2106.97 2578.13 2125.97 2589.8 2158.65C2596.03 2176.05 2599.98 2194.22 2604.88 2212.09C2611.22 2235.25 2617.86 2258.27 2627.37 2280.4C2645.24 2321.98 2675.43 2349.84 2718.83 2363.03C2731.01 2366.74 2742.49 2371.72 2752.94 2379.11C2772.25 2392.72 2782.71 2410.76 2781.72 2433.61V2433.63Z" fill="#436321"/>
<path d="M374.832 10.7929C374.777 42.9672 358.205 67.091 329.434 76.8291C302.073 86.0969 270.591 75.1969 252.415 50.2707C246.66 42.3586 242.621 33.5611 239.191 24.5146C225.718 -11.1178 201.677 -37.8975 170.167 -58.5355C140.289 -78.0947 107.644 -91.3462 73.3118 -100.697C63.5737 -103.353 53.6419 -105.677 44.3188 -109.439C10.0695 -123.216 -7.60828 -157.272 1.35516 -190.995C10.3186 -224.691 42.5205 -245.274 79.2319 -240.211C103.107 -236.919 126.069 -229.726 148.643 -221.565C217.529 -196.639 278.835 -160.398 324.869 -101.804C344.013 -77.4307 358.372 -50.3744 369.133 -21.3538C372.979 -10.9794 374.943 -0.273132 374.86 10.7929H374.832Z" fill="#436321"/>
<path d="M2756.07 1018.96C2752.94 1098.47 2712.61 1158.03 2639.24 1196.21C2611.74 1210.51 2582.42 1219.72 2552.04 1225.17C2506.95 1233.28 2470.37 1207.19 2465.48 1164.15C2462.38 1137.01 2480.67 1107.49 2508.28 1096.12C2517.18 1092.47 2526.7 1090.17 2536.02 1087.71C2549.08 1084.25 2561.97 1080.43 2574.15 1074.48C2609.94 1057.03 2621.95 1033.95 2615.86 994.698C2613.68 980.589 2609.53 966.811 2610.03 952.26C2611.33 913.75 2629.73 891.203 2664.89 883.457C2698.47 876.043 2730.79 897.151 2742.43 931.649C2751.51 958.54 2755.3 986.509 2756.07 1018.96Z" fill="#BA3A2B"/>
<path d="M560.906 30.9884C562.704 55.7762 559.412 79.5127 543.255 99.0995C525.91 120.125 502.505 127.373 476.334 120.872C449.471 114.205 433.619 95.3648 426.454 69.0001C422.304 53.7567 424.158 38.0153 422.636 22.5229C415.554 -49.5997 390.351 -115.608 355.327 -178.297C344.344 -197.939 337.207 -218.135 342.601 -240.958C354.58 -291.613 414.641 -310.176 453.234 -275.235C463.082 -266.327 470.082 -255.372 476.417 -243.946C523.945 -158.212 555.898 -67.7202 560.933 30.9608L560.906 30.9884Z" fill="#E95B02"/>
<path d="M1115.15 -47.497C1115.2 -22.2112 1110.61 5.509 1083.16 22.3293C1041.34 47.9471 990.349 25.4555 980.417 -23.0412C976.378 -42.7663 975.105 -63.0724 972.947 -83.1571C965.865 -148.889 958.202 -214.538 945.089 -279.44C940.026 -304.532 942.433 -328.407 959.779 -348.52C976.129 -367.47 997.375 -375.548 1022.11 -370.817C1049.27 -365.616 1067.09 -348.464 1075.75 -322.625C1083.41 -299.829 1086.46 -275.844 1090.22 -252.162C1100.84 -185.601 1108.31 -118.651 1115.12 -47.4693L1115.15 -47.497Z" fill="#BA3A2B"/>
<path d="M320.059 1223.04C321.47 1161.3 352.039 1113.96 399.706 1076.09C434.259 1048.62 473.35 1028.5 514.128 1012.57C561.906 993.867 597.123 1016.53 609.268 1053.29C619.559 1084.47 604.731 1117.36 574.078 1134.49C553.164 1146.16 531.419 1156.37 510.228 1167.63C496.423 1174.96 483.918 1184.15 472.852 1195.35C460.569 1207.77 455.977 1221.52 460.818 1238.98C467.209 1261.89 465.41 1284.24 450.526 1303.88C420.067 1344.08 361.279 1339.46 336.879 1294.83C324.9 1272.98 320.778 1248.97 320.059 1223.07V1223.04Z" fill="#E95B02"/>
<path d="M1935.58 233.773C1936.38 178.387 1939.7 123.417 1961.23 71.3239C1967.84 55.3059 1975.45 39.9242 1988.39 27.7239C2012.08 5.45364 2043.53 0.833582 2069.87 16.2153C2095.46 31.1544 2108.1 62.3604 2100.77 92.7919C2099.88 96.4713 2098.97 100.234 2097.31 103.609C2069.73 159.741 2072.44 219.636 2075.51 279.558C2076.26 294.276 2078.78 308.938 2078.8 323.628C2078.94 362.387 2052.66 391.933 2016.23 395.17C1980.93 398.296 1950.3 373.508 1943.16 335.829C1941.92 329.217 1941.14 322.494 1940.42 315.799C1937.46 288.577 1935.31 261.272 1935.58 233.856V233.773Z" fill="#462A22"/>
<path d="M-104.411 140.21C-43.9354 140.929 2.26492 162.895 38.589 204.918C57.2906 226.552 75.3006 249.099 80.0312 278.783C84.9556 309.685 72.3404 336.493 46.446 350.242C21.2432 363.632 -9.85231 359.15 -32.1226 339.038C-41.0031 331.015 -47.0616 320.917 -53.5905 311.096C-77.1057 275.685 -98.9058 269.875 -137.194 288.964C-150.363 295.548 -163.199 302.548 -178.304 304.291C-208.708 307.804 -235.515 293.723 -248.905 266.473C-261.05 241.768 -255.517 210.257 -234.658 189.619C-216.897 172.052 -194.294 162.563 -171.499 153.683C-158.911 148.786 -145.853 145.355 -132.519 143.363C-121.729 141.731 -110.802 140.901 -104.411 140.21Z" fill="#436321"/>
<path d="M2075.54 1742.29C2029.92 1742.48 1998.46 1700.85 2009.94 1656.91C2011.85 1649.64 2014.76 1642.53 2018.08 1635.78C2044.63 1582 2064.61 1525.84 2079.77 1467.91C2082.56 1457.28 2086.46 1447.13 2092.36 1437.75C2110.17 1409.48 2141.07 1397.53 2170.65 1407.57C2200.78 1417.78 2220.03 1448.15 2216.85 1480.74C2214.91 1500.55 2209.05 1519.47 2203.29 1538.37C2188.13 1588.33 2170.34 1637.33 2147.69 1684.44C2139.64 1701.18 2130.84 1717.39 2115.24 1728.73C2102.9 1737.7 2089.4 1742.62 2075.51 1742.26L2075.54 1742.29Z" fill="#BA3A2B"/>
<path d="M2204.76 1256.63C2204.4 1271.37 2204.43 1288.69 2200.31 1305.57C2188.69 1353.18 2145.06 1376.58 2104.12 1357.41C2078.17 1345.24 2062.34 1317.27 2065.47 1284.07C2069.31 1243.46 2063.2 1204.34 2051.33 1165.86C2046.99 1151.83 2040.99 1138.31 2035.9 1124.5C2028.12 1103.5 2026.82 1082.45 2037.53 1062.12C2049.42 1039.51 2068.37 1026.4 2094.07 1025.68C2122.18 1024.88 2143.76 1038.05 2157.43 1062.17C2174.75 1092.77 2184.71 1126.36 2192.76 1160.44C2200.03 1191.23 2204.6 1222.41 2204.79 1256.66L2204.76 1256.63Z" fill="#436321"/>
<path d="M610.348 1549.41C610.735 1601.2 590.069 1631.05 557.508 1638.6C517.67 1647.84 479.382 1623.27 474.928 1581.83C469.976 1535.69 446.571 1503.48 410.026 1477.51C365.098 1445.58 367.173 1383.14 413.235 1359.52C433.458 1349.14 455.424 1347.56 475.315 1358.49C555.627 1402.65 598.812 1472.06 610.348 1549.38V1549.41Z" fill="#436321"/>
<path d="M1067.37 1012.62C1066.4 1018.16 1064.91 1028.56 1062.75 1038.85C1053.57 1082.56 1035.78 1123.04 1013.81 1161.52C991.348 1200.86 948.578 1211.95 913.555 1189.21C889.071 1173.3 878.171 1140.82 887.439 1111.03C892.225 1095.67 900.497 1081.84 907.302 1067.4C917.206 1046.35 925.174 1024.74 929.766 1001.89C931.869 991.516 935.465 981.64 940.777 972.427C957.569 943.296 986.811 929.851 1016.27 937.791C1047.18 946.118 1067.98 974.53 1067.4 1012.62H1067.37Z" fill="#462A22"/>
<path d="M2122.1 3064.37C2122.82 3044.62 2129.71 3027.44 2143.7 3013.33C2172.17 2984.64 2200.61 2955.95 2229.13 2927.34C2237.21 2919.24 2246.4 2912.6 2256.8 2907.73C2285.63 2894.23 2315.42 2899.13 2335.81 2920.82C2356.01 2942.28 2359.41 2976.2 2343.69 3002.87C2340.1 3008.98 2335.84 3014.96 2330.89 3019.99C2302.31 3049.13 2273.79 3078.39 2244.49 3106.78C2224.04 3126.59 2199.81 3136.66 2170.73 3128.88C2141.49 3121.05 2121.52 3094.47 2122.1 3064.34V3064.37Z" fill="#462A22"/>
<path d="M5074.12 1104.36C5180.79 1104.28 5269.43 1121.71 5350.16 1170.56C5382.44 1190.09 5411.46 1213.75 5437.19 1241.28C5455.59 1260.94 5473.88 1280.84 5491.03 1301.61C5508.01 1322.17 5518.64 1345.71 5509.9 1372.93C5495.12 1419.08 5442.17 1435.43 5403.3 1406.27C5396.61 1401.26 5390.66 1395.12 5384.93 1389.01C5375.72 1379.16 5366.56 1369.23 5358.1 1358.77C5294.25 1279.87 5209.62 1245.59 5110.22 1242.74C5027.83 1240.36 4947.47 1255.14 4867.46 1272.15C4810.14 1284.35 4753.45 1299.09 4700.06 1324.05C4621.3 1360.84 4562.87 1417.64 4529.56 1498.78C4520.54 1520.75 4514.98 1543.65 4514.46 1567.53C4513.1 1630.13 4542.2 1674.31 4596.9 1702.73C4605.11 1706.99 4613.94 1710.03 4622.27 1714.04C4659.64 1732.11 4675.82 1769.26 4661.55 1803.87C4647.11 1838.84 4610.18 1853.94 4570.86 1840.97C4437.96 1797.06 4357.21 1666.04 4380 1527.86C4400.28 1404.94 4468.01 1311.96 4568.15 1241.14C4623.84 1201.74 4686.53 1177.06 4751.88 1159.05C4861.82 1128.73 4973.31 1107.4 5074.14 1104.39L5074.12 1104.36Z" fill="#436222"/>
<path d="M4036.16 -6.46997C4035.14 69.5257 4028.99 142.395 4006.67 213.024C4001.08 230.729 3994.66 248.158 3983.21 263.125C3951.2 305.01 3889.34 300.417 3866.91 254.355C3858.16 236.401 3858.36 217.671 3864.53 198.998C3922.01 25.4 3910.67 -141.558 3817.25 -301.019C3772.43 -377.512 3732.87 -456.441 3709.71 -542.7C3689.79 -616.953 3678.48 -692.672 3668.41 -768.695C3662.99 -809.612 3656.71 -850.417 3652.09 -891.417C3648.74 -921.35 3654.13 -949.237 3682.46 -966.417C3722.66 -990.817 3770.05 -971.867 3784.3 -926.136C3789.97 -907.96 3791.82 -889.01 3794.34 -870.253C3804.08 -798.075 3812.6 -725.731 3825.3 -653.941C3842.95 -554.236 3881.71 -463.025 3932.75 -376.24C3973.94 -306.192 4007.22 -232.769 4022.91 -152.264C4032.45 -103.27 4035.91 -53.8047 4036.13 -6.46997H4036.16Z" fill="#462A22"/>
<path d="M4338.12 -656.818C4338.2 -635.82 4333.39 -622.928 4326.97 -610.424C4266.83 -493.041 4229.98 -368.494 4213.9 -237.832C4200.46 -128.39 4202.31 -19.3066 4227.07 88.5867C4241.21 150.252 4263.23 208.708 4303.54 258.754C4313.8 271.507 4325.7 282.85 4333.17 297.872C4349.3 330.323 4340.75 361.668 4316.98 381.282C4290.53 403.11 4253.91 401.533 4227.76 378.35C4195.53 349.799 4171.41 314.831 4151.05 277.206C4110.41 202.096 4088.53 121.121 4077.82 36.9916C4047.36 -201.951 4090.63 -428.942 4190.33 -646.554C4197.36 -661.881 4205.05 -676.903 4215.81 -690.044C4235.48 -714.029 4266.49 -723.076 4294.13 -713.116C4321.24 -703.35 4338.23 -679.005 4338.12 -656.846V-656.818Z" fill="#E95B02"/>
<path d="M4915.35 2688.84C4817.69 2681.57 4723.91 2660.16 4638.64 2609.72C4542.12 2552.65 4491.24 2466.11 4477.13 2356.34C4465.65 2266.84 4474.45 2178.15 4488.31 2089.7C4495.09 2046.44 4503.78 2003.53 4514.59 1961.06C4519.19 1943 4527.96 1927.39 4542.87 1915.89C4564.31 1899.31 4594.16 1897.27 4616.59 1910.38C4641.16 1924.74 4655.19 1953.37 4649.87 1982.67C4643.21 2019.52 4634.27 2055.95 4627.66 2092.83C4614.91 2163.85 4606.88 2235.33 4610.87 2307.68C4612.06 2329.59 4615.24 2351.19 4620.33 2372.58C4632.42 2423.12 4660.86 2461.71 4705.07 2488.72C4760.01 2522.27 4820.65 2538.65 4883.75 2547.48C4898.33 2549.52 4913.11 2550.49 4927.63 2552.87C4960.97 2558.35 4983.87 2578.35 4989.63 2606.18C4998.29 2648.09 4970.82 2685 4927.96 2688.82C4923.79 2689.18 4919.55 2688.87 4915.35 2688.87V2688.84Z" fill="#436222"/>
<path d="M3005.22 -34.55C3004.33 -175.669 3083.65 -293.743 3214.5 -339.058C3326.33 -377.762 3429.9 -356.376 3522.36 -283.645C3587.84 -232.133 3628.57 -162.722 3658.28 -86.1729C3664.67 -69.6845 3671.22 -53.2238 3674.41 -35.7119C3682.21 7.41779 3657.25 42.9672 3615.31 48.4726C3587.18 52.1797 3556.86 33.2015 3544.69 3.54468C3535.58 -18.6426 3528.33 -41.6599 3518.46 -63.4875C3493.53 -118.624 3459.97 -166.705 3405.47 -197.109C3289.12 -262.011 3145.23 -179.846 3142.82 -46.6949C3142.44 -26.1122 3144.93 -5.44641 3144.62 15.1363C3144.04 52.8713 3115.16 83.1367 3079.53 84.6583C3044.03 86.1522 3013.71 58.9023 3008.54 20.8906C3006.05 2.49338 3005.38 -16.0144 3005.27 -34.5776L3005.22 -34.55Z" fill="#E95B02"/>
<path d="M5645.62 321.803C5645.4 371.544 5616.57 401.118 5574.08 398.85C5544.95 397.3 5519.27 374.145 5511.17 341.721C5505.77 320.087 5501.46 298.149 5495.4 276.709C5485.38 241.298 5471.3 207.519 5451 176.617C5410.88 115.533 5352.48 87.6187 5281.13 86.0141C5195.01 84.0499 5117.58 113.319 5044.46 156.062C5020.06 170.309 4997.65 187.517 4974.33 203.424C4953.14 217.865 4930.07 224.422 4904.95 215.237C4881.96 206.855 4866.46 190.532 4862.01 166.298C4856.97 138.91 4865.58 114.924 4887.52 97.6058C4948.05 49.856 5013.42 10.4611 5086.18 -16.1802C5151.27 -40.0274 5217.95 -54.3579 5287.61 -51.4531C5420.15 -45.9201 5519.38 14.1959 5583.73 130.527C5614.19 185.58 5632.48 245.032 5644.18 306.615C5645.34 312.784 5645.37 319.174 5645.62 321.775V321.803Z" fill="#E95B02"/>
<path d="M4714.95 -719.009C4760.21 -719.092 4791.3 -675.879 4778.24 -630.785C4773.18 -613.301 4764.08 -597.504 4756.89 -580.905C4697.66 -444.296 4662.6 -301.959 4655.72 -153.039C4653.97 -115.11 4655.47 -77.2645 4664.01 -39.9722C4673.14 -0.134644 4693.48 29.3839 4734.86 40.8925C4743.77 43.3824 4751.91 48.113 4759.46 53.6183C4788.06 74.4224 4798.3 106.542 4785.49 135.645C4771.99 166.353 4739.07 183.201 4704.99 174.846C4632.26 156.975 4578.78 114.952 4548.04 45.7892C4526.27 -3.20544 4518.94 -55.1879 4517.72 -108.166C4515.09 -221.122 4533.77 -331.312 4562.29 -440.118C4582.96 -518.936 4610.23 -595.374 4645.59 -668.88C4655.19 -688.854 4668 -705.481 4689.05 -714.333C4697.32 -717.819 4706.01 -719.175 4714.97 -719.064L4714.95 -719.009Z" fill="#462A22"/>
<path d="M4306.69 2005.6C4306.3 1944.85 4293.49 1886.2 4275.84 1828.41C4271.42 1813.94 4266.66 1799.55 4267.07 1784.03C4267.93 1750.53 4288.18 1724.89 4320.11 1717.39C4349.21 1710.56 4380.28 1725.44 4394.97 1753.91C4405.29 1773.88 4409.96 1795.87 4415.97 1817.32C4432.73 1877.1 4443.41 1937.82 4444.43 2000.15C4445.79 2081.21 4425.79 2157.65 4396.82 2232.4C4388.77 2253.18 4381.36 2274.2 4374.94 2295.61C4361.41 2340.63 4368.22 2382.93 4390.15 2423.65C4405.78 2452.64 4424.96 2479.31 4443.96 2506.09C4456.05 2523.13 4465.76 2540.86 4467.53 2562.36C4469.72 2588.84 4457.74 2608.39 4437.24 2622.39C4416.05 2636.86 4392.78 2636.34 4369.99 2624.86C4362.1 2620.87 4354.38 2616.09 4349.02 2608.89C4314.68 2563.05 4280.82 2516.88 4256.92 2464.37C4224.72 2393.63 4221.7 2321.29 4245.6 2247.75C4256.01 2215.75 4267.9 2184.21 4279.25 2152.53C4296.26 2105 4307.05 2056.34 4306.66 2005.6H4306.69Z" fill="#E95B02"/>
<path d="M4703.85 212.637C4859.88 221.019 4972 297.623 5042.38 437.331C5052.79 457.969 5062.69 479.133 5066.67 502.206C5075.55 553.607 5030.38 595.603 4981.85 580.885C4959.67 574.135 4944.37 558.891 4935.38 537.534C4927.68 519.303 4921.07 500.546 4911.33 483.283C4873.66 416.389 4819.4 370.438 4742.74 355.83C4635.54 335.386 4528.04 395.391 4487.45 496.756C4482.28 509.648 4478.82 523.231 4473.29 535.929C4462.44 560.8 4447.14 581.853 4417.71 585.616C4366.92 592.061 4329.9 550.647 4341.6 499.882C4350.15 462.755 4363.96 427.234 4384.15 394.893C4457.46 277.4 4564.89 219.11 4703.88 212.664L4703.85 212.637Z" fill="#436222"/>
<path d="M4325.48 2750.81C4324.73 2690.12 4376.74 2653.79 4423.69 2678.36C4447.53 2690.84 4459.71 2712.03 4462.36 2738.45C4472.1 2835.88 4498.91 2928.45 4541.18 3016.59C4559.74 3055.32 4578.72 3093.86 4597.53 3132.48C4632.7 3204.71 4661.22 3279.27 4675.41 3358.72C4678.45 3375.71 4681.3 3392.75 4683.9 3409.82C4687 3430.24 4691.32 3450.27 4698.04 3469.94C4706.64 3495.11 4708.69 3520.67 4689.99 3543C4658.37 3580.76 4603.56 3576.34 4577.86 3534.01C4562.26 3508.34 4554.35 3479.73 4551 3450.35C4539.13 3346.75 4504.72 3250.72 4457.16 3158.57C4418.9 3084.43 4383.27 3009.04 4359.61 2928.62C4342.1 2869.03 4330.48 2808.36 4325.48 2750.79V2750.81Z" fill="#436222"/>
<path d="M3229.92 456.144C3129.41 454.899 3040.6 423.803 2969.06 350.879C2931.05 312.148 2907.04 266.141 2901.39 211.558C2897.85 177.336 2914.12 147.32 2941.9 135.728C2976.15 121.425 3011.47 134.234 3028.85 167.155C3033.22 175.455 3036.26 184.252 3037.4 193.465C3041.43 226.193 3059.31 250.565 3084.32 270.014C3146.62 318.51 3217.38 329.079 3292.44 311.484C3376.84 291.703 3440.45 241.104 3489.11 170.697C3500.84 153.738 3510.6 135.451 3522.28 118.465C3538.13 95.4202 3559.9 82.0581 3588.68 84.6032C3634.63 88.67 3662.54 135.424 3643.84 178.858C3628.46 214.573 3606.46 246.803 3582.09 276.985C3505.13 372.402 3408.3 434.952 3285.33 453.156C3276.17 454.512 3266.93 455.563 3257.69 456.061C3248.45 456.559 3239.18 456.171 3229.92 456.171V456.144Z" fill="#462A22"/>
<path d="M4265.19 -40.7744C4265.53 -133.341 4284.53 -223.031 4308.24 -311.974C4330.21 -394.277 4358.54 -474.478 4388.75 -554.042C4394.86 -570.088 4403.52 -584.308 4417.19 -595.042C4439.15 -612.277 4470.33 -613.743 4494.26 -598.721C4517.39 -584.225 4529.62 -554.264 4523.83 -525.935C4520.79 -510.996 4514.59 -497.08 4509.28 -482.888C4469.94 -378.259 4435.5 -272.192 4415.22 -162.002C4404.35 -102.993 4397.46 -43.6516 4406.04 16.3814C4408 30.1862 4411.43 43.6037 4416.44 56.6616C4425.73 80.9514 4441.67 99.1826 4465.1 110.664C4474.56 115.311 4484.02 119.904 4492.35 126.516C4522.53 150.473 4530.92 179.522 4514.37 213.743C4499.43 244.617 4462.94 257.316 4428.56 244.839C4381.8 227.852 4343.26 199.468 4314.94 158.109C4281.46 109.225 4268.87 53.8675 4265.28 -4.14594C4264.53 -16.3185 4265.17 -28.5742 4265.17 -40.7744H4265.19Z" fill="#436222"/>
<path d="M4580.85 1602.83C4585.06 1568.58 4598.25 1531.48 4619.14 1497.31C4670.02 1414.13 4744.1 1358.85 4834.23 1325.43C4971.95 1274.36 5110.39 1274.81 5248.13 1326.51C5274.3 1336.33 5297.98 1351.02 5319.92 1368.4C5330.93 1377.11 5340.23 1387.24 5347 1399.68C5361.47 1426.24 5359.32 1453.08 5340.5 1476.51C5324.9 1495.96 5295.46 1504.18 5269.18 1496.48C5261.02 1494.11 5253.03 1490.95 5246.61 1485.47C5207.16 1451.78 5159.6 1438.53 5109.86 1431.36C5026.42 1419.38 4945.12 1426.85 4867.16 1460.58C4830.06 1476.62 4796.8 1498.53 4768.56 1527.72C4743.77 1553.34 4726.01 1582.88 4717.41 1617.82C4711.76 1640.87 4699.67 1659.85 4677.62 1670.52C4631.84 1692.74 4581.1 1660.1 4580.88 1602.83H4580.85Z" fill="#462A22"/>
<path d="M5117.61 758.66C5107.51 900.802 5051.46 1016.33 4919.99 1083.97C4808.2 1141.49 4678.84 1117.45 4594.38 1027.78C4558.39 989.579 4536.81 944.043 4528.4 892.475C4521.34 849.207 4545.55 814.073 4585.8 807.378C4614.79 802.564 4645.59 820.519 4657.62 849.622C4660.5 856.594 4662.82 863.925 4664.18 871.339C4679.03 952.896 4766.37 999.207 4848.37 965.317C4914.13 938.122 4950.26 885.006 4969.85 819.08C4979.31 787.238 4982.66 754.787 4975.08 721.838C4972.61 711.104 4972.86 700.259 4974 689.221C4977.59 653.671 5008.14 634.832 5029.66 631.899C5061.28 627.583 5091.57 645.51 5103.5 675.222C5114.17 701.808 5116.97 729.805 5117.61 758.687V758.66Z" fill="#E95B02"/>
<path d="M4579.83 1131C4580.68 1189.82 4531 1225.59 4484.13 1203.93C4460.09 1192.81 4447.89 1172.36 4443.36 1146.69C4425.35 1044.74 4387.78 949.631 4337.34 860.025C4282.62 762.755 4198.49 701.56 4090.63 672.926C4065.37 666.204 4042.66 655.138 4033.39 628.303C4016.62 579.64 4051.84 534.104 4103.74 536.787C4124.52 537.866 4144.6 542.874 4164.05 549.983C4283.34 593.666 4381.3 665.263 4447.28 775.093C4509.12 878.007 4551.66 989.137 4576.54 1106.77C4578.53 1116.2 4579.16 1125.94 4579.83 1131.03V1131Z" fill="#436222"/>
<path d="M4902.21 664.24C4901.93 727.233 4883.14 785.108 4850.36 838.584C4833.07 866.802 4803.66 880.829 4777.08 875.545C4731.98 866.581 4708.83 822.677 4727.06 779.796C4732.65 766.655 4740.17 754.344 4746.15 741.314C4762.55 705.543 4769.55 668.472 4760.31 629.409C4756.69 614.028 4750.13 599.974 4739.78 587.884C4716.96 561.243 4682.41 559.085 4657.51 583.845C4632.33 608.882 4625.61 640.309 4629.57 674.669C4631.34 690.106 4634.41 705.433 4631.09 721.119C4624.37 752.85 4600.8 774.429 4569.34 777.14C4540.93 779.603 4510.69 761.51 4501.56 732.24C4466.37 619.312 4516.14 486.492 4626.86 442.201C4716.16 406.485 4815.01 442.339 4866.55 528.764C4891.36 570.372 4902.15 615.743 4902.15 664.212L4902.21 664.24Z" fill="#BA3A2B"/>
<path d="M4415.64 1258.01C4416.02 1295.97 4413.64 1333.73 4406.09 1371C4400.72 1397.47 4388.41 1419.38 4362.8 1431C4339.42 1441.6 4316.48 1439.27 4296.01 1423.81C4274.85 1407.82 4264.89 1385.22 4269.18 1359.46C4276.81 1313.51 4280.16 1267.47 4277.12 1221.11C4270.73 1123.23 4244.58 1032.18 4181.34 954.722C4159.9 928.468 4135 906.087 4105.65 888.602C4083.32 875.296 4064.6 857.645 4062.35 829.925C4057.98 775.729 4109.33 739.71 4159.07 762.146C4201.92 781.484 4237.42 811.251 4268.96 845.666C4354.72 939.257 4397.27 1051.66 4411.38 1176.18C4413.26 1192.89 4414.53 1209.71 4415.5 1226.5C4416.11 1236.99 4415.61 1247.56 4415.61 1258.07L4415.64 1258.01Z" fill="#E95B02"/>
<path d="M4748.36 -217C4748.64 -334.687 4774.01 -438.431 4812.74 -539.408C4823.72 -568.096 4834.34 -596.785 4842.01 -626.718C4853.71 -672.338 4893.41 -694 4933.47 -678.59C4961.08 -667.995 4979.39 -636.373 4976.32 -605.333C4973.3 -574.791 4963.1 -546.296 4952 -518.05C4923.62 -445.762 4899.16 -372.422 4890.42 -294.739C4881.93 -219.407 4885.05 -145.127 4910.78 -72.8934C4916.29 -57.4564 4922.29 -41.9641 4921.1 -25.1161C4918.69 8.7735 4896.53 34.6679 4865.83 39.8412C4834.29 45.153 4803.5 28.5539 4790.38 -2.73517C4767.59 -57.1245 4754.42 -113.948 4750.43 -172.819C4749.25 -190.442 4748.75 -208.12 4748.33 -217.028L4748.36 -217Z" fill="#E95B02"/>
<path d="M3908.73 418.27C3908.35 472.383 3886.79 517.56 3851.77 556.816C3836.36 574.079 3819.9 590.485 3802.94 606.226C3788.03 620.058 3783.74 635.413 3788.58 655.082C3798.99 697.271 3813.95 738.022 3826.76 779.464C3839.32 820.104 3851.52 860.854 3861.18 902.297C3866.79 926.393 3864.8 949.521 3848.84 969.439C3816.64 1009.55 3756.63 1001.39 3734.25 954.113C3731.93 949.189 3729.96 943.988 3728.66 938.703C3710.9 865.779 3686.39 794.873 3664.17 723.304C3657.81 702.777 3652.86 681.917 3649.87 660.56C3642.49 607.941 3656.9 562.1 3692.56 523.065C3706.47 507.849 3721.52 493.657 3736.08 479.05C3744.13 470.972 3751.62 462.479 3758.18 453.128C3768.94 437.829 3773.06 421.23 3768.5 402.833C3766.26 393.759 3765.84 384.519 3766.09 375.224C3767.01 341.611 3786.15 317.016 3817.05 309.713C3846.65 302.714 3878.66 317.819 3893.24 346.397C3904.78 368.999 3908.37 393.538 3908.73 418.27Z" fill="#462A22"/>
<path d="M4223.26 1243.41C4223.2 1288.47 4218.72 1323.16 4212.83 1357.63C4207.54 1388.45 4212.27 1416.86 4227.93 1444C4246.52 1476.21 4269.21 1505.53 4290.51 1535.85C4303.82 1554.8 4317.29 1573.73 4329.18 1593.56C4347.47 1624.05 4346.14 1656.42 4327.28 1678.69C4299.17 1711.86 4248.43 1714.01 4222.9 1678.3C4180.1 1618.43 4133.4 1561.03 4099.23 1495.24C4070.74 1440.32 4067.36 1382.59 4078.62 1323C4091.46 1255.11 4085.37 1188.79 4061.58 1124.06C4054.78 1105.55 4051.04 1086.77 4056.1 1067.15C4062.96 1040.57 4085.54 1020.95 4113.62 1017.22C4138.41 1013.92 4167.12 1028.61 4180.29 1052.32C4192.24 1073.85 4198.38 1097.64 4205.05 1121.13C4217.33 1164.34 4222.81 1208.55 4223.28 1243.43L4223.26 1243.41Z" fill="#462A22"/>
<path d="M3405.86 775.259C3406.97 807.074 3391.92 828.901 3361.32 840.936C3334.02 851.67 3302.31 840.133 3284.05 815.484C3277.47 806.603 3273.18 796.533 3268.95 786.408C3256.25 756.115 3244.24 725.517 3228.39 696.663C3214.26 670.934 3197.1 647.696 3172.54 630.765C3131.12 602.214 3096.68 605.811 3062.29 642.329C3042.18 663.686 3027.66 688.889 3013.44 714.258C3006.41 726.817 2998.63 738.686 2986.82 747.539C2961.29 766.683 2930.52 767.374 2904.63 749.06C2882.3 733.263 2869.8 700.231 2881.58 673.396C2913.07 601.772 2954.73 537.064 3025.66 498.056C3087.41 464.083 3151.1 466.794 3214.01 496.092C3269.34 521.848 3309.73 563.982 3340.79 615.632C3365.61 656.963 3383.37 701.615 3401.05 746.238C3404.81 755.727 3406 765.797 3405.84 775.231L3405.86 775.259Z" fill="#436222"/>
<path d="M5041.84 2314.09C4999.37 2314.56 4964.4 2310.36 4930.46 2299.07C4910.32 2292.38 4892.56 2281.89 4881.74 2263.08C4867.96 2239.15 4867.93 2214.56 4883.4 2191.37C4898.92 2168.11 4922.18 2160.19 4949.21 2162.13C4955.02 2162.55 4960.8 2164.32 4966.45 2165.92C5078.35 2197.79 5174.71 2150.26 5217.4 2041.84C5231.09 2007.04 5238.73 1971.1 5238.59 1933.4C5238.48 1907.28 5244.76 1882.38 5268.05 1866.89C5311.46 1838.01 5365.16 1861.99 5374.17 1913.7C5379.02 1941.45 5376.25 1969.2 5371.8 1996.69C5360.37 2067.35 5335.39 2132.56 5290.68 2189.02C5225.53 2271.3 5138.66 2310.14 5041.81 2314.07L5041.84 2314.09Z" fill="#462A22"/>
<path d="M5194.24 1902.61C5189.26 1992.57 5151.36 2068.51 5082 2128.44C5053.56 2153 5019.34 2154.77 4993.48 2136.32C4964.82 2115.9 4956.49 2081.96 4972.17 2050.25C4978.09 2038.28 4987.42 2029.23 4996.93 2020.24C5027.86 1990.97 5048.22 1955.89 5054.75 1913.42C5056.97 1899.07 5056.36 1884.76 5050.33 1871.26C5044.55 1858.37 5035.33 1854.8 5022.52 1860.83C5003.91 1869.6 4992.87 1885.15 4985.81 1903.93C4981.39 1915.75 4978.09 1928.11 4972.51 1939.37C4951.37 1982 4898.89 1993.13 4865.33 1962.03C4846.63 1944.71 4839.41 1922.17 4844.5 1897.57C4855.57 1844.23 4878.75 1797.2 4922.21 1762.34C4973.17 1721.46 5029.88 1705.88 5092.1 1731.5C5154.24 1757.09 5183.2 1808.41 5192.06 1872.78C5193.3 1881.94 5193.41 1891.24 5194.21 1902.58L5194.24 1902.61Z" fill="#436222"/>
<path d="M4955.08 2873.73C4954.8 2834.03 4958.53 2794.66 4965.23 2755.6C4971.34 2719.94 4991.62 2697.09 5022 2690.42C5065.13 2680.99 5105.68 2717.87 5102.25 2764.18C5100.71 2785.15 5096.64 2805.92 5095.06 2826.89C5084.91 2963.53 5118.24 3087.33 5205.17 3194.97C5214.41 3206.4 5225.25 3216.55 5232.09 3229.89C5248.08 3261.09 5242.54 3295.15 5218.09 3315.01C5192.08 3336.12 5155.12 3335.85 5128.51 3313.38C5105.82 3294.24 5087.92 3270.72 5070.94 3246.57C4995.63 3139.56 4955.41 3009.81 4955.13 2873.76L4955.08 2873.73Z" fill="#462A22"/>
<path d="M3865.71 3.32339C3863.8 100.676 3838.54 191.058 3784.9 272.974C3771.18 293.916 3753.67 309.824 3727.83 312.756C3674.35 318.842 3636.78 266.805 3658.86 217.091C3664.11 205.25 3672.08 194.627 3678.42 183.229C3728.16 93.5942 3742.79 -0.245361 3711.03 -99.1753C3700.38 -132.373 3683.87 -162.583 3660.16 -188.505C3652.44 -196.943 3646.1 -206.322 3641.46 -216.834C3629.06 -244.887 3634.07 -273.243 3655.12 -293.715C3674.63 -312.666 3705.34 -317.147 3731.59 -305.003C3747.33 -297.727 3758.89 -285.471 3769.82 -272.579C3816.41 -217.581 3843.83 -153.592 3857.66 -83.3786C3863.3 -54.8007 3865.93 -25.8908 3865.74 3.32339H3865.71Z" fill="#436222"/>
<path d="M5151.36 2882.91C5151.64 2818.84 5164.97 2763.21 5181.29 2708.18C5195.32 2660.96 5209.73 2613.84 5224.15 2566.73C5234.77 2532.04 5258.37 2511.26 5288.69 2509.38C5331.07 2506.75 5364.43 2542.11 5359.98 2585.27C5357.85 2605.9 5350.88 2625.49 5345.1 2645.27C5329.05 2700.21 5308.99 2754 5297.29 2810.21C5291.95 2835.86 5288.38 2861.67 5289.32 2887.95C5290.6 2923.3 5301.28 2955.76 5320 2985.63C5329.41 3000.63 5339.54 3015.18 5348.33 3030.48C5367.26 3063.35 5364.6 3095.6 5341.83 3119.12C5313.64 3148.22 5267.66 3148.05 5241.68 3115.08C5201.54 3064.12 5169.01 3008.62 5157.09 2943.36C5153.07 2921.34 5151 2899.15 5151.33 2882.91H5151.36Z" fill="#436222"/>
<path d="M5067.73 1490.87C5172.69 1493.99 5261.27 1530.73 5324.93 1617.63C5349.38 1651.05 5365.65 1688.59 5372.93 1729.26C5378.02 1757.75 5374.25 1784.97 5348.25 1803.95C5308.49 1832.92 5260.55 1813.52 5244.04 1772.91C5241.19 1765.91 5239.19 1758.55 5237.09 1751.28C5216.23 1679.16 5160.6 1634.56 5085.43 1629.69C5033.89 1626.34 4985.95 1637.71 4941.8 1664.66C4932.09 1670.58 4922.26 1676.44 4911.34 1679.85C4876.45 1690.66 4842.62 1676.58 4827.07 1644.99C4812.82 1616.05 4822.84 1579.12 4851.77 1559.12C4898.8 1526.56 4950.48 1504.92 5007.25 1496.15C5027.23 1493.05 5047.31 1490.79 5067.7 1490.87H5067.73Z" fill="#E95B02"/>
<path d="M3244.94 245.281C3216.91 245.281 3189.53 241.297 3163 232.085C3146.26 226.275 3132.26 216.675 3121.66 202.234C3104.93 179.411 3103.63 151.967 3118.32 127.428C3132.04 104.522 3160.81 92.1555 3189.5 97.1629C3204.83 99.8464 3219.32 106.126 3235.09 107.067C3266.13 108.893 3294.6 102.253 3318.72 81.7258C3338.67 64.7671 3344.51 37.2682 3332.8 18.0134C3329.76 13.0337 3327.41 8.96695 3320.35 14.4999C3292.27 36.5489 3262.95 38.5961 3237.91 21.1395C3211.58 2.76997 3200.9 -29.1554 3210.22 -61.6617C3220.98 -99.203 3261.32 -128.943 3306.08 -132.346C3378.48 -137.823 3445.04 -89.7693 3468.25 -15.2676C3494.31 68.3913 3459.95 156.504 3381.58 206.467C3339.94 233.025 3294.13 245.17 3244.94 245.226V245.281Z" fill="#436222"/>
<path d="M5466.02 436.032C5466.16 454.595 5465.83 473.075 5458.16 490.587C5444.44 521.903 5416.11 538.752 5385.74 533.385C5352.82 527.575 5329.58 500.519 5328.3 466.076C5327.67 448.84 5329.66 431.55 5326.81 414.397C5326.26 411.078 5325.98 407.702 5325.34 404.41C5308.44 315.772 5231.59 278.756 5143.5 316.685C5128.67 323.075 5116.06 333.035 5102.12 340.836C5076.22 355.277 5049.91 357.159 5024.54 340.089C4986.14 314.223 4986.03 259.474 5024.27 228.71C5052.1 206.302 5083.36 189.952 5117.58 179.605C5185.11 159.243 5252.25 158.413 5317.54 187.462C5398.85 223.647 5442.15 289.711 5459.99 374.588C5464.25 394.811 5466.33 415.338 5466.05 436.059L5466.02 436.032Z" fill="#462A22"/>
<path d="M3970.48 1392.19C3969.18 1410.47 3967.46 1428.62 3958.55 1445.25C3942.65 1475.02 3913.49 1489.43 3884 1481.82C3852.04 1473.58 3831.27 1445.19 3832.65 1411.19C3833.34 1394.21 3836.64 1377.33 3835.14 1360.21C3834.86 1356.89 3834.84 1353.57 3834.45 1350.28C3824.6 1261.75 3751.84 1219.45 3662.21 1249.99C3647.13 1255.14 3633.93 1263.99 3619.63 1270.57C3593.04 1282.8 3566.98 1282.63 3543.33 1263.88C3507.5 1235.49 3511.63 1181.6 3551.6 1154.24C3580.71 1134.32 3612.72 1120.63 3647.21 1113.08C3715.21 1098.19 3781.39 1102.56 3843.41 1136.15C3920.65 1177.98 3958.19 1246.31 3969.23 1331.21C3971.86 1351.47 3972.36 1371.8 3970.48 1392.16V1392.19Z" fill="#E95B02"/>
<path d="M5061.64 2506.84C4978.73 2504.1 4897.09 2493.28 4819.79 2461.22C4752.02 2433.11 4699.59 2388.74 4675.58 2316.64C4662.93 2278.74 4660.56 2239.81 4666.86 2200.59C4675.47 2147.08 4733.34 2122.1 4775.28 2153.69C4794.01 2167.8 4801.73 2187.92 4802.73 2210.9C4803.33 2224.79 4800.79 2238.54 4802.23 2252.51C4805.02 2279.96 4817.78 2301.01 4840.32 2316.45C4874.9 2340.1 4914.6 2349.78 4954.8 2357.67C4997.43 2366.02 5040.51 2370.89 5084.05 2370.37C5094.26 2370.26 5104.16 2371.69 5113.93 2374.57C5150 2385.14 5165.55 2412.94 5163.92 2444.54C5162.23 2476.52 5134.26 2503.49 5100.79 2506.62C5087.84 2507.83 5074.7 2506.81 5061.64 2506.81V2506.84Z" fill="#E95B02"/>
<path d="M2538.32 59.5386C2537.9 -14.3268 2557.74 -83.4615 2588.2 -149.996C2613.51 -205.298 2644.72 -257.198 2679.11 -307.243C2685.61 -316.705 2693.35 -324.921 2702.73 -331.589C2730.23 -351.231 2761.16 -351.148 2785.81 -331.34C2809.35 -312.444 2817.1 -277.946 2803.51 -248.732C2798.76 -238.496 2792.28 -228.979 2786.03 -219.546C2750.81 -166.456 2718.58 -111.79 2696.78 -51.5639C2675.37 7.63916 2668.54 67.6721 2684.78 129.476C2691.11 153.572 2690 177.336 2674.13 198.112C2657.91 219.359 2636.03 228.599 2609.67 223.951C2582.42 219.165 2564.27 202.124 2555.55 176.368C2545.4 146.351 2540.31 115.145 2538.4 83.4965C2537.93 75.529 2538.32 67.5061 2538.32 59.5109V59.5386Z" fill="#462A22"/>
<path d="M3414.38 1041.37C3372.88 1037.97 3331.36 1034.67 3290.33 1026.76C3224.99 1014.17 3174.97 979.897 3140.08 923.294C3115.57 883.512 3090.26 844.836 3056.84 811.085C3020.1 773.986 3037.45 712.902 3086 699.374C3108.32 693.149 3129.54 697.576 3148.13 711.74C3185.29 740.097 3211.71 777.527 3236.03 816.701C3241.37 825.277 3247.12 833.66 3251.82 842.568C3268.86 874.936 3296.45 890.594 3331.89 894.412C3361.6 897.621 3391.25 901.134 3420.97 904.371C3435.38 905.948 3448.94 910.015 3461.66 917.042C3489.55 932.479 3498.73 962.717 3493.45 988.002C3487.28 1017.58 3461.99 1038.99 3432.06 1041.26C3426.2 1041.7 3420.27 1041.31 3414.38 1041.31V1041.37Z" fill="#E95B02"/>
<path d="M3130.01 1003.14C3130.21 1035.7 3113.97 1060.48 3090.34 1070.2C3062.37 1081.7 3037.45 1075.12 3015.56 1055.62C3009.67 1050.39 3004.47 1043.89 3000.51 1037.05C2975.04 993.176 2937.24 963.491 2892.62 941.11C2855.38 922.436 2817.82 904.316 2782.57 881.824C2751.45 861.961 2723.15 839.027 2700.49 809.619C2689.48 795.316 2681.48 779.658 2680.6 761.343C2679.16 731.382 2693.77 707.867 2720.68 695.777C2745.97 684.407 2778.03 688.28 2796.96 711.989C2834.28 758.743 2885.9 783.005 2936.83 808.983C2981.98 832.027 3025.99 856.594 3062.15 893.029C3083.65 914.718 3101.6 939.035 3117.4 965.013C3125.92 978.984 3129.88 994.365 3129.99 1003.14H3130.01Z" fill="#462A22"/>
<path d="M5505.77 804.114C5531.42 804.612 5561.85 810.504 5589.77 825.748C5625.45 845.224 5638.04 885.338 5620 919.643C5607.06 944.32 5577.1 958.788 5548.32 953.56C5538.86 951.844 5529.71 948.386 5520.44 945.648C5486.85 935.688 5452.16 948.967 5433.93 978.79C5425.1 993.204 5429.83 1006.12 5446.32 1010.88C5469.89 1017.66 5490.03 1027.95 5499.05 1053.18C5513.96 1094.93 5490.28 1137.31 5446.35 1144.45C5404.33 1151.28 5369.33 1135.07 5339.65 1106.8C5283.21 1053.04 5275.24 963.713 5320.39 900.277C5365.51 836.869 5426.49 804.197 5505.75 804.114H5505.77Z" fill="#436321"/>
<path d="M4676.99 1937.82C4677.79 1870.21 4690.74 1806.03 4712.12 1743.56C4727.03 1699.99 4767.15 1681.07 4806.29 1697.33C4836.06 1709.7 4852.44 1743.56 4844.31 1778.28C4837.39 1807.74 4827.21 1836.43 4822.09 1866.37C4815.87 1902.61 4811.99 1938.9 4818.25 1975.59C4821.54 1994.81 4829.2 2009.09 4849.31 2017.5C4901.6 2039.38 4902.43 2093.52 4879.27 2121.49C4861.62 2142.82 4838.41 2151.07 4811.61 2146.47C4760.34 2137.7 4725.15 2107.22 4702.38 2061.6C4682.74 2022.26 4677.18 1979.9 4676.99 1937.8V1937.82Z" fill="#462A22"/>
<path d="M3843.69 649.383C3843.19 608.827 3868.12 578.727 3903.14 574.245C3937.7 569.819 3970.26 592.311 3978.36 629.16C3988.21 673.922 3995.65 719.237 4004.37 764.248C4011.48 801.015 4018.78 837.754 4029.79 873.636C4034.99 890.65 4042.13 906.225 4054.72 919.698C4080.7 947.473 4082.61 984.046 4061 1010.11C4038.62 1037.11 4000.5 1042.5 3968.27 1023.16C3942.65 1007.78 3926.6 984.406 3914.49 957.958C3896.86 919.421 3886.88 878.477 3878.52 837.228C3867.1 780.737 3856.67 724.023 3845.96 667.393C3844.63 660.394 3844.16 653.229 3843.69 649.411V649.383Z" fill="#436321"/>
<path d="M2633.93 689.968C2595.7 690.189 2566.37 666.785 2561.34 633.753C2556.06 599.061 2576.56 567.495 2612.05 556.429C2627.71 551.532 2643.89 548.24 2659.41 542.929C2720.08 522.208 2772.09 488.373 2813.34 438.825C2822.28 428.091 2828.92 415.863 2835.8 403.774C2854.62 370.714 2882.09 356.384 2913.57 362.83C2951.14 370.521 2974.27 405.461 2965.86 443.196C2958.97 473.988 2941.51 499.716 2921.95 523.453C2850.49 610.155 2758.78 663.991 2649.45 688.474C2646.99 689.027 2644.47 689.276 2641.96 689.498C2638.61 689.774 2635.23 689.913 2633.93 689.968Z" fill="#E95B02"/>
<path d="M2866.84 215.293C2865.12 283.099 2833.97 337.018 2786.5 382.666C2737.23 430.028 2678.52 461.455 2613.26 480.517C2568.94 493.464 2530.07 471.913 2520.67 430.858C2513.61 400.122 2530.65 367.754 2561.97 353.756C2573.48 348.61 2585.65 345.014 2597.44 340.449C2633.18 326.672 2665.88 307.97 2693.32 280.886C2714.71 259.806 2728.29 235.654 2729.98 204.393C2731.61 174.348 2743.01 148.343 2774.58 137.25C2814.55 123.196 2854.17 145.051 2864.21 186.383C2866.51 195.872 2867.06 205.527 2866.84 215.265V215.293Z" fill="#436321"/>
<path d="M2991.22 -268.374C2991.61 -256.257 2989.09 -244.693 2983.45 -234.18C2942.25 -157.327 2939.21 -74.6917 2946.27 9.46509C2947.34 22.4953 2948.92 35.5532 2946.57 48.5004C2940.15 83.8562 2913.26 107.537 2879.76 107.759C2846.89 107.98 2816.71 83.9669 2812.45 49.026C2800.14 -52.2831 2800.75 -152.873 2839.59 -249.59C2849.27 -273.686 2858.37 -298.308 2878.26 -316.926C2900.54 -337.758 2925.77 -342.157 2952.85 -329.984C2978.72 -318.365 2990.83 -296.62 2991.19 -268.374H2991.22Z" fill="#E95B02"/>
<path d="M4909.35 2995.12C4909.96 3031.89 4882.15 3060.66 4846.44 3063.54C4833.68 3064.56 4821.26 3062.49 4808.92 3059.58C4711.76 3036.68 4624.81 2993.35 4548.07 2929.45C4529.29 2913.79 4515.4 2895.31 4513.85 2869.97C4510.67 2818.26 4564.75 2783.57 4612.11 2806.72C4622.07 2811.59 4630.4 2818.68 4638.87 2825.62C4698.1 2874.25 4764.96 2907.51 4839.58 2925.05C4851.09 2927.76 4862.35 2931.02 4872.75 2936.92C4896.7 2950.44 4910.54 2969.92 4909.35 2995.15V2995.12Z" fill="#436321"/>
<path d="M4838.11 2851.07C4816 2849.83 4790.33 2845.43 4765.07 2838.62C4696.63 2820.14 4632.78 2791.62 4574.13 2751.64C4564.67 2745.2 4556.09 2737.87 4549.01 2728.82C4527.62 2701.57 4525.8 2673.1 4546.96 2643.92C4566.24 2617.33 4603.07 2611.08 4633.55 2626.79C4641.02 2630.64 4648.02 2635.37 4655.08 2639.96C4714.39 2678.66 4778.27 2705.08 4848.98 2714.41C4895.76 2720.58 4923.04 2755.82 4914.77 2797.4C4908.29 2830.02 4879.02 2851.68 4838.05 2851.13L4838.11 2851.07Z" fill="#462A22"/>
<path d="M3392.61 567.495C3394.02 505.747 3424.59 458.412 3472.26 420.539C3506.81 393.068 3545.9 372.955 3586.68 357.02C3634.46 338.319 3669.68 360.976 3681.82 397.743C3692.11 428.921 3677.29 461.815 3646.63 478.94C3625.72 490.614 3603.97 500.823 3582.78 512.082C3568.98 519.414 3556.47 528.598 3545.41 539.802C3533.12 552.224 3528.53 565.974 3533.37 583.43C3539.76 606.337 3537.97 628.69 3523.08 648.332C3492.62 688.529 3433.83 683.909 3409.43 639.286C3397.45 617.43 3393.33 593.417 3392.61 567.523V567.495Z" fill="#E95B02"/>
<path d="M5148.09 1086.74C5102.48 1086.93 5071.02 1045.3 5082.5 1001.36C5084.41 994.089 5087.32 986.979 5090.64 980.228C5117.19 926.448 5137.17 870.288 5152.33 812.357C5155.12 801.734 5159.02 791.581 5164.92 782.202C5182.73 753.929 5213.63 741.978 5243.21 752.02C5273.33 762.228 5292.59 792.605 5289.41 825.194C5287.47 845.002 5281.61 863.925 5275.85 882.82C5260.69 932.783 5242.9 981.778 5220.25 1028.89C5212.19 1045.63 5203.4 1061.84 5187.79 1073.18C5175.46 1082.15 5161.95 1087.07 5148.07 1086.71L5148.09 1086.74Z" fill="#BA3A2B"/>
<path d="M5277.32 601.08C5276.96 615.826 5276.99 633.144 5272.86 650.02C5261.24 697.631 5217.62 721.036 5176.67 701.864C5150.72 689.691 5134.9 661.722 5138.02 628.524C5141.87 587.912 5135.76 548.794 5123.89 510.312C5119.54 496.285 5113.54 482.757 5108.45 468.952C5100.68 447.955 5099.38 426.902 5110.08 406.568C5121.98 383.966 5140.93 370.852 5166.63 370.133C5194.74 369.331 5216.32 382.499 5229.98 406.623C5247.3 437.221 5257.26 470.806 5265.31 504.889C5272.59 535.68 5277.15 566.859 5277.35 601.108L5277.32 601.08Z" fill="#436321"/>
<path d="M3682.9 893.859C3683.29 945.648 3662.62 975.498 3630.06 983.051C3590.22 992.291 3551.94 967.724 3547.48 926.282C3542.53 880.137 3519.13 847.935 3482.58 821.957C3437.65 790.032 3439.73 727.592 3485.79 703.966C3506.01 693.592 3527.98 692.015 3547.87 702.943C3628.18 747.096 3671.37 816.507 3682.9 893.831V893.859Z" fill="#436321"/>
<path d="M4139.93 357.075C4138.96 362.608 4137.46 373.01 4135.31 383.302C4126.12 427.012 4108.33 467.486 4086.37 505.968C4063.9 545.308 4021.13 556.401 3986.11 533.661C3961.63 517.753 3950.73 485.275 3959.99 455.48C3964.78 440.126 3973.05 426.293 3979.86 411.852C3989.76 390.799 3997.73 369.193 4002.32 346.341C4004.42 335.967 4008.02 326.091 4013.33 316.878C4030.12 287.747 4059.37 274.302 4088.83 282.242C4119.73 290.569 4140.54 318.981 4139.95 357.075H4139.93Z" fill="#462A22"/>
<path d="M5194.65 2408.82C5195.37 2389.07 5202.26 2371.89 5216.26 2357.78C5244.73 2329.09 5273.17 2300.4 5301.69 2271.8C5309.77 2263.69 5318.95 2257.05 5329.35 2252.18C5358.18 2238.68 5387.98 2243.58 5408.36 2265.27C5428.56 2286.73 5431.96 2320.65 5416.25 2347.32C5412.65 2353.43 5408.39 2359.41 5403.44 2364.45C5374.86 2393.58 5346.34 2422.85 5317.04 2451.23C5296.6 2471.04 5272.36 2481.11 5243.29 2473.33C5214.05 2465.51 5194.07 2438.92 5194.65 2408.79V2408.82Z" fill="#462A22"/>
<path d="M3776.91 2236.69C3874.57 2243.96 3968.35 2265.38 4053.62 2315.81C4150.14 2372.88 4201.01 2459.42 4215.12 2569.19C4226.6 2658.69 4217.81 2747.38 4203.95 2835.83C4197.17 2879.1 4188.48 2922 4177.66 2964.47C4173.07 2982.54 4164.3 2998.14 4149.39 3009.65C4127.95 3026.22 4098.1 3028.27 4075.66 3015.15C4051.1 3000.79 4037.07 2972.16 4042.38 2942.86C4049.05 2906.01 4057.99 2869.58 4064.6 2832.7C4077.35 2761.69 4085.37 2690.2 4081.39 2617.86C4080.2 2595.95 4077.02 2574.34 4071.93 2552.95C4059.84 2502.41 4031.4 2463.82 3987.19 2436.82C3932.25 2403.26 3871.61 2386.88 3808.5 2378.06C3793.92 2376.01 3779.15 2375.04 3764.63 2372.66C3731.29 2367.18 3708.38 2347.18 3702.63 2319.35C3693.97 2277.44 3721.44 2240.53 3764.29 2236.72C3768.47 2236.36 3772.7 2236.66 3776.91 2236.66V2236.69Z" fill="#436222"/>
<path d="M3120.03 3065.28C3120.97 2963.53 3138.93 2865.18 3178.85 2771.23C3184.32 2758.34 3191.13 2746.47 3201.01 2736.26C3225.9 2710.59 3254.51 2708.32 3282.87 2722.84C3310.5 2737.01 3322.95 2770.76 3313.93 2802.33C3310.95 2812.81 3306.22 2822.8 3302.32 2833.01C3250.47 2968.54 3240.76 3105.53 3287.63 3244.58C3296.53 3271 3309.37 3295.68 3321.24 3320.82C3334.77 3349.51 3334.05 3377.62 3312.72 3402.38C3282.95 3436.88 3229.31 3431.29 3203.88 3390.57C3181.72 3355.07 3166.04 3316.34 3153.12 3276.56C3130.82 3207.92 3119.48 3137.54 3120.03 3065.28Z" fill="#E95B02"/>
<path d="M3650.42 2611.44C3692.89 2610.97 3727.86 2615.17 3761.8 2626.46C3781.94 2633.15 3799.7 2643.64 3810.52 2662.45C3824.3 2686.38 3824.33 2710.98 3808.86 2734.16C3793.34 2757.43 3770.07 2765.34 3743.05 2763.4C3737.24 2762.99 3731.45 2761.22 3725.81 2759.61C3613.91 2727.74 3517.55 2775.27 3474.86 2883.69C3461.17 2918.49 3453.53 2954.43 3453.67 2992.14C3453.78 3018.25 3447.5 3043.15 3424.21 3058.64C3380.8 3087.52 3327.1 3063.54 3318.08 3011.83C3313.24 2984.08 3316.01 2956.34 3320.46 2928.84C3331.89 2858.18 3356.87 2792.98 3401.58 2736.51C3466.73 2654.24 3553.6 2615.39 3650.45 2611.47L3650.42 2611.44Z" fill="#462A22"/>
<path d="M3498.02 3022.93C3503 2932.96 3540.9 2857.02 3610.25 2797.1C3638.69 2772.53 3672.91 2770.76 3698.78 2789.21C3727.44 2809.63 3735.77 2843.57 3720.08 2875.28C3714.16 2887.26 3704.84 2896.3 3695.32 2905.29C3664.39 2934.56 3644.03 2969.64 3637.5 3012.11C3635.29 3026.47 3635.9 3040.77 3641.93 3054.27C3647.71 3067.16 3656.92 3070.73 3669.73 3064.7C3688.35 3055.93 3699.39 3040.38 3706.44 3021.6C3710.87 3009.79 3714.16 2997.42 3719.75 2986.16C3740.89 2943.53 3793.37 2932.41 3826.92 2963.5C3845.63 2980.82 3852.85 3003.37 3847.76 3027.96C3836.69 3081.3 3813.51 3128.33 3770.05 3163.19C3719.09 3204.08 3662.37 3219.65 3600.15 3194.03C3538.02 3168.44 3509.05 3117.13 3500.2 3052.75C3498.96 3043.59 3498.85 3034.3 3498.04 3022.95L3498.02 3022.93Z" fill="#436222"/>
<path d="M3737.18 2051.8C3737.46 2091.5 3733.72 2130.87 3727.03 2169.93C3720.92 2205.59 3700.64 2228.44 3670.26 2235.11C3627.13 2244.54 3586.57 2207.67 3590 2161.36C3591.55 2140.39 3595.62 2119.61 3597.2 2098.64C3607.35 1962 3574.01 1838.2 3487.09 1730.56C3477.85 1719.13 3467.01 1708.98 3460.17 1695.64C3444.18 1664.44 3449.72 1630.38 3474.17 1610.52C3500.18 1589.41 3537.14 1589.69 3563.75 1612.15C3586.44 1631.3 3604.33 1654.81 3621.32 1678.96C3696.63 1785.97 3736.85 1915.72 3737.13 2051.78L3737.18 2051.8Z" fill="#462A22"/>
<path d="M3540.9 2042.62C3540.62 2106.69 3527.29 2162.32 3510.96 2217.35C3496.94 2264.57 3482.52 2311.69 3468.11 2358.8C3457.49 2393.49 3433.89 2414.27 3403.57 2416.15C3361.19 2418.78 3327.82 2383.42 3332.28 2340.27C3334.41 2319.63 3341.38 2300.04 3347.16 2280.26C3363.21 2225.32 3383.26 2171.54 3394.97 2115.32C3400.3 2089.68 3403.87 2063.87 3402.93 2037.58C3401.66 2002.23 3390.98 1969.78 3372.25 1939.9C3362.85 1924.9 3352.72 1910.35 3343.92 1895.05C3325 1862.19 3327.66 1829.93 3350.42 1806.41C3378.62 1777.31 3424.59 1777.48 3450.57 1810.45C3490.71 1861.41 3523.25 1916.91 3535.17 1982.17C3539.18 2004.19 3541.26 2026.38 3540.93 2042.62H3540.9Z" fill="#436222"/>
<path d="M3630.62 2418.7C3713.53 2421.43 3795.17 2432.25 3872.47 2464.32C3940.25 2492.42 3992.67 2536.8 4016.68 2608.89C4029.33 2646.79 4031.71 2685.72 4025.4 2724.95C4016.8 2778.45 3958.92 2803.43 3916.98 2771.84C3898.25 2757.73 3890.53 2737.62 3889.54 2714.63C3888.93 2700.74 3891.47 2686.99 3890.03 2673.02C3887.24 2645.58 3874.49 2624.52 3851.94 2609.09C3817.36 2585.43 3777.66 2575.75 3737.46 2567.87C3694.83 2559.51 3651.76 2554.64 3608.21 2555.17C3598 2555.28 3588.1 2553.84 3578.33 2550.96C3542.26 2540.39 3526.71 2512.59 3528.34 2481C3530.03 2449.02 3558 2422.04 3591.47 2418.92C3604.42 2417.7 3617.56 2418.72 3630.62 2418.72V2418.7Z" fill="#E95B02"/>
<path d="M3163.69 2454.3C3165.68 2411.92 3157.99 2370.56 3149.91 2329.23C3139.12 2274.01 3132.12 2218.62 3143.47 2162.52C3154.84 2106.17 3181.48 2057.42 3218.66 2014.37C3241.51 1987.9 3273.52 1979.99 3300.46 1991.85C3336.62 2007.79 3351.48 2045.77 3335.74 2082.18C3332.2 2090.37 3327.66 2098 3321.88 2104.7C3277.7 2155.93 3267.32 2214.72 3280.77 2279.74C3289.45 2321.76 3297.7 2363.95 3301.24 2406.83C3303.7 2436.71 3304.48 2466.67 3299.63 2496.3C3294.88 2525.51 3279.33 2547.12 3249.98 2555.86C3223.8 2563.63 3200.62 2557.1 3182.33 2536.8C3169.83 2522.94 3163.36 2506.17 3163.66 2487.14C3163.83 2476.21 3163.69 2465.26 3163.69 2454.33V2454.3Z" fill="#E95B02"/>
<path d="M4015.27 2987.71C4014.47 3055.32 4001.52 3119.5 3980.14 3181.97C3965.23 3225.54 3925.11 3244.47 3885.97 3228.2C3856.2 3215.83 3839.82 3181.97 3847.96 3147.25C3854.87 3117.79 3865.05 3089.1 3870.17 3059.17C3876.4 3022.93 3880.27 2986.63 3874.02 2949.95C3870.73 2930.72 3863.06 2916.44 3842.95 2908.03C3790.66 2886.15 3789.83 2832.01 3812.99 2804.04C3830.64 2782.71 3853.85 2774.47 3880.66 2779.06C3931.92 2787.83 3967.11 2818.32 3989.88 2863.94C4009.52 2903.28 4015.08 2945.63 4015.27 2987.74V2987.71Z" fill="#462A22"/>
<path d="M2936.14 2930.72C2940.84 2820.7 2981.43 2716.2 3061.71 2627.79C3081.99 2605.43 3106.58 2593.73 3137.43 2601.78C3180.56 2613.01 3199.9 2662.95 3176.66 2702.29C3169.74 2713.99 3160.12 2723.51 3151.73 2734.05C3098.26 2801.19 3070.51 2876.86 3075.38 2963.42C3075.96 2973.93 3075.41 2984.33 3073.25 2994.79C3066.33 3028.15 3041.27 3045.92 3012.41 3047.96C2980.4 3050.23 2953.49 3030.7 2943.42 2999.63C2937.11 2980.16 2936.83 2959.88 2936.17 2930.72H2936.14Z" fill="#E95B02"/>
<path d="M3804.13 1376.83C3840.54 1376.45 3876.42 1380.71 3911.53 1390.42C3945.89 1399.93 3967.8 1424.03 3970.09 1453.91C3973.77 1501.71 3931.67 1536.24 3882.01 1524.43C3835.34 1513.33 3788.89 1511.09 3741.88 1520.88C3708.36 1527.86 3677.78 1541.11 3651.01 1562.74C3645.78 1566.97 3640.24 1570.9 3634.49 1574.36C3599.8 1595.22 3561.18 1589 3539.57 1559.26C3518.66 1530.46 3525.02 1489.57 3554.54 1463.87C3596.28 1427.54 3644.2 1403.03 3697.87 1389.67C3732.76 1380.98 3768.14 1376.39 3804.13 1376.83Z" fill="#E95B02"/>
<path d="M3782.91 1930.41C3782.3 1893.64 3810.11 1864.87 3845.82 1861.99C3858.57 1860.97 3871 1863.05 3883.33 1865.95C3980.49 1888.86 4067.45 1932.18 4144.19 1996.09C4162.97 2011.74 4176.86 2030.22 4178.41 2055.57C4181.59 2107.27 4127.51 2141.96 4080.14 2118.81C4070.18 2113.94 4061.86 2106.86 4053.39 2099.91C3994.16 2051.28 3927.29 2018.02 3852.68 2000.48C3841.17 1997.77 3829.91 1994.51 3819.51 1988.62C3795.55 1975.09 3781.72 1955.61 3782.91 1930.38V1930.41Z" fill="#436321"/>
<path d="M3854.15 2074.46C3876.26 2075.71 3901.93 2080.1 3927.19 2086.91C3995.63 2105.39 4059.48 2133.91 4118.13 2173.89C4127.59 2180.33 4136.17 2187.67 4143.25 2196.71C4164.64 2223.96 4166.46 2252.43 4145.3 2281.62C4126.02 2308.2 4089.19 2314.45 4058.71 2298.74C4051.24 2294.9 4044.24 2290.16 4037.18 2285.57C3977.87 2246.87 3913.99 2220.45 3843.28 2211.13C3796.5 2204.96 3769.22 2169.71 3777.49 2128.13C3783.97 2095.51 3813.24 2073.85 3854.21 2074.41L3854.15 2074.46Z" fill="#462A22"/>
<path d="M3831.71 1613.81C3831.8 1576.19 3853.51 1548.77 3886.55 1541.74C3916.78 1535.3 3949.35 1552.45 3962.13 1583.27C3969.35 1600.7 3973.77 1619.26 3979.78 1637.19C3986.56 1657.52 3993.36 1677.88 4000.78 1698C4008.52 1719.05 4018.92 1738.19 4035.19 1754.57C4069.63 1789.26 4059.62 1830.48 4035.52 1853.31C4015.8 1871.98 3983.76 1876.16 3957.76 1863.29C3933.58 1851.34 3916.04 1832.23 3902.23 1809.62C3874.51 1764.28 3859.3 1713.85 3843.67 1663.64C3838.3 1646.4 3832.24 1629.28 3831.77 1613.78L3831.71 1613.81Z" fill="#462A22"/>
<path d="M3664.78 1632.04C3665.06 1596.55 3685.5 1570.1 3718.12 1563.05C3748.66 1556.43 3782.36 1573.64 3794.72 1605.32C3816.49 1660.98 3837.3 1717.03 3856.86 1773.49C3868.42 1806.88 3858.08 1837.54 3832.76 1855.99C3796.52 1882.41 3746.61 1865.67 3728.49 1820.44C3714.88 1786.44 3702.07 1752.11 3689.21 1717.83C3682.4 1699.71 3676.04 1681.4 3669.87 1663.05C3666.5 1653.07 3664.48 1642.72 3664.78 1632.04Z" fill="#E95B02"/>
<path d="M3497.61 2516.71C3496.89 2536.47 3490 2553.65 3476 2567.75C3447.53 2596.44 3419.09 2625.13 3390.57 2653.74C3382.49 2661.84 3373.31 2668.48 3362.91 2673.35C3334.08 2686.85 3304.29 2681.96 3283.9 2660.27C3263.7 2638.8 3260.3 2604.88 3276.01 2578.21C3279.61 2572.1 3283.87 2566.12 3288.82 2561.09C3317.4 2531.96 3345.92 2502.69 3375.22 2474.3C3395.66 2454.49 3419.9 2444.42 3448.97 2452.2C3478.21 2460.03 3498.19 2486.61 3497.61 2516.74V2516.71Z" fill="#462A22"/>
<path d="M1064.78 2761.6C1064.55 2811.34 1035.73 2840.92 993.234 2838.65C964.103 2837.1 938.43 2813.95 930.324 2781.52C924.929 2759.89 920.613 2737.95 914.555 2716.51C904.54 2681.1 890.459 2647.32 870.153 2616.42C830.038 2555.33 771.638 2527.42 700.29 2525.81C614.169 2523.85 536.734 2553.12 463.616 2595.86C439.215 2610.11 416.807 2627.32 393.485 2643.22C372.294 2657.67 349.221 2664.22 324.101 2655.04C301.112 2646.65 285.62 2630.33 281.166 2606.1C276.131 2578.71 284.734 2554.72 306.673 2537.41C367.203 2489.66 432.576 2450.26 505.335 2423.62C570.43 2399.77 637.103 2385.44 706.763 2388.35C839.306 2393.88 938.54 2454 1002.89 2570.33C1033.35 2625.38 1051.63 2684.83 1063.34 2746.41C1064.5 2752.58 1064.53 2758.97 1064.78 2761.58V2761.6Z" fill="#E95B02"/>
<path d="M134.098 1720.79C179.358 1720.71 210.454 1763.92 197.396 1809.02C192.333 1826.5 183.231 1842.3 176.039 1858.9C116.808 1995.51 81.7563 2137.84 74.8677 2286.76C73.1248 2324.69 74.6187 2362.54 83.1672 2399.83C92.2966 2439.67 112.63 2469.18 154.017 2480.69C162.925 2483.18 171.059 2487.91 178.611 2493.42C207.217 2514.22 217.453 2546.34 204.644 2575.45C191.143 2606.15 158.222 2623 124.139 2614.65C51.4078 2596.78 -2.06868 2554.75 -32.8045 2485.59C-54.5768 2436.59 -61.9079 2384.61 -63.1251 2331.63C-65.7533 2218.68 -47.0795 2108.49 -18.5569 1999.68C2.1088 1920.87 29.3864 1844.43 64.7422 1770.92C74.342 1750.95 87.1509 1734.32 108.204 1725.47C116.476 1721.98 125.163 1720.63 134.126 1720.74L134.098 1720.79Z" fill="#462A22"/>
<path d="M123.031 2652.44C279.062 2660.82 391.188 2737.42 461.567 2877.13C471.969 2897.77 481.874 2918.93 485.857 2942.01C494.738 2993.41 449.561 3035.4 401.036 3020.69C378.849 3013.94 363.55 2998.69 354.559 2977.33C346.869 2959.1 340.257 2940.35 330.519 2923.08C292.839 2856.19 238.588 2810.24 161.928 2795.63C54.7265 2775.19 -52.7794 2835.19 -93.3639 2936.56C-98.5373 2949.45 -101.995 2963.03 -107.528 2975.73C-118.373 3000.6 -133.672 3021.65 -163.107 3025.42C-213.9 3031.86 -250.916 2990.45 -239.214 2939.68C-230.665 2902.56 -216.86 2867.03 -196.665 2834.69C-123.353 2717.2 -15.9298 2658.91 123.059 2652.46L123.031 2652.44Z" fill="#436222"/>
<path d="M321.393 3104.04C321.116 3167.03 302.332 3224.91 269.549 3278.38C252.258 3306.6 222.85 3320.63 196.264 3315.34C151.17 3306.38 128.015 3262.48 146.246 3219.6C151.834 3206.46 159.359 3194.14 165.335 3181.11C181.74 3145.34 188.739 3108.27 179.499 3069.21C175.875 3053.83 169.318 3039.77 158.972 3027.68C136.148 3001.04 101.594 2998.89 76.696 3023.65C51.5209 3048.68 44.7984 3080.11 48.7545 3114.47C50.525 3129.91 53.5958 3145.23 50.276 3160.92C43.5534 3192.65 19.9829 3214.23 -11.4722 3216.94C-39.8841 3219.4 -70.1219 3201.31 -79.2513 3172.04C-114.441 3059.11 -64.672 2926.29 46.0432 2882C135.346 2846.29 234.193 2882.14 285.732 2968.56C310.548 3010.17 321.337 3055.54 321.337 3104.01L321.393 3104.04Z" fill="#BA3A2B"/>
<path d="M167.516 2222.8C167.793 2105.11 193.161 2001.37 231.892 1900.39C242.875 1871.7 253.499 1843.02 261.162 1813.08C272.864 1767.46 312.563 1745.8 352.622 1761.21C380.232 1771.81 398.546 1803.43 395.475 1834.47C392.46 1865.01 382.251 1893.5 371.158 1921.75C342.773 1994.04 318.318 2067.38 309.575 2145.06C301.082 2220.39 304.209 2294.67 329.937 2366.91C335.442 2382.34 341.446 2397.84 340.256 2414.68C337.849 2448.57 315.69 2474.47 284.981 2479.64C253.443 2484.95 222.652 2468.35 209.539 2437.07C186.743 2382.68 173.575 2325.85 169.591 2266.98C168.401 2249.36 167.903 2231.68 167.488 2222.77L167.516 2222.8Z" fill="#E95B02"/>
<path d="M681.807 2169.1C778.468 2170.85 866.72 2192.4 944.015 2249.36C963.768 2263.91 981.584 2280.68 995.749 2300.82C1020.15 2335.56 1014.28 2377.36 982.11 2400.49C956.741 2418.72 916.434 2418.89 896.653 2392.83C815.484 2285.79 602.16 2285.96 490.144 2358.83C479.853 2365.52 469.063 2371.03 457.029 2374.04C425.602 2381.93 396.664 2371 381.31 2345.19C365.375 2318.44 369.663 2284.49 392.155 2261.39C405.24 2247.95 421.341 2238.57 437.553 2229.66C514.296 2187.53 597.401 2171.07 681.807 2169.1Z" fill="#462A22"/>
<path d="M885.169 2875.83C885.308 2894.39 884.976 2912.88 877.313 2930.39C863.591 2961.7 835.262 2978.55 804.886 2973.18C771.964 2967.37 748.726 2940.32 747.453 2905.88C746.817 2888.64 748.809 2871.35 745.959 2854.2C745.406 2850.88 745.129 2847.5 744.493 2844.21C727.59 2755.57 650.737 2718.56 562.651 2756.49C547.823 2762.88 535.208 2772.83 521.264 2780.64C495.37 2795.08 469.061 2796.96 443.692 2779.89C405.293 2754.02 405.182 2699.27 443.415 2668.51C471.246 2646.1 502.508 2629.75 536.729 2619.41C604.259 2599.04 671.402 2598.21 736.691 2627.26C817.999 2663.45 861.295 2729.51 879.139 2814.39C883.399 2834.61 885.474 2855.14 885.197 2875.86L885.169 2875.83Z" fill="#462A22"/>
<path d="M793.384 1809.49C832.613 1810.68 873.889 1829.29 906.893 1865.04C935.942 1896.55 935.887 1938.76 908.111 1966.12C883.295 1990.55 845.339 1991.19 816.125 1967.62C809.568 1962.33 803.565 1956.22 796.483 1951.82C784.227 1944.24 775.402 1947.34 770.948 1961.03C763.285 1984.58 768.015 2006.82 780.354 2027.68C785.693 2036.73 792.305 2045.08 797.313 2054.32C814.52 2086.14 806.663 2124.31 779.386 2143.87C750.476 2164.59 711.994 2161.66 687.925 2133.5C632.042 2068.1 613.313 1993.6 642.361 1911.02C664.576 1847.91 720.377 1809.37 793.412 1809.49H793.384Z" fill="#436321"/>
<path d="M427.317 2018.02C428.119 1962.64 431.439 1907.67 452.962 1855.58C459.574 1839.56 467.182 1824.18 480.129 1811.98C503.811 1789.71 535.266 1785.09 561.603 1800.47C587.193 1815.41 599.836 1846.61 592.504 1877.04C591.619 1880.72 590.706 1884.49 589.046 1887.86C561.464 1943.99 564.175 2003.89 567.246 2063.81C567.993 2078.53 570.511 2093.19 570.538 2107.88C570.677 2146.64 544.395 2176.19 507.96 2179.42C472.66 2182.55 442.035 2157.76 434.897 2120.08C433.652 2113.47 432.878 2106.75 432.158 2100.05C429.198 2072.83 427.04 2045.52 427.317 2018.11V2018.02Z" fill="#462A22"/>
<path d="M696.474 3040.88C696.114 3055.63 696.142 3072.94 692.02 3089.82C680.4 3137.43 636.773 3160.84 595.829 3141.66C569.879 3129.49 554.054 3101.52 557.181 3068.32C561.026 3027.71 554.912 2988.59 543.044 2950.11C538.7 2936.09 532.697 2922.56 527.607 2908.75C519.833 2887.76 518.533 2866.7 529.239 2846.37C541.135 2823.77 560.085 2810.65 585.786 2809.93C613.894 2809.13 635.472 2822.3 649.139 2846.42C666.457 2877.02 676.417 2910.61 684.467 2944.69C691.743 2975.48 696.308 3006.66 696.501 3040.91L696.474 3040.88Z" fill="#436321"/>
<path d="M3014.93 2496.3C2971.03 2508.69 2929.59 2476.96 2928.9 2431.59C2928.79 2424.09 2929.67 2416.43 2931.08 2409.04C2942.29 2350.11 2946.52 2290.66 2945.61 2230.77C2945.44 2219.78 2946.49 2208.94 2949.67 2198.34C2959.27 2166.34 2985.86 2146.56 3017.04 2148.3C3048.8 2150.07 3075.47 2174.19 3081.14 2206.45C3084.57 2226.04 3083.96 2245.85 3083.49 2265.6C3082.27 2317.8 3078.2 2369.78 3068.99 2421.24C3065.7 2439.53 3061.58 2457.51 3049.57 2472.62C3040.08 2484.57 3028.41 2492.92 3014.91 2496.27L3014.93 2496.3Z" fill="#BA3A2B"/>
<path d="M3016.98 1179.42C2997.11 1138.36 3021.1 1092.02 3065.67 1083.39C3073.05 1081.98 3080.72 1081.51 3088.24 1081.59C3148.22 1082.34 3207.5 1076.12 3266.32 1064.77C3277.11 1062.7 3287.95 1061.84 3298.97 1063.11C3332.16 1066.99 3356.26 1089.7 3359.99 1120.71C3363.78 1152.3 3344.7 1182.76 3313.93 1193.97C3295.23 1200.77 3275.64 1203.62 3256.08 1206.64C3204.46 1214.55 3152.59 1219.64 3100.3 1219.53C3081.71 1219.5 3063.32 1218.56 3046.33 1209.38C3032.91 1202.1 3022.65 1192.06 3016.98 1179.39V1179.42Z" fill="#BA3A2B"/>
</g>
</g>
</svg>
