<svg width="61" height="53" viewBox="0 0 61 53" fill="none" xmlns="http://www.w3.org/2000/svg">
<path d="M60.5911 27.6486L51.9909 6.14814C51.8016 5.67456 51.45 5.28372 50.999 5.04543C50.5481 4.80715 50.0271 4.73695 49.5291 4.84736L32.7937 8.56694V2.65432C32.7937 2.08409 32.5672 1.53722 32.164 1.13401C31.7608 0.730795 31.2139 0.504272 30.6437 0.504272C30.0734 0.504272 29.5266 0.730795 29.1233 1.13401C28.7201 1.53722 28.4936 2.08409 28.4936 2.65432V9.52909L10.8256 13.4556C10.485 13.5309 10.1677 13.6879 9.90132 13.9131C9.6349 14.1383 9.42728 14.425 9.29638 14.7483V14.7644L0.696201 36.2488C0.593319 36.5051 0.541288 36.7789 0.54301 37.055C0.54301 43.3197 7.13828 45.6552 11.2932 45.6552C15.4482 45.6552 22.0435 43.3197 22.0435 37.055C22.0452 36.7789 21.9932 36.5051 21.8903 36.2488L14.2281 17.1053L28.4936 13.9421V47.8053H24.1935C23.6233 47.8053 23.0764 48.0318 22.6732 48.435C22.27 48.8382 22.0435 49.3851 22.0435 49.9553C22.0435 50.5256 22.27 51.0724 22.6732 51.4756C23.0764 51.8788 23.6233 52.1054 24.1935 52.1054H37.0938C37.664 52.1054 38.2109 51.8788 38.6141 51.4756C39.0173 51.0724 39.2438 50.5256 39.2438 49.9553C39.2438 49.3851 39.0173 48.8382 38.6141 48.435C38.2109 48.0318 37.664 47.8053 37.0938 47.8053H32.7937V12.9799L46.5002 9.9376L39.397 27.6486C39.2942 27.9049 39.2421 28.1787 39.2438 28.4549C39.2438 34.7196 45.8391 37.055 49.9941 37.055C54.149 37.055 60.7443 34.7196 60.7443 28.4549C60.746 28.1787 60.694 27.9049 60.5911 27.6486ZM11.2932 41.3551C9.26951 41.3551 5.17636 40.3849 4.86192 37.4206L11.2932 21.3436L17.7246 37.4206C17.4101 40.3849 13.317 41.3551 11.2932 41.3551ZM49.9941 32.755C47.9703 32.755 43.8772 31.7847 43.5627 28.8204L49.9941 12.7434L56.4254 28.8204C56.111 31.7847 52.0178 32.755 49.9941 32.755Z" fill="#E95B02"/>
</svg>
