<svg width="47" height="47" viewBox="0 0 47 47" fill="none" xmlns="http://www.w3.org/2000/svg">
<path d="M45.2725 23.2468L41.9916 19.9659C41.4352 19.4101 40.6976 19.0727 39.9132 19.0151C39.1288 18.9575 38.3498 19.1836 37.7182 19.6522L27.5391 9.47308C28.008 8.84166 28.2344 8.06284 28.1772 7.27847C28.12 6.4941 27.7829 5.75638 27.2274 5.19967L23.9465 1.91875C23.6418 1.614 23.2801 1.37227 22.882 1.20734C22.4839 1.04241 22.0572 0.95752 21.6263 0.95752C21.1953 0.95752 20.7686 1.04241 20.3705 1.20734C19.9724 1.37227 19.6107 1.614 19.306 1.91875L6.18231 15.0425C5.87757 15.3471 5.63583 15.7088 5.4709 16.107C5.30597 16.5051 5.22109 16.9318 5.22109 17.3627C5.22109 17.7936 5.30597 18.2203 5.4709 18.6184C5.63583 19.0165 5.87757 19.3782 6.18231 19.6829L9.46324 22.9638C10.0198 23.5188 10.7571 23.8555 11.5411 23.9127C12.325 23.9699 13.1033 23.7438 13.7346 23.2755L15.2049 24.7458L1.79817 38.1525C0.907481 39.1266 0.426853 40.4068 0.456361 41.7264C0.485869 43.046 1.02324 44.3034 1.95658 45.2367C2.88993 46.1701 4.14731 46.7074 5.46693 46.7369C6.78654 46.7665 8.06669 46.2858 9.04082 45.3951L22.4455 31.9884L23.9157 33.4567C23.4469 34.0881 23.2204 34.8669 23.2777 35.6513C23.3349 36.4356 23.6719 37.1734 24.2274 37.7301L27.5084 41.011C27.813 41.3157 28.1747 41.5575 28.5729 41.7224C28.971 41.8873 29.3977 41.9722 29.8286 41.9722C30.2595 41.9722 30.6862 41.8873 31.0843 41.7224C31.4824 41.5575 31.8441 41.3157 32.1488 41.011L45.2725 27.8873C45.5773 27.5826 45.819 27.2209 45.9839 26.8228C46.1489 26.4247 46.2338 25.998 46.2338 25.5671C46.2338 25.1361 46.1489 24.7094 45.9839 24.3113C45.819 23.9132 45.5773 23.5515 45.2725 23.2468ZM11.7824 20.6446L8.50152 17.3637L21.6252 4.24L24.9062 7.52093L11.7824 20.6446ZM6.72162 43.0739C6.37583 43.4176 5.90808 43.6105 5.42052 43.6105C4.93296 43.6105 4.46521 43.4176 4.11943 43.0739C3.77632 42.7282 3.58378 42.2609 3.58378 41.7738C3.58378 41.2868 3.77632 40.8194 4.11943 40.4737L17.5241 27.0671L20.1263 29.6672L6.72162 43.0739ZM16.0887 20.985L25.2466 11.8271L35.3641 21.9447L26.2083 31.1026L16.0887 20.985ZM29.8276 38.6897L26.5466 35.4088L27.3669 34.5886L38.8501 23.1053L39.6703 22.2851L42.9513 25.566L29.8276 38.6897Z" fill="#E95B02"/>
</svg>
